<svg xmlns="http://www.w3.org/2000/svg" xmlns:xlink="http://www.w3.org/1999/xlink" enable-background="new 0 0 3000 2500" viewBox="0 0 3000 2500" id="Cashierlockerpayment"><path fill="none" d="M40.7 33.9h2918.6v2432.2H40.7z"></path><ellipse cx="1210.9" cy="2110.4" fill="#244d56" opacity=".15" rx="586.7" ry="294.7" class="color332456 svgShape"></ellipse><ellipse cx="2057.4" cy="1533.3" fill="#244d56" opacity=".15" rx="586.7" ry="294.7" class="color332456 svgShape"></ellipse><path fill="#3ed7ed" stroke="#244d56" stroke-linecap="round" stroke-linejoin="round" stroke-miterlimit="10" stroke-width="10.275" d="m2569.5 1444.1-411.4 240.7v-472l411.4-240.6z" class="coloreda53e svgShape colorStroke332456 svgStroke"></path><path fill="#1ea5c4" stroke="#244d56" stroke-linecap="round" stroke-linejoin="round" stroke-miterlimit="10" stroke-width="10.275" d="m1746.6 1444.1 411.5 240.7v-472l-411.5-240.6z" class="colorc4791e svgShape colorStroke332456 svgStroke"></path><path fill="#65d9ea" stroke="#244d56" stroke-linecap="round" stroke-linejoin="round" stroke-miterlimit="10" stroke-width="10.275" d="m1746.6 972.2 411.5 240.6 411.4-240.6-411.4-240.7z" class="coloreab465 svgShape colorStroke332456 svgStroke"></path><path fill="#fbfeff" stroke="#244d56" stroke-linecap="round" stroke-linejoin="round" stroke-miterlimit="10" stroke-width="10.275" d="m2210.5 1224.4 112.1-65.6V1282l-112.1 65.6zM2189.8 1515.8l340.7-199.3v123.2L2189.8 1639z" class="colorfbfcff svgShape colorStroke332456 svgStroke"></path><path fill="#5bb7c4" stroke="#244d56" stroke-linecap="round" stroke-linejoin="round" stroke-miterlimit="10" stroke-width="10.275" d="m1986.5 1460.4-78.2-45.7v123.2l78.2 45.7z" class="colorc4945b svgShape colorStroke332456 svgStroke"></path><path fill="#fbfeff" stroke="#244d56" stroke-linecap="round" stroke-linejoin="round" stroke-miterlimit="10" stroke-width="10.275" d="m2228.8 1243.9 77-45M2228.8 1266.4l77-45M2228.8 1288.9l77-45M2252.9 1297.3l52.9-30.9M2434.8 1372.5v121.1M2295.6 1455.4v121.1M2189.8 1546.9l340.7-199.3" class="colorfbfcff svgShape colorStroke332456 svgStroke"></path><path fill="#d7f9ff" d="M2155.5 1192.2c1.6.9 3.6.9 5.2 0l387.5-226.6 11.2 6.6-401.3 234.7-401.3-234.7 11.2-6.6 387.5 226.6z" class="colorffefd7 svgShape"></path><path fill="#d7f9ff" stroke="#244d56" stroke-linecap="round" stroke-linejoin="round" stroke-miterlimit="10" stroke-width="10.275" d="m1908.3 1066.8 78.2 45.7 411.4-240.7-78.1-45.7z" class="colorffefd7 svgShape colorStroke332456 svgStroke"></path><path fill="#65d9ea" d="M2134.3 1664.9v-436.4c0-1.8-1-3.5-2.5-4.4l-380-222.3v-20.7l401.2 234.7v460l-18.7-10.9z" class="coloreab465 svgShape"></path><path fill="#5bb7c4" stroke="#244d56" stroke-linecap="round" stroke-linejoin="round" stroke-miterlimit="10" stroke-width="10.275" d="m1986.5 1112.5-78.2-45.7V1190l78.2 45.7z" class="colorc4945b svgShape colorStroke332456 svgStroke"></path><path fill="#d7f9ff" d="M2550.1 1449.5v-433.3c0-1.8-1-3.5-2.6-4.5-1.6-.9-3.6-.9-5.1 0l-379.2 221.8v-17.8L2564.4 981v460.1l-14.3 8.4z" class="colorffefd7 svgShape"></path><path fill="#c6c6c6" stroke="#244d56" stroke-linecap="round" stroke-linejoin="round" stroke-miterlimit="10" stroke-width="13.653" d="m1157.6 2259.2 53.3 31.2v-44.9l-53.3-31.2z" class="colorc6c6c6 svgShape colorStroke332456 svgStroke"></path><path fill="#d7dadb" stroke="#244d56" stroke-linecap="round" stroke-linejoin="round" stroke-miterlimit="10" stroke-width="13.653" d="m1264.2 2259.2-53.3 31.2v-44.9l53.3-31.2z" class="colord7d8db svgShape colorStroke332456 svgStroke"></path><path fill="#f4f4f4" stroke="#244d56" stroke-linecap="round" stroke-linejoin="round" stroke-miterlimit="10" stroke-width="8.588" d="m1264.2 2214.3-53.3 31.2-53.3-31.2 53.3-31.2z" class="colorf4f4f4 svgShape colorStroke332456 svgStroke"></path><path fill="#c6c6c6" stroke="#244d56" stroke-linecap="round" stroke-linejoin="round" stroke-miterlimit="10" stroke-width="13.653" d="m455.6 1848.7 53.3 31.1v-44.9l-53.3-31.1z" class="colorc6c6c6 svgShape colorStroke332456 svgStroke"></path><path fill="#d7dadb" stroke="#244d56" stroke-linecap="round" stroke-linejoin="round" stroke-miterlimit="10" stroke-width="13.653" d="m562.2 1848.7-53.3 31.1v-44.9l53.3-31.1z" class="colord7d8db svgShape colorStroke332456 svgStroke"></path><path fill="#f4f4f4" stroke="#244d56" stroke-linecap="round" stroke-linejoin="round" stroke-miterlimit="10" stroke-width="8.588" d="m562.2 1803.8-53.3 31.1-53.3-31.1 53.3-31.2z" class="colorf4f4f4 svgShape colorStroke332456 svgStroke"></path><path fill="#a2a5a5" stroke="#244d56" stroke-linecap="round" stroke-linejoin="round" stroke-miterlimit="10" stroke-width="13.653" d="m430.5 1791.5 780.4 456.5v-102l-780.4-456.5z" class="colora5a2a2 svgShape colorStroke332456 svgStroke"></path><path fill="#d7dadb" stroke="#244d56" stroke-linecap="round" stroke-linejoin="round" stroke-miterlimit="10" stroke-width="13.653" d="M1991.4 1791.5 1210.9 2248v-102l780.5-456.5z" class="colord7d8db svgShape colorStroke332456 svgStroke"></path><path fill="#f4f4f4" stroke="#244d56" stroke-linecap="round" stroke-linejoin="round" stroke-miterlimit="10" stroke-width="13.653" d="M1991.4 1689.5 1210.9 2146l-780.4-456.5 780.4-456.5z" class="colorf4f4f4 svgShape colorStroke332456 svgStroke"></path><path fill="#ffffff" d="M1214.4 2106.1c-2.2 1.3-4.8 1.3-6.9 0l-737.8-431.6-25.6 15 766.9 448.6 766.9-448.6-25.6-15-737.9 431.6z" class="colorffffff svgShape"></path><path fill="#a2a5a5" d="M1240.1 2223.1v-63.8c0-2.4 1.3-4.7 3.4-5.9l741.1-433.5v-18.5l-766.8 448.5v86.2l22.3-13z" class="colora5a2a2 svgShape"></path><path fill="#f4f4f4" d="M1204.1 2236.1v-86.2l-766.8-448.5v17.5l742.8 434.4c2.1 1.2 3.4 3.5 3.4 5.9v64.8l20.6 12.1z" class="colorf4f4f4 svgShape"></path><path fill="#f4f4f4" stroke="#244d56" stroke-linecap="round" stroke-linejoin="round" stroke-miterlimit="10" stroke-width="13.653" d="M955.9 1098h806.7v515.8H955.9z" transform="rotate(-29.955 1359.22 1355.933)" class="colorf4f4f4 svgShape colorStroke332456 svgStroke"></path><path fill="#a2a5a5" stroke="#244d56" stroke-linecap="round" stroke-linejoin="round" stroke-miterlimit="10" stroke-width="13.653" d="m1138.7 1982 699-402.7v-201.4l-699 402.7z" class="colora5a2a2 svgShape colorStroke332456 svgStroke"></path><path fill="#d7dadb" stroke="#244d56" stroke-linecap="round" stroke-linejoin="round" stroke-miterlimit="10" stroke-width="13.653" d="m1471.4 1974 642.7-370.4v136.5l-642.7 370.3z" class="colord7d8db svgShape colorStroke332456 svgStroke"></path><path fill="#d7dadb" stroke="#244d56" stroke-linecap="round" stroke-linejoin="round" stroke-miterlimit="10" stroke-width="13.653" d="m1499.6 1990.3 586.3-338v71.5l-586.3 337.9z" class="colord7d8db svgShape colorStroke332456 svgStroke"></path><path fill="#c6c6c6" stroke="#244d56" stroke-linecap="round" stroke-linejoin="round" stroke-miterlimit="10" stroke-width="13.653" d="m880.8 1334 698.9-402.8-256.2-150.8-699 402.8z" class="colorc6c6c6 svgShape colorStroke332456 svgStroke"></path><path fill="#ffffff" d="M884.2 1311.1c-2.1 1.2-4.8 1.2-6.9 0l-228.1-134.2-11.1 6.4 242.8 142.8 685.4-395-11.2-6.6-670.9 386.6z" class="colorffffff svgShape"></path><path fill="#a2a5a5" stroke="#244d56" stroke-linecap="round" stroke-linejoin="round" stroke-miterlimit="10" stroke-width="13.653" d="M624.5 1183.2V1680l514.2 302v-201.4L880.8 1334z" class="colora5a2a2 svgShape colorStroke332456 svgStroke"></path><path fill="#3897ad" stroke="#244d56" stroke-linecap="round" stroke-linejoin="round" stroke-miterlimit="10" stroke-width="15.075" d="m1229.4 1231.5-241.9 136 136.4 224.7 241.9-136z" class="color466ab2 svgShape colorStroke332456 svgStroke"></path><path fill="#244d56" d="m1399.1 1134.2-37.2 20.9c-2.7 1.5-3.7 5-2 7.7l20.7 34c1.6 2.6 4.9 3.4 7.5 2l37.2-20.9c2.7-1.5 3.7-5 2-7.7l-20.7-34c-1.6-2.6-4.9-3.5-7.5-2zM1467.2 1095.7l-37.2 20.9c-2.7 1.5-3.7 5-2 7.7l20.7 34c1.6 2.6 4.9 3.4 7.5 2l37.2-20.9c2.7-1.5 3.7-5 2-7.7l-20.7-34c-1.6-2.6-4.9-3.4-7.5-2zM1535.3 1057.2l-37.2 20.9c-2.7 1.5-3.7 5-2 7.7l20.7 34c1.6 2.6 4.9 3.4 7.5 2l37.2-20.9c2.7-1.5 3.7-5 2-7.7l-20.7-34c-1.5-2.6-4.8-3.4-7.5-2zM1435.7 1193.5l-37.2 20.9c-2.7 1.5-3.7 5-2 7.7l20.7 34c1.6 2.6 4.9 3.4 7.5 2l37.2-20.9c2.7-1.5 3.7-5 2-7.7l-20.7-34c-1.5-2.6-4.8-3.5-7.5-2zM1503.9 1155l-37.2 20.9c-2.7 1.5-3.7 5-2 7.7l20.7 34c1.6 2.6 4.9 3.4 7.5 2l37.2-20.9c2.7-1.5 3.7-5 2-7.7l-20.7-34c-1.6-2.6-4.9-3.4-7.5-2zM1572 1116.5l-37.2 20.9c-2.7 1.5-3.7 5-2 7.7l20.7 34c1.6 2.6 4.9 3.4 7.5 2l37.2-20.9c2.7-1.5 3.7-5 2-7.7l-20.7-34c-1.6-2.6-4.9-3.4-7.5-2zM1472.4 1252.8l-37.2 20.9c-2.7 1.5-3.7 5-2 7.7l20.7 34c1.6 2.6 4.9 3.4 7.5 2l37.2-20.9c2.7-1.5 3.7-5 2-7.7l-20.7-34c-1.6-2.6-4.9-3.5-7.5-2zM1540.5 1214.3l-37.2 20.9c-2.7 1.5-3.7 5-2 7.7l20.7 34c1.6 2.6 4.9 3.4 7.5 2l37.2-20.9c2.7-1.5 3.7-5 2-7.7l-20.7-34c-1.6-2.6-4.9-3.5-7.5-2zM1608.7 1175.8l-37.2 20.9c-2.7 1.5-3.7 5-2 7.7l20.7 34c1.6 2.6 4.9 3.4 7.5 2l37.2-20.9c2.7-1.5 3.7-5 2-7.7l-20.7-34c-1.6-2.6-4.9-3.4-7.5-2zM1509.1 1312.1l-37.2 20.9c-2.7 1.5-3.7 5-2 7.7l20.7 34c1.6 2.6 4.9 3.4 7.5 2l37.2-20.9c2.7-1.5 3.7-5 2-7.7l-20.7-34c-1.6-2.6-4.9-3.5-7.5-2zM1686.4 1299.3l-174.9 98.4c-2.7 1.5-3.7 5-2 7.7l20.7 34c1.6 2.6 4.9 3.4 7.5 2l174.9-98.4c2.7-1.5 3.7-5 2-7.7l-20.7-34c-1.6-2.6-4.9-3.4-7.5-2zM1577.2 1273.6l-37.2 20.9c-2.7 1.5-3.7 5-2 7.7l20.7 34c1.6 2.6 4.9 3.4 7.5 2l37.2-20.9c2.7-1.5 3.7-5 2-7.7l-20.7-34c-1.6-2.6-4.9-3.5-7.5-2zM1645.3 1235.1l-37.2 20.9c-2.7 1.5-3.7 5-2 7.7l20.7 34c1.6 2.6 4.9 3.4 7.5 2l37.2-20.9c2.7-1.5 3.7-5 2-7.7l-20.7-34c-1.6-2.6-4.9-3.4-7.5-2z" class="color332456 svgShape"></path><path fill="#3897ad" stroke="#244d56" stroke-linecap="round" stroke-linejoin="round" stroke-miterlimit="10" stroke-width="10.05" d="m1037.3 1377.9 86.5-48.1M1049.1 1401.9l150-81.7M1108.1 1493.8l86.5-48M1119.8 1517.8l150.1-81.7M1060.9 1425.9l150-81.7M1072.7 1449.9l150-81.7" class="color466ab2 svgShape colorStroke332456 svgStroke"></path><path fill="#d7dadb" stroke="#244d56" stroke-linecap="round" stroke-linejoin="round" stroke-miterlimit="10" stroke-width="13.653" d="m2057.4 1603.8-586.1 337.7-264.7-150.3 586.1-337.7z" class="colord7d8db svgShape colorStroke332456 svgStroke"></path><path fill="#d7dadb" stroke="#244d56" stroke-linecap="round" stroke-linejoin="round" stroke-miterlimit="10" stroke-width="13.653" d="m2057.4 1603.8-586.1 337.7-264.7-150.3 586.1-337.7zM1471.4 2110.4l-294.8-167.5v-136.4l294.8 167.5z" class="colord7d8db svgShape colorStroke332456 svgStroke"></path><path fill="#a5aeaf" stroke="#244d56" stroke-linecap="round" stroke-linejoin="round" stroke-miterlimit="10" stroke-width="13.653" d="m1943.8 1669.3 113.6-65.5-264.6-152.1-127.2 73.2z" class="colora5a7af svgShape colorStroke332456 svgStroke"></path><path fill="#f4f4f4" stroke="#244d56" stroke-linecap="round" stroke-linejoin="round" stroke-miterlimit="10" stroke-width="13.653" d="m1898.3 1481.1 2.8-1.6h-5.7l-76.2-43.3-642.6 370.2 294.9 167.6 642.6-370.4-215.8-122.5zm159.1 122.7-220.6 127.1-186.8-106.7 220-126.8 187.4 106.4zm-850.8 187.4 586.1-337.7 49 27.8-583.3 336.1v3.2l-51.8-29.4zm264.7 150.3L1284 1835.1l337.4-194.5 186.8 106.7-336.9 194.2z" class="colorf4f4f4 svgShape colorStroke332456 svgStroke"></path><path fill="#d7dadb" stroke="#244d56" stroke-linecap="round" stroke-linejoin="round" stroke-miterlimit="10" stroke-width="13.653" d="M1870.1 1497.4V1631l-104.8 59-115.2-65.8zM1618.6 1645.3v133.6l-217.7 122.6-116.9-66.4z" class="colord7d8db svgShape colorStroke332456 svgStroke"></path><path fill="#a5aeaf" stroke="#244d56" stroke-linecap="round" stroke-linejoin="round" stroke-miterlimit="10" stroke-width="13.653" d="M1618.6 1645.3v133.6l68.1 37.7 121.5-69.2z" class="colora5a7af svgShape colorStroke332456 svgStroke"></path><path fill="#17424c" d="m1736.9 1877.6 168.4-97v22.9l-168.4 97z" class="color29174c svgShape"></path><path fill="#c6c6c6" stroke="#244d56" stroke-linecap="round" stroke-linejoin="round" stroke-miterlimit="10" stroke-width="13.653" d="m967.5 989.2 81.6 47.7V516.7L967.5 469z" class="colorc6c6c6 svgShape colorStroke332456 svgStroke"></path><path fill="#f4f4f4" stroke="#244d56" stroke-linecap="round" stroke-linejoin="round" stroke-miterlimit="10" stroke-width="13.653" d="m1130.7 989.2-81.6 47.7V516.7l81.6-47.7zM1130.7 469l-81.6 47.7-81.6-47.7 81.6-47.8z" class="colorf4f4f4 svgShape colorStroke332456 svgStroke"></path><path fill="#c6c6c6" stroke="#244d56" stroke-linecap="round" stroke-linejoin="round" stroke-miterlimit="10" stroke-width="15.381" d="m781.1 644 142.3 83.3V522.8l-142.3-83.2z" class="colorc6c6c6 svgShape colorStroke332456 svgStroke"></path><path fill="#f4f4f4" stroke="#244d56" stroke-linecap="round" stroke-linejoin="round" stroke-miterlimit="10" stroke-width="15.381" d="m1316.8 497.3-393.4 230V522.8l393.4-229.9z" class="colorf4f4f4 svgShape colorStroke332456 svgStroke"></path><path fill="#3897ad" stroke="#244d56" stroke-linecap="round" stroke-linejoin="round" stroke-miterlimit="10" stroke-width="15.075" d="M1280.5 356v120.6l-321 187.6v-29.4L1250.4 465v-91.3z" class="color466ab2 svgShape colorStroke332456 svgStroke"></path><path fill="#3897ad" stroke="#244d56" stroke-linecap="round" stroke-linejoin="round" stroke-miterlimit="10" stroke-width="15.075" d="M1250.4 373.7V465L959.5 634.8v-91.3z" class="color466ab2 svgShape colorStroke332456 svgStroke"></path><path fill="#f4f4f4" stroke="#244d56" stroke-linecap="round" stroke-linejoin="round" stroke-miterlimit="10" stroke-width="15.381" d="M1316.8 292.9 923.4 522.8l-142.3-83.2 393.4-230z" class="colorf4f4f4 svgShape colorStroke332456 svgStroke"></path><path fill="#f4f4f4" d="M915.7 713.9V527.2L788.8 453v23l105.8 61.9c2.4 1.4 3.8 3.9 3.8 6.6v159.3l17.3 10.1z" class="colorf4f4f4 svgShape"></path><path fill="#2f6d7c" stroke="#244d56" stroke-linecap="round" stroke-linejoin="round" stroke-miterlimit="10" stroke-width="15.075" d="m1250.4 465 30.1 11.6V356l-30.1 17.7z" class="color2f4d7c svgShape colorStroke332456 svgStroke"></path><path fill="#17424c" d="m751.6 1207.9 237.1-139.5c9-5.3 8.8-18.3-.2-23.4l-12.7-7.1c-6.6-3.7-14.8-3.7-21.3.2l-236.3 139c-10.2 6-10.1 20.8.3 26.6l8 4.5c7.8 4.3 17.4 4.2 25.1-.3z" class="color29174c svgShape"></path><path fill="#f4f4f4" stroke="#244d56" stroke-linecap="round" stroke-linejoin="round" stroke-miterlimit="10" stroke-width="13.653" d="M758.5 1195.4s-45.1-275.1-191.7-319.2L787.5 749C934.1 793.1 978 1066.2 978 1066.2l-219.5 129.2z" class="colorf4f4f4 svgShape colorStroke332456 svgStroke"></path><path fill="#bfc1c1" d="M787.7 1144.3c-1.9 1.2-4.3 1.3-6.4.3-2-1-3.5-2.8-3.8-5.1-.4-2.2-36.9-217.4-145.4-293.2l-49.2 28.4c124.2 51.4 171.2 261.1 180.5 309.8l207-121.8c-.9-4.7-2.4-12.7-4.7-23.1l-178 104.7z" class="colorc1bfbf svgShape"></path><path fill="#f4f4f4" stroke="#244d56" stroke-linecap="round" stroke-linejoin="round" stroke-miterlimit="10" stroke-width="13.653" d="m637.2 876.8 73.5-43.2M665.8 904 766 845.1M687.3 933.4l92.9-54.6M708.7 962.9l55-32.4M730.1 992.3l91.5-53.8M737.3 1028.4l87.4-51.4M751.5 1064.5l100.2-58.8M766 1099.2l75-44.1M769.5 799.7l38-20.8M798.2 826.9l37.9-20.8M819.6 856.4l38-20.9M841 885.8l38-20.9M862.4 915.2l38-20.8M869.7 951.4l37.9-20.9M883.8 987.5l38-20.9M898.3 1022.2l38-20.9" class="colorf4f4f4 svgShape colorStroke332456 svgStroke"></path><path fill="#52bfd8" stroke="#244d56" stroke-linecap="round" stroke-linejoin="round" stroke-miterlimit="10" stroke-width="13.653" d="m1334.5 1862.4 105.4-60.7 137.6 78.6-104.8 60.4z" class="color52d875 svgShape colorStroke332456 svgStroke"></path><path fill="none" stroke="#244d56" stroke-linecap="round" stroke-linejoin="round" stroke-miterlimit="10" stroke-width="10.05" d="m1438.6 1824.8 41.7 22.9M1430.4 1900.5l41.8 23" class="colorStroke332456 svgStroke"></path><path fill="#52bfd8" stroke="#244d56" stroke-linecap="round" stroke-linejoin="round" stroke-miterlimit="10" stroke-width="13.653" d="m1456 1788.1 105.4-60.8L1699 1806l-104.8 60.4z" class="color52d875 svgShape colorStroke332456 svgStroke"></path><path fill="none" stroke="#244d56" stroke-linecap="round" stroke-linejoin="round" stroke-miterlimit="10" stroke-width="10.05" d="m1560 1750.5 41.8 22.9M1551.9 1826.2l41.8 22.9" class="colorStroke332456 svgStroke"></path><path fill="#41a1b7" stroke="#244d56" stroke-linecap="round" stroke-linejoin="round" stroke-miterlimit="10" stroke-width="3.467" d="M1808.1 1686.6c.7.4 1.5.8 2.2 1.2.3.2.7.4 1 .5.2.1.3.2.5.2.3.1.5.3.8.4.8.4 1.6.7 2.3 1.1.8.4 1.6.7 2.4 1.1h.2c.8.3 1.5.6 2.3.9.9.3 1.7.7 2.6 1 .3.1.6.2 1 .3.2.1.4.1.6.2.4.1.8.3 1.2.4.9.3 1.8.6 2.8.8l2.1.6c.1 0 .2.1.4.1.1 0 .2.1.4.1.9.2 1.8.5 2.8.7.9.2 1.8.4 2.8.6.2 0 .4.1.5.1.1 0 .3.1.4.1l1.8.3c.9.2 1.8.3 2.7.5.7.1 1.3.2 2 .3.1 0 .2 0 .3.1.1 0 .3 0 .4.1.9.1 1.8.2 2.8.4 1 .1 2 .2 3.1.3h1.1c.8.1 1.6.1 2.5.2 1 .1 2.1.1 3.1.1.5 0 1.1.1 1.6.1h7.9c1.9-.1 3.9-.2 5.8-.3h0c1.3-.1 2.6-.2 3.9-.4 1-.1 2.1-.2 3.1-.4h.1s0 0 0 0c1-.1 2.1-.3 3.1-.5s2-.3 3-.5c.2 0 .3-.1.5-.1s.3-.1.5-.1c.7-.1 1.4-.3 2.1-.4 1-.2 2-.5 3-.7.3-.1.6-.2.9-.2.2-.1.5-.1.7-.2.5-.1 1-.2 1.4-.4l3-.9c.4-.1.9-.3 1.3-.4.2-.1.4-.1.6-.2l.9-.3c.9-.3 1.8-.7 2.7-1 .6-.3 1.3-.5 1.9-.8.1 0 .2-.1.4-.1.1 0 .2-.1.3-.1.8-.4 1.6-.7 2.4-1.1.8-.4 1.6-.8 2.3-1.2.2-.1.4-.2.5-.3.6-.3 1.1-.6 1.7-.9l2.1-1.2c.4-.3.9-.5 1.3-.8.1-.1.2-.1.3-.2.1-.1.3-.2.4-.2.6-.4 1.3-.9 1.9-1.3.6-.4 1.2-.9 1.8-1.4.1-.1.2-.2.3-.2.1-.1.2-.1.3-.2.4-.3.8-.6 1.2-1 .6-.5 1.1-1 1.7-1.5.3-.2.5-.5.7-.7l.3-.3.5-.5c.5-.6 1.1-1.1 1.6-1.7.3-.4.6-.7.9-1.1.1-.1.2-.3.3-.4.1-.1.2-.2.3-.4.5-.7 1-1.3 1.4-2 .2-.3.3-.6.5-.9.1-.2.3-.5.4-.7.1-.2.3-.5.4-.7.5-.9.9-1.8 1.2-2.8v-.1c.1-.2.1-.4.2-.6.3-1 .7-1.9.9-2.9v-.2c.3-1.4.5-2.9.6-4.4l.6-17.4c-.1 1.5-.3 2.9-.6 4.4-.2 1.1-.6 2.1-.9 3.2-.1.2-.1.4-.2.6-.5 1.2-1 2.4-1.7 3.6-.1.2-.3.5-.4.7-.7 1.1-1.4 2.2-2.2 3.3-.1.1-.2.3-.3.4-.9 1.1-1.8 2.2-2.9 3.3l-.3.3c-1.1 1.1-2.3 2.2-3.6 3.2-.1.1-.2.1-.3.2-1.4 1.1-2.8 2.1-4.4 3.1-.1.1-.2.1-.3.2-1.6 1-3.3 2-5.1 3-1.8 1-3.7 1.8-5.7 2.7-.1.1-.2.1-.4.1-1.8.8-3.7 1.5-5.6 2.1-.2.1-.4.1-.7.2-1.9.6-3.8 1.2-5.7 1.7-.2.1-.5.1-.7.2-2 .5-4 1-6 1.4-.2 0-.3.1-.5.1-2.2.4-4.4.8-6.7 1.1h-.1c-2.3.3-4.6.6-7 .7h0c-2.1.2-4.3.3-6.4.3h-7.3c-.5 0-1.1 0-1.6-.1-1.9-.1-3.7-.2-5.6-.3h-.6c-2.2-.2-4.5-.5-6.7-.8-.1 0-.2 0-.3-.1-2.2-.3-4.3-.7-6.5-1.1-.1 0-.3-.1-.4-.1-2.2-.4-4.3-1-6.4-1.5-.1 0-.2-.1-.4-.1-2-.5-4-1.2-6-1.8-.2-.1-.4-.1-.6-.2-2-.7-4-1.4-5.9-2.2h-.1c-1.9-.8-3.8-1.7-5.7-2.6-.2-.1-.3-.2-.5-.2-1.8-.9-3.6-1.9-5.3-3-1.7-1.1-3.3-2.1-4.8-3.3-.1-.1-.3-.2-.4-.3-1.4-1-2.6-2.1-3.8-3.2-.2-.1-.3-.3-.5-.4-1.1-1.1-2.2-2.1-3.1-3.2-.2-.2-.3-.4-.5-.6-.9-1.1-1.7-2.1-2.4-3.2-.1-.1-.2-.2-.3-.4-.8-1.2-1.5-2.5-2.1-3.8-.1-.2-.1-.3-.2-.5-.5-1-.9-2.1-1.2-3.1-.1-.4-.2-.8-.3-1.1l-.6-2.7c-.1-.4-.1-.7-.2-1.1-.1-1.2-.2-2.4-.2-3.7l-.6 17.4c0 1.2 0 2.4.2 3.7 0 .4.1.7.2 1.1.1.9.3 1.8.6 2.7.1.4.2.8.3 1.1.3 1 .7 2.1 1.2 3.1.1.2.1.3.2.5v.1c.6 1.2 1.2 2.4 2 3.5l.1.1c.1.1.2.2.3.4l1.5 2.1c.3.4.6.7.9 1 .2.2.3.4.5.6.2.2.3.4.5.6.6.7 1.2 1.3 1.9 2l.7.7c.2.1.3.3.5.4.2.2.5.4.7.7.6.5 1.3 1.1 1.9 1.6.4.3.8.6 1.1.9.1.1.3.2.4.3.2.1.3.2.5.4.7.5 1.3 1 2 1.4.7.5 1.4.9 2.1 1.4l.1.1c1.2.4 1.9.8 2.6 1.2z" class="colorb77441 svgShape colorStroke332456 svgStroke"></path><path fill="#76d7e5" stroke="#244d56" stroke-linecap="round" stroke-linejoin="round" stroke-miterlimit="10" stroke-width="3.467" d="M1911.8 1671.5c-29.8 15.6-76.9 14-105.2-3.5-28.3-17.5-27.2-44.4 2.6-60 29.7-15.6 76.8-14 105.2 3.5 28.3 17.6 27.2 44.4-2.6 60z" class="colore5a876 svgShape colorStroke332456 svgStroke"></path><path fill="#41a1b7" stroke="#244d56" stroke-linecap="round" stroke-linejoin="round" stroke-miterlimit="10" stroke-width="3.467" d="M1804.3 1641.3c-1.4-9.4 4.4-18.9 17.3-25.7 22.6-11.9 58.4-10.7 79.9 2.7 14 8.7 18.5 20.3 13.7 30.6-1-7.1-6.1-14.1-15.3-19.8-21.5-13.3-57.4-14.5-79.9-2.7-7.9 4.2-13.2 9.4-15.7 14.9z" class="colorb77441 svgShape colorStroke332456 svgStroke"></path><path fill="#76d7e5" stroke="#244d56" stroke-linecap="round" stroke-linejoin="round" stroke-miterlimit="10" stroke-width="3.467" d="M1819.6 1661.2c-9.3-5.8-14.4-12.8-15.4-19.9 2.5-5.6 7.8-10.7 15.6-14.9 22.6-11.8 58.4-10.6 79.9 2.7 9.2 5.7 14.3 12.7 15.3 19.8-2.5 5.6-7.7 10.8-15.7 14.9-22.4 12-58.2 10.8-79.7-2.6z" class="colore5a876 svgShape colorStroke332456 svgStroke"></path><path fill="#244d56" d="m1843.6 1627.6 6 3.7c4.4-2 10-3.4 14.1-3.8l2.2 3.3c-4.1.4-9.2 1.5-13.4 3.5-5.3 2.5-6.5 5.7-3.2 7.8 3.3 2 8.2 1.9 15.6.4 10.1-2.1 17.5-2.7 22.7.5 4.9 3 4.2 7.4-1.8 11.2l6 3.7-4.7 2.2-5.8-3.5c-4.6 2-8.7 2.9-11.9 3.3l-2-3.3c2.3-.3 6.7-.9 11.5-3.2 5.8-2.7 5.3-5.4 2.9-6.9-3.1-1.9-7.4-1.5-16.1.2-10.3 2.1-17.3 2-22.5-1.2-4.7-2.9-4.9-7.5 1.8-11.8l-6.2-3.8 4.8-2.3z" class="color332456 svgShape"></path><path fill="#41a1b7" stroke="#244d56" stroke-linecap="round" stroke-linejoin="round" stroke-miterlimit="10" stroke-width="3.467" d="M1808.1 1666.4c.7.4 1.5.8 2.2 1.2.3.2.7.4 1 .5.2.1.3.2.5.2.3.1.5.3.8.4.8.4 1.6.7 2.3 1.1.8.4 1.6.7 2.4 1.1h.2c.8.3 1.5.6 2.3.9.9.3 1.7.7 2.6 1 .3.1.6.2 1 .3.2.1.4.1.6.2.4.1.8.3 1.2.4.9.3 1.8.6 2.8.8l2.1.6c.1 0 .2.1.4.1.1 0 .2.1.4.1.9.2 1.8.5 2.8.7.9.2 1.8.4 2.8.6.2 0 .4.1.5.1.1 0 .3.1.4.1l1.8.3c.9.2 1.8.3 2.7.5.7.1 1.3.2 2 .3.1 0 .2 0 .3.1.1 0 .3 0 .4.1.9.1 1.8.2 2.8.4 1 .1 2 .2 3.1.3h1.1c.8.1 1.6.1 2.5.2 1 .1 2.1.1 3.1.1.5 0 1.1.1 1.6.1h7.9c1.9-.1 3.9-.2 5.8-.3h0c1.3-.1 2.6-.2 3.9-.4 1-.1 2.1-.2 3.1-.4h.1s0 0 0 0c1-.1 2.1-.3 3.1-.5s2-.3 3-.5c.2 0 .3-.1.5-.1s.3-.1.5-.1c.7-.1 1.4-.3 2.1-.4 1-.2 2-.5 3-.7.3-.1.6-.2.9-.2.2-.1.5-.1.7-.2.5-.1 1-.2 1.4-.4l3-.9c.4-.1.9-.3 1.3-.4.2-.1.4-.1.6-.2l.9-.3c.9-.3 1.8-.7 2.7-1 .6-.3 1.3-.5 1.9-.8.1 0 .2-.1.4-.1.1 0 .2-.1.3-.1.8-.4 1.6-.7 2.4-1.1.8-.4 1.6-.8 2.3-1.2.2-.1.4-.2.5-.3.6-.3 1.1-.6 1.7-.9l2.1-1.2c.4-.3.9-.5 1.3-.8.1-.1.2-.1.3-.2.1-.1.3-.2.4-.2.6-.4 1.3-.9 1.9-1.3.6-.4 1.2-.9 1.8-1.4.1-.1.2-.2.3-.2.1-.1.2-.1.3-.2.4-.3.8-.6 1.2-1 .6-.5 1.1-1 1.7-1.5.3-.2.5-.5.7-.7l.3-.3.5-.5c.5-.6 1.1-1.1 1.6-1.7.3-.4.6-.7.9-1.1.1-.1.2-.3.3-.4.1-.1.2-.2.3-.4.5-.7 1-1.3 1.4-2 .2-.3.3-.6.5-.9.1-.2.3-.5.4-.7.1-.2.3-.5.4-.7.5-.9.9-1.8 1.2-2.8v-.1c.1-.2.1-.4.2-.6.3-1 .7-1.9.9-2.9v-.2c.3-1.4.5-2.9.6-4.4l.6-17.4c-.1 1.5-.3 2.9-.6 4.4-.2 1.1-.6 2.1-.9 3.2-.1.2-.1.4-.2.6-.5 1.2-1 2.4-1.7 3.6-.1.2-.3.5-.4.7-.7 1.1-1.4 2.2-2.2 3.3-.1.1-.2.3-.3.4-.9 1.1-1.8 2.2-2.9 3.3l-.3.3c-1.1 1.1-2.3 2.2-3.6 3.2-.1.1-.2.1-.3.2-1.4 1.1-2.8 2.1-4.4 3.1-.1.1-.2.1-.3.2-1.6 1-3.3 2-5.1 3-1.8 1-3.7 1.8-5.7 2.7-.1.1-.2.1-.4.1-1.8.8-3.7 1.5-5.6 2.1-.2.1-.4.1-.7.2-1.9.6-3.8 1.2-5.7 1.7-.2.1-.5.1-.7.2-2 .5-4 1-6 1.4-.2 0-.3.1-.5.1-2.2.4-4.4.8-6.7 1.1h-.1c-2.3.3-4.6.6-7 .7h0c-2.1.2-4.3.3-6.4.3h-7.3c-.5 0-1.1 0-1.6-.1-1.9-.1-3.7-.2-5.6-.3h-.6c-2.2-.2-4.5-.5-6.7-.8-.1 0-.2 0-.3-.1-2.2-.3-4.3-.7-6.5-1.1-.1 0-.3-.1-.4-.1-2.2-.4-4.3-1-6.4-1.5-.1 0-.2-.1-.4-.1-2-.5-4-1.2-6-1.8-.2-.1-.4-.1-.6-.2-2-.7-4-1.4-5.9-2.2h-.1c-1.9-.8-3.8-1.7-5.7-2.6-.2-.1-.3-.2-.5-.2-1.8-.9-3.6-1.9-5.3-3-1.7-1.1-3.3-2.1-4.8-3.3-.1-.1-.3-.2-.4-.3-1.4-1-2.6-2.1-3.8-3.2-.2-.1-.3-.3-.5-.4-1.1-1.1-2.2-2.1-3.1-3.2-.2-.2-.3-.4-.5-.6-.9-1.1-1.7-2.1-2.4-3.2-.1-.1-.2-.2-.3-.4-.8-1.2-1.5-2.5-2.1-3.8-.1-.2-.1-.3-.2-.5-.5-1-.9-2.1-1.2-3.1-.1-.4-.2-.8-.3-1.1l-.6-2.7c-.1-.4-.1-.7-.2-1.1-.1-1.2-.2-2.4-.2-3.7l-.6 17.4c0 1.2 0 2.4.2 3.7 0 .4.1.7.2 1.1.1.9.3 1.8.6 2.7.1.4.2.8.3 1.1.3 1 .7 2.1 1.2 3.1.1.2.1.3.2.5v.1c.6 1.2 1.2 2.4 2 3.5l.1.1c.1.1.2.2.3.4l1.5 2.1c.3.4.6.7.9 1 .2.2.3.4.5.6.2.2.3.4.5.6.6.7 1.2 1.3 1.9 2l.7.7c.2.1.3.3.5.4.2.2.5.4.7.7.6.5 1.3 1.1 1.9 1.6.4.3.8.6 1.1.9.1.1.3.2.4.3.2.1.3.2.5.4.7.5 1.3 1 2 1.4.7.5 1.4.9 2.1 1.4l.1.1c1.2.4 1.9.8 2.6 1.2z" class="colorb77441 svgShape colorStroke332456 svgStroke"></path><path fill="#76d7e5" stroke="#244d56" stroke-linecap="round" stroke-linejoin="round" stroke-miterlimit="10" stroke-width="3.467" d="M1911.8 1651.3c-29.8 15.6-76.9 14-105.2-3.5-28.3-17.5-27.2-44.4 2.6-60 29.7-15.6 76.8-14 105.2 3.5 28.3 17.6 27.2 44.4-2.6 60z" class="colore5a876 svgShape colorStroke332456 svgStroke"></path><path fill="#41a1b7" stroke="#244d56" stroke-linecap="round" stroke-linejoin="round" stroke-miterlimit="10" stroke-width="3.467" d="M1804.3 1621.1c-1.4-9.4 4.4-18.9 17.3-25.7 22.6-11.9 58.4-10.7 79.9 2.7 14 8.7 18.5 20.3 13.7 30.6-1-7.1-6.1-14.1-15.3-19.8-21.5-13.3-57.4-14.5-79.9-2.7-7.9 4.2-13.2 9.3-15.7 14.9z" class="colorb77441 svgShape colorStroke332456 svgStroke"></path><path fill="#76d7e5" stroke="#244d56" stroke-linecap="round" stroke-linejoin="round" stroke-miterlimit="10" stroke-width="3.467" d="M1819.6 1641c-9.3-5.8-14.4-12.8-15.4-19.9 2.5-5.6 7.8-10.7 15.6-14.9 22.6-11.8 58.4-10.6 79.9 2.7 9.2 5.7 14.3 12.7 15.3 19.8-2.5 5.6-7.7 10.8-15.7 14.9-22.4 11.9-58.2 10.8-79.7-2.6z" class="colore5a876 svgShape colorStroke332456 svgStroke"></path><path fill="#244d56" d="m1843.6 1607.4 6 3.7c4.4-2 10-3.4 14.1-3.8l2.2 3.3c-4.1.4-9.2 1.5-13.4 3.5-5.3 2.5-6.5 5.7-3.2 7.8 3.3 2 8.2 1.9 15.6.4 10.1-2.1 17.5-2.7 22.7.5 4.9 3 4.2 7.4-1.8 11.2l6 3.7-4.7 2.2-5.8-3.5c-4.6 2-8.7 2.9-11.9 3.3l-2-3.3c2.3-.3 6.7-.9 11.5-3.2 5.8-2.7 5.3-5.4 2.9-6.9-3.1-1.9-7.4-1.5-16.1.2-10.3 2.1-17.3 2-22.5-1.2-4.7-2.9-4.9-7.5 1.8-11.8l-6.2-3.8 4.8-2.3z" class="color332456 svgShape"></path><path fill="#41a1b7" stroke="#244d56" stroke-linecap="round" stroke-linejoin="round" stroke-miterlimit="10" stroke-width="3.467" d="M1808.1 1646.2c.7.4 1.5.8 2.2 1.2.3.2.7.4 1 .5.2.1.3.2.5.2.3.1.5.3.8.4.8.4 1.6.7 2.3 1.1.8.4 1.6.7 2.4 1.1h.2c.8.3 1.5.6 2.3.9.9.3 1.7.7 2.6 1 .3.1.6.2 1 .3.2.1.4.1.6.2.4.1.8.3 1.2.4.9.3 1.8.6 2.8.8l2.1.6c.1 0 .2.1.4.1.1 0 .2.1.4.1.9.2 1.8.5 2.8.7.9.2 1.8.4 2.8.6.2 0 .4.1.5.1.1 0 .3.1.4.1l1.8.3c.9.2 1.8.3 2.7.5.7.1 1.3.2 2 .3.1 0 .2 0 .3.1.1 0 .3 0 .4.1.9.1 1.8.2 2.8.4 1 .1 2 .2 3.1.3h1.1c.8.1 1.6.1 2.5.2 1 .1 2.1.1 3.1.1.5 0 1.1.1 1.6.1h7.9c1.9-.1 3.9-.2 5.8-.3h0c1.3-.1 2.6-.2 3.9-.4 1-.1 2.1-.2 3.1-.4h.1s0 0 0 0c1-.1 2.1-.3 3.1-.5s2-.3 3-.5c.2 0 .3-.1.5-.1s.3-.1.5-.1c.7-.1 1.4-.3 2.1-.4 1-.2 2-.5 3-.7.3-.1.6-.2.9-.2.2-.1.5-.1.7-.2.5-.1 1-.2 1.4-.4l3-.9c.4-.1.9-.3 1.3-.4.2-.1.4-.1.6-.2l.9-.3c.9-.3 1.8-.7 2.7-1 .6-.3 1.3-.5 1.9-.8.1 0 .2-.1.4-.1.1 0 .2-.1.3-.1.8-.4 1.6-.7 2.4-1.1.8-.4 1.6-.8 2.3-1.2.2-.1.4-.2.5-.3.6-.3 1.1-.6 1.7-.9l2.1-1.2c.4-.3.9-.5 1.3-.8.1-.1.2-.1.3-.2.1-.1.3-.2.4-.2.6-.4 1.3-.9 1.9-1.3.6-.4 1.2-.9 1.8-1.4.1-.1.2-.2.3-.2.1-.1.2-.1.3-.2.4-.3.8-.6 1.2-1 .6-.5 1.1-1 1.7-1.5.3-.2.5-.5.7-.7l.3-.3.5-.5c.5-.6 1.1-1.1 1.6-1.7.3-.4.6-.7.9-1.1.1-.1.2-.3.3-.4.1-.1.2-.2.3-.4.5-.7 1-1.3 1.4-2 .2-.3.3-.6.5-.9.1-.2.3-.5.4-.7.1-.2.3-.5.4-.7.5-.9.9-1.8 1.2-2.8v-.1c.1-.2.1-.4.2-.6.3-1 .7-1.9.9-2.9v-.2c.3-1.4.5-2.9.6-4.4l.6-17.4c-.1 1.5-.3 2.9-.6 4.4-.2 1.1-.6 2.1-.9 3.2-.1.2-.1.4-.2.6-.5 1.2-1 2.4-1.7 3.6-.1.2-.3.5-.4.7-.7 1.1-1.4 2.2-2.2 3.3-.1.1-.2.3-.3.4-.9 1.1-1.8 2.2-2.9 3.3l-.3.3c-1.1 1.1-2.3 2.2-3.6 3.2-.1.1-.2.1-.3.2-1.4 1.1-2.8 2.1-4.4 3.1-.1.1-.2.1-.3.2-1.6 1-3.3 2-5.1 3-1.8 1-3.7 1.8-5.7 2.7-.1.1-.2.1-.4.1-1.8.8-3.7 1.5-5.6 2.1-.2.1-.4.1-.7.2-1.9.6-3.8 1.2-5.7 1.7-.2.1-.5.1-.7.2-2 .5-4 1-6 1.4-.2 0-.3.1-.5.1-2.2.4-4.4.8-6.7 1.1h-.1c-2.3.3-4.6.6-7 .7h0c-2.1.2-4.3.3-6.4.3h-7.3c-.5 0-1.1 0-1.6-.1-1.9-.1-3.7-.2-5.6-.3h-.6c-2.2-.2-4.5-.5-6.7-.8-.1 0-.2 0-.3-.1-2.2-.3-4.3-.7-6.5-1.1-.1 0-.3-.1-.4-.1-2.2-.4-4.3-1-6.4-1.5-.1 0-.2-.1-.4-.1-2-.5-4-1.2-6-1.8-.2-.1-.4-.1-.6-.2-2-.7-4-1.4-5.9-2.2h-.1c-1.9-.8-3.8-1.7-5.7-2.6-.2-.1-.3-.2-.5-.2-1.8-.9-3.6-1.9-5.3-3s-3.3-2.1-4.8-3.3c-.1-.1-.3-.2-.4-.3-1.4-1-2.6-2.1-3.8-3.2-.2-.1-.3-.3-.5-.4-1.1-1.1-2.2-2.1-3.1-3.2-.2-.2-.3-.4-.5-.6-.9-1.1-1.7-2.1-2.4-3.2-.1-.1-.2-.2-.3-.4-.8-1.2-1.5-2.5-2.1-3.8-.1-.2-.1-.3-.2-.5-.5-1-.9-2.1-1.2-3.1-.1-.4-.2-.8-.3-1.1l-.6-2.7c-.1-.4-.1-.7-.2-1.1-.1-1.2-.2-2.4-.2-3.7l-.6 17.4c0 1.2 0 2.4.2 3.7 0 .4.1.7.2 1.1.1.9.3 1.8.6 2.7.1.4.2.8.3 1.1.3 1 .7 2.1 1.2 3.1.1.2.1.3.2.5v.1c.6 1.2 1.2 2.4 2 3.5l.1.1c.1.1.2.2.3.4l1.5 2.1c.3.4.6.7.9 1 .2.2.3.4.5.6.2.2.3.4.5.6.6.7 1.2 1.3 1.9 2l.7.7c.2.1.3.3.5.4.2.2.5.4.7.7.6.5 1.3 1.1 1.9 1.6.4.3.8.6 1.1.9.1.1.3.2.4.3.2.1.3.2.5.4.7.5 1.3 1 2 1.4.7.5 1.4.9 2.1 1.4l.1.1c1.2.4 1.9.8 2.6 1.2z" class="colorb77441 svgShape colorStroke332456 svgStroke"></path><path fill="#76d7e5" stroke="#244d56" stroke-linecap="round" stroke-linejoin="round" stroke-miterlimit="10" stroke-width="3.467" d="M1911.8 1631.1c-29.8 15.6-76.9 14-105.2-3.5-28.3-17.5-27.2-44.4 2.6-60 29.7-15.6 76.8-14 105.2 3.5 28.3 17.6 27.2 44.4-2.6 60z" class="colore5a876 svgShape colorStroke332456 svgStroke"></path><path fill="#41a1b7" stroke="#244d56" stroke-linecap="round" stroke-linejoin="round" stroke-miterlimit="10" stroke-width="3.467" d="M1804.3 1600.9c-1.4-9.4 4.4-18.9 17.3-25.7 22.6-11.9 58.4-10.7 79.9 2.7 14 8.7 18.5 20.3 13.7 30.6-1-7.1-6.1-14.1-15.3-19.8-21.5-13.3-57.4-14.5-79.9-2.7-7.9 4.2-13.2 9.3-15.7 14.9z" class="colorb77441 svgShape colorStroke332456 svgStroke"></path><path fill="#76d7e5" stroke="#244d56" stroke-linecap="round" stroke-linejoin="round" stroke-miterlimit="10" stroke-width="3.467" d="M1819.6 1620.8c-9.3-5.8-14.4-12.8-15.4-19.9 2.5-5.6 7.8-10.7 15.6-14.9 22.6-11.8 58.4-10.6 79.9 2.7 9.2 5.7 14.3 12.7 15.3 19.8-2.5 5.6-7.7 10.8-15.7 14.9-22.4 11.9-58.2 10.8-79.7-2.6z" class="colore5a876 svgShape colorStroke332456 svgStroke"></path><path fill="#244d56" d="m1843.6 1587.1 6 3.7c4.4-2 10-3.4 14.1-3.8l2.2 3.3c-4.1.4-9.2 1.5-13.4 3.5-5.3 2.5-6.5 5.7-3.2 7.8 3.3 2 8.2 1.9 15.6.4 10.1-2.1 17.5-2.7 22.7.5 4.9 3 4.2 7.4-1.8 11.2l6 3.7-4.7 2.2-5.8-3.5c-4.6 2-8.7 2.9-11.9 3.3l-2-3.3c2.3-.3 6.7-.9 11.5-3.2 5.8-2.7 5.3-5.4 2.9-6.9-3.1-1.9-7.4-1.5-16.1.2-10.3 2.1-17.3 2-22.5-1.2-4.7-2.9-4.9-7.5 1.8-11.8l-6.2-3.8 4.8-2.3z" class="color332456 svgShape"></path><path fill="#41a1b7" stroke="#244d56" stroke-linecap="round" stroke-linejoin="round" stroke-miterlimit="10" stroke-width="3.467" d="M1808.1 1626c.7.4 1.5.8 2.2 1.2.3.2.7.4 1 .5.2.1.3.2.5.2.3.1.5.3.8.4.8.4 1.6.7 2.3 1.1.8.4 1.6.7 2.4 1.1h.2c.8.3 1.5.6 2.3.9.9.3 1.7.7 2.6 1 .3.1.6.2 1 .3.2.1.4.1.6.2.4.1.8.3 1.2.4.9.3 1.8.6 2.8.8l2.1.6c.1 0 .2.1.4.1.1 0 .2.1.4.1.9.2 1.8.5 2.8.7.9.2 1.8.4 2.8.6.2 0 .4.1.5.1.1 0 .3.1.4.1l1.8.3c.9.2 1.8.3 2.7.5.7.1 1.3.2 2 .3.1 0 .2 0 .3.1.1 0 .3 0 .4.1.9.1 1.8.2 2.8.4 1 .1 2 .2 3.1.3h1.1c.8.1 1.6.1 2.5.2 1 .1 2.1.1 3.1.1.5 0 1.1.1 1.6.1h7.9c1.9-.1 3.9-.2 5.8-.3h0c1.3-.1 2.6-.2 3.9-.4 1-.1 2.1-.2 3.1-.4h.1s0 0 0 0c1-.1 2.1-.3 3.1-.5s2-.3 3-.5c.2 0 .3-.1.5-.1s.3-.1.5-.1c.7-.1 1.4-.3 2.1-.4 1-.2 2-.5 3-.7.3-.1.6-.2.9-.2.2-.1.5-.1.7-.2.5-.1 1-.2 1.4-.4l3-.9c.4-.1.9-.3 1.3-.4.2-.1.4-.1.6-.2l.9-.3c.9-.3 1.8-.7 2.7-1 .6-.3 1.3-.5 1.9-.8.1 0 .2-.1.4-.1.1 0 .2-.1.3-.1.8-.4 1.6-.7 2.4-1.1.8-.4 1.6-.8 2.3-1.2.2-.1.4-.2.5-.3.6-.3 1.1-.6 1.7-.9l2.1-1.2c.4-.3.9-.5 1.3-.8.1-.1.2-.1.3-.2.1-.1.3-.2.4-.2.6-.4 1.3-.9 1.9-1.3.6-.4 1.2-.9 1.8-1.4.1-.1.2-.2.3-.2.1-.1.2-.1.3-.2.4-.3.8-.6 1.2-1 .6-.5 1.1-1 1.7-1.5.3-.2.5-.5.7-.7l.3-.3.5-.5c.5-.6 1.1-1.1 1.6-1.7.3-.4.6-.7.9-1.1.1-.1.2-.3.3-.4.1-.1.2-.2.3-.4.5-.7 1-1.3 1.4-2 .2-.3.3-.6.5-.9.1-.2.3-.5.4-.7.1-.2.3-.5.4-.7.5-.9.9-1.8 1.2-2.8v-.1c.1-.2.1-.4.2-.6.3-1 .7-1.9.9-2.9v-.2c.3-1.4.5-2.9.6-4.4l.6-17.4c-.1 1.5-.3 2.9-.6 4.4-.2 1.1-.6 2.1-.9 3.2-.1.2-.1.4-.2.6-.5 1.2-1 2.4-1.7 3.6-.1.2-.3.5-.4.7-.7 1.1-1.4 2.2-2.2 3.3-.1.1-.2.3-.3.4-.9 1.1-1.8 2.2-2.9 3.3l-.3.3c-1.1 1.1-2.3 2.2-3.6 3.2-.1.1-.2.1-.3.2-1.4 1.1-2.8 2.1-4.4 3.1-.1.1-.2.1-.3.2-1.6 1-3.3 2-5.1 3-1.8 1-3.7 1.8-5.7 2.7-.1.1-.2.1-.4.1-1.8.8-3.7 1.5-5.6 2.1-.2.1-.4.1-.7.2-1.9.6-3.8 1.2-5.7 1.7-.2.1-.5.1-.7.2-2 .5-4 1-6 1.4-.2 0-.3.1-.5.1-2.2.4-4.4.8-6.7 1.1h-.1c-2.3.3-4.6.6-7 .7h0c-2.1.2-4.3.3-6.4.3h-7.3c-.5 0-1.1 0-1.6-.1-1.9-.1-3.7-.2-5.6-.3h-.6c-2.2-.2-4.5-.5-6.7-.8-.1 0-.2 0-.3-.1-2.2-.3-4.3-.7-6.5-1.1-.1 0-.3-.1-.4-.1-2.2-.4-4.3-1-6.4-1.5-.1 0-.2-.1-.4-.1-2-.5-4-1.2-6-1.8-.2-.1-.4-.1-.6-.2-2-.7-4-1.4-5.9-2.2h-.1c-1.9-.8-3.8-1.7-5.7-2.6-.2-.1-.3-.2-.5-.2-1.8-.9-3.6-1.9-5.3-3s-3.3-2.1-4.8-3.3c-.1-.1-.3-.2-.4-.3-1.4-1-2.6-2.1-3.8-3.2-.2-.1-.3-.3-.5-.4-1.1-1.1-2.2-2.1-3.1-3.2-.2-.2-.3-.4-.5-.6-.9-1.1-1.7-2.1-2.4-3.2-.1-.1-.2-.2-.3-.4-.8-1.2-1.5-2.5-2.1-3.8-.1-.2-.1-.3-.2-.5-.5-1-.9-2.1-1.2-3.1-.1-.4-.2-.8-.3-1.1l-.6-2.7c-.1-.4-.1-.7-.2-1.1-.1-1.2-.2-2.4-.2-3.7l-.6 17.4c0 1.2 0 2.4.2 3.7 0 .4.1.7.2 1.1.1.9.3 1.8.6 2.7.1.4.2.8.3 1.1.3 1 .7 2.1 1.2 3.1.1.2.1.3.2.5v.1c.6 1.2 1.2 2.4 2 3.5l.1.1c.1.1.2.2.3.4l1.5 2.1c.3.4.6.7.9 1 .2.2.3.4.5.6.2.2.3.4.5.6.6.7 1.2 1.3 1.9 2l.7.7c.2.1.3.3.5.4.2.2.5.4.7.7.6.5 1.3 1.1 1.9 1.6.4.3.8.6 1.1.9.1.1.3.2.4.3.2.1.3.2.5.4.7.5 1.3 1 2 1.4.7.5 1.4.9 2.1 1.4l.1.1c1.2.4 1.9.8 2.6 1.2z" class="colorb77441 svgShape colorStroke332456 svgStroke"></path><path fill="#76d7e5" stroke="#244d56" stroke-linecap="round" stroke-linejoin="round" stroke-miterlimit="10" stroke-width="3.467" d="M1911.8 1610.9c-29.8 15.6-76.9 14-105.2-3.5-28.3-17.5-27.2-44.4 2.6-60 29.7-15.6 76.8-14 105.2 3.5 28.3 17.5 27.2 44.4-2.6 60z" class="colore5a876 svgShape colorStroke332456 svgStroke"></path><path fill="#41a1b7" stroke="#244d56" stroke-linecap="round" stroke-linejoin="round" stroke-miterlimit="10" stroke-width="3.467" d="M1804.3 1580.7c-1.4-9.4 4.4-18.9 17.3-25.7 22.6-11.9 58.4-10.7 79.9 2.7 14 8.7 18.5 20.3 13.7 30.6-1-7.1-6.1-14.1-15.3-19.8-21.5-13.3-57.4-14.5-79.9-2.7-7.9 4.2-13.2 9.3-15.7 14.9z" class="colorb77441 svgShape colorStroke332456 svgStroke"></path><path fill="#76d7e5" stroke="#244d56" stroke-linecap="round" stroke-linejoin="round" stroke-miterlimit="10" stroke-width="3.467" d="M1819.6 1600.6c-9.3-5.8-14.4-12.8-15.4-19.9 2.5-5.6 7.8-10.7 15.6-14.9 22.6-11.8 58.4-10.6 79.9 2.7 9.2 5.7 14.3 12.7 15.3 19.8-2.5 5.6-7.7 10.8-15.7 14.9-22.4 11.9-58.2 10.7-79.7-2.6z" class="colore5a876 svgShape colorStroke332456 svgStroke"></path><path fill="#244d56" d="m1843.6 1566.9 6 3.7c4.4-2 10-3.4 14.1-3.8l2.2 3.3c-4.1.4-9.2 1.5-13.4 3.5-5.3 2.5-6.5 5.7-3.2 7.8 3.3 2 8.2 1.9 15.6.4 10.1-2.1 17.5-2.7 22.7.5 4.9 3 4.2 7.4-1.8 11.2l6 3.7-4.7 2.2-5.8-3.5c-4.6 2-8.7 2.9-11.9 3.3l-2-3.3c2.3-.3 6.7-.9 11.5-3.2 5.8-2.7 5.3-5.4 2.9-6.9-3.1-1.9-7.4-1.5-16.1.2-10.3 2.1-17.3 2-22.5-1.2-4.7-2.9-4.9-7.5 1.8-11.8l-6.2-3.8 4.8-2.3z" class="color332456 svgShape"></path><path fill="#c6c6c6" d="M1131.9 1970.1v-187.7L875.8 1339l-244.4-143.8v22l224.3 132c1 .6 1.9 1.5 2.5 2.5l257.9 446.6c.6 1 .9 2.2.9 3.4v159.7l14.9 8.7z" class="colorc6c6c6 svgShape"></path><g fill="#000000" class="color000000 svgShape"><path fill="#9cd3db" stroke="#244d56" stroke-linecap="round" stroke-linejoin="round" stroke-miterlimit="10" stroke-width="8.815" d="m1726.3 794.8-63.2-36.7.1 39.3 63.2 36.7z" class="colorc5c5c5 svgShape colorStroke332456 svgStroke"></path><path fill="#d5f9ff" stroke="#244d56" stroke-linecap="round" stroke-linejoin="round" stroke-miterlimit="10" stroke-width="8.815" d="m1932.7 476.8-63.2-36.7-34.4 19.8 63.2 36.7z" class="colorebebeb svgShape colorStroke332456 svgStroke"></path><path fill="#818181" stroke="#244d56" stroke-linecap="round" stroke-linejoin="round" stroke-miterlimit="10" stroke-width="8.815" d="m1709 723.2-63.2-36.7c2 1.2 4.2 2.2 6.4 3 1.7.6 3.4 1.1 5.2 1.5.3.1.6.2 1 .3 2 .4 4.1.7 6.3.8.4 0 .9 0 1.3.1 2.1.1 4.2 0 6.4-.1.3 0 .5 0 .8-.1 2.3-.2 4.6-.6 7-1.1.2-.1.5-.1.7-.2 2.4-.5 4.9-1.2 7.4-2.1.2-.1.3-.1.5-.2 2.6-.9 5.3-2 8-3.2l.6-.3c2.7-1.3 5.5-2.7 8.3-4.3 2.8-1.6 5.6-3.4 8.4-5.3.2-.1.3-.2.5-.3 2.6-1.8 5.1-3.7 7.6-5.7.3-.2.5-.4.8-.7 2.4-2 4.8-4.1 7.1-6.2.3-.3.6-.5.8-.8 2.4-2.2 4.7-4.5 7-7l.6-.6c2.4-2.6 4.8-5.3 7.1-8v-.1c4.5-5.4 8.8-11.2 12.7-17.2 1.2-1.8 2.3-3.6 3.4-5.5.9-1.5 1.9-2.9 2.7-4.5.4-.7.8-1.5 1.2-2.2 1.5-2.6 2.9-5.2 4.2-7.8.1-.3.3-.6.5-.9 1.6-3.2 3.1-6.4 4.6-9.7.1-.2.1-.3.2-.5 1.4-3.2 2.7-6.4 3.9-9.7.1-.2.2-.4.2-.6 1.2-3.3 2.3-6.7 3.4-10 .1-.2.1-.4.2-.6 1-3.2 1.8-6.4 2.6-9.6.1-.3.1-.6.2-.9.8-3.3 1.4-6.6 1.9-9.9v-.2c.5-3.3.9-6.6 1.2-9.9 0-.3 0-.5.1-.8.3-3.3.4-6.5.4-9.7 0-3.2-.2-6.2-.4-9.2 0-.3-.1-.6-.1-.8-.3-2.7-.7-5.3-1.1-7.8-.1-.3-.1-.7-.2-1-.5-2.4-1.1-4.7-1.8-7-.1-.4-.3-.8-.4-1.2-.7-2.1-1.5-4.1-2.3-6-.1-.2-.2-.4-.3-.7-1-2.1-2.1-4.1-3.3-6-1.7-2.7-3.7-5-5.8-7.2-.5-.5-1-1-1.6-1.5-2.2-2-4.5-3.9-7.1-5.4h0l63.2 36.7c2.6 1.5 4.9 3.4 7.1 5.4.5.5 1.1 1 1.6 1.5 2.1 2.2 4.1 4.5 5.8 7.2l.1.1c1.1 1.8 2.2 3.7 3.2 5.7 0 .1 0 .1.1.2l.3.6c.6 1.3 1.2 2.6 1.7 4 .2.7.5 1.4.7 2.1.1.4.3.8.4 1.2.1.4.3.7.4 1.1.4 1.4.8 2.8 1.1 4.3.1.5.2 1 .3 1.6.1.3.1.7.2 1l.3 1.5c.2 1.3.4 2.6.6 4 .1.7.2 1.5.2 2.3 0 .3.1.5.1.8 0 .3.1.6.1 1 .1 1.3.2 2.6.2 4 .1 1.3.1 2.7.1 4v.2c0 1.3 0 2.5-.1 3.8 0 1.3-.1 2.7-.2 4.1 0 .6-.1 1.2-.2 1.9 0 .3 0 .5-.1.8 0 .5-.1 1-.1 1.4-.1 1.4-.3 2.7-.5 4.1l-.6 4.2V593c-.2 1.3-.4 2.6-.7 4-.3 1.5-.6 2.9-.9 4.4-.1.5-.3 1-.4 1.6-.1.3-.1.6-.2.9-.2.6-.3 1.3-.5 1.9l-1.2 4.5c-.3 1.1-.6 2.2-1 3.3-.1.2-.1.4-.2.6-.1.2-.1.4-.2.6-.4 1.4-.9 2.9-1.4 4.3-.5 1.4-1 2.9-1.5 4.3-.1.3-.2.5-.3.8-.1.2-.2.4-.2.6-.3.9-.6 1.8-1 2.6-.5 1.4-1.1 2.7-1.6 4.1-.4 1-.8 2-1.3 3-.1.2-.1.3-.2.5s-.2.4-.2.5c-.6 1.4-1.2 2.7-1.8 4.1-.7 1.5-1.4 3-2.1 4.4-.1.2-.2.5-.4.7-.1.3-.3.6-.5.9-.6 1.2-1.2 2.3-1.8 3.5-.8 1.5-1.6 2.9-2.4 4.3-.4.7-.8 1.5-1.2 2.2-.2.3-.3.6-.5.8-.7 1.2-1.5 2.4-2.3 3.6-1.1 1.8-2.3 3.7-3.5 5.5-.2.3-.3.6-.5.8-1.7 2.6-3.5 5.1-5.3 7.5 0 0 0 .1-.1.1-1.2 1.6-2.4 3.3-3.7 4.8-1 1.3-2.1 2.6-3.1 3.9l-.1.1h0c-1.1 1.3-2.2 2.5-3.2 3.8l-3.3 3.6-.6.6-.6.6c-.8.8-1.5 1.6-2.3 2.4-1.2 1.2-2.3 2.4-3.5 3.5-.4.4-.8.7-1.1 1-.3.3-.6.5-.8.8-.6.5-1.1 1.1-1.7 1.6-1.2 1.1-2.5 2.2-3.7 3.3-.5.5-1.1.9-1.7 1.4-.3.2-.6.5-.9.7-.4.3-.8.7-1.2 1-1.2 1-2.5 1.9-3.7 2.8-.9.7-1.8 1.3-2.7 1.9-.2.1-.3.3-.5.4-.2.1-.3.2-.4.3l-3.6 2.4c-1.2.8-2.4 1.5-3.6 2.2-.3.2-.6.3-.8.5l-2.7 1.5c-1.2.6-2.3 1.2-3.5 1.8-.7.4-1.4.7-2.2 1l-.6.3c-.2.1-.4.2-.7.3-1.1.5-2.3 1-3.4 1.4-1.1.5-2.3.9-3.4 1.3-.2.1-.4.1-.5.2-.2.1-.3.1-.5.2-.8.3-1.6.5-2.3.8-1.2.4-2.3.7-3.5 1-.5.1-1.1.2-1.6.4-.2 0-.5.1-.7.2-.4.1-.7.2-1.1.3-1.2.2-2.5.4-3.7.6-.7.1-1.4.2-2.2.2-.3 0-.5.1-.8.1-.3 0-.5.1-.8.1-1.3.1-2.6.1-3.9.1-.6 0-1.1-.1-1.7-.1-.4 0-.9 0-1.3-.1-.5 0-.9 0-1.4-.1-1.6-.2-3.3-.4-4.8-.7h-.1l-.9-.3c-1.7-.4-3.3-.8-4.9-1.3-.1 0-.2-.1-.4-.2-1.8-1.2-3.9-2.2-6-3.3h0z" class="color818181 svgShape colorStroke332456 svgStroke"></path><path fill="#999999" stroke="#244d56" stroke-linecap="round" stroke-linejoin="round" stroke-miterlimit="10" stroke-width="8.815" d="M1622.3 804.1c7.2 9.8 15.9 17.7 25.8 23.5l-63.2-36.7c-9.9-5.8-18.6-13.6-25.8-23.4l63.2 36.6z" class="color999999 svgShape colorStroke332456 svgStroke"></path><path fill="#fdfdfd" stroke="#244d56" stroke-linecap="round" stroke-linejoin="round" stroke-miterlimit="10" stroke-width="8.815" d="m1646.6 761.9-63.2-36.8-24.3 42.3 63.2 36.7z" class="colorfdfdfd svgShape colorStroke332456 svgStroke"></path><path fill="#999999" stroke="#244d56" stroke-linecap="round" stroke-linejoin="round" stroke-miterlimit="10" stroke-width="8.815" d="M1863.5 404.3h-.2c-2.3-.4-4.7-.7-7-1-.8-.1-1.6-.3-2.4-.3l-63.2-36.7h0c1.3.1 2.5.4 3.7.5 1.9.3 3.9.4 5.7.8h.2c3.5.7 6.9 1.7 10.3 2.8.3.1.7.2 1.1.3.5.2.9.4 1.3.6 4.4 1.6 8.7 3.5 12.7 5.8l63.2 36.7c-4-2.3-8.3-4.2-12.7-5.8l-2.4-.9c-3.4-1.1-6.8-2.1-10.3-2.8z" class="color999999 svgShape colorStroke332456 svgStroke"></path><path fill="#fdfdfd" stroke="#244d56" stroke-linecap="round" stroke-linejoin="round" stroke-miterlimit="10" stroke-width="8.815" d="m1853.8 402.9-63.2-36.7-24.2 41.9 63.2 36.7z" class="colorfdfdfd svgShape colorStroke332456 svgStroke"></path><path fill="#8a8a8a" d="M1575.9 709.5c-.2-.5-.3-.9-.5-1.4l63.2 36.7c1.1 3 2.3 5.9 3.6 8.7 0 .1.1.2.1.3 1.3 2.8 2.8 5.5 4.3 8.1l-63.2-36.7c-1.5-2.5-2.9-5.2-4.3-8 0-.1-.1-.2-.1-.3-1.1-2.5-2.1-4.9-3.1-7.4z" class="color8a8a8a svgShape"></path><g fill="#000000" class="color000000 svgShape"><defs><path id="a" d="m1829.6 444.8-63.2-36.7c-6.1-.1-12.3.5-18.8 1.9l63.2 36.7c6.5-1.4 12.7-1.9 18.8-1.9z" enable-background="new" fill="#000000" class="color000000 svgShape"></path></defs><clipPath id="b"><use overflow="visible" xlink:href="#a"></use></clipPath><g clip-path="url(#b)" fill="#000000" class="color000000 svgShape"><path fill="#949494" d="m1829.6 444.8-63.2-36.7h-.5l63.2 36.7h.5" class="color949494 svgShape"></path><path fill="#999999" d="m1829.1 444.8-63.2-36.7c-2.1 0-4.3.1-6.5.2l63.2 36.7c2.2-.1 4.4-.2 6.5-.2" class="color999999 svgShape"></path><path fill="#9e9e9e" d="m1822.7 445.1-63.2-36.7c-1.8.1-3.6.3-5.4.6l63.2 36.7c1.8-.3 3.6-.5 5.4-.6" class="color9e9e9e svgShape"></path><path fill="#a3a3a3" d="m1817.3 445.6-63.2-36.7c-1.6.2-3.2.5-4.8.8l63.2 36.7c1.6-.3 3.2-.6 4.8-.8" class="colora3a3a3 svgShape"></path><path fill="#a8a8a8" d="m1812.5 446.4-63.2-36.7c-.5.1-1.1.2-1.6.3l63.2 36.7c.5-.1 1-.2 1.6-.3" class="colora8a8a8 svgShape"></path></g></g><path fill="#999999" stroke="#244d56" stroke-linecap="round" stroke-linejoin="round" stroke-miterlimit="10" stroke-width="8.815" d="m1638.3 646.7-63.2-36.7c0-.1.1-.3.1-.4.5-2.2 1.1-4.4 1.7-6.6l1.5-5.1c.2-.5.3-1.1.5-1.6.1-.3.2-.6.3-1 1-3.2 2-6.3 3.1-9.5.2-.7.5-1.4.7-2l63.2 36.7c-1.4 4.1-2.8 8.3-4 12.5-.2.5-.3 1.1-.5 1.6-1.2 4-2.4 8.1-3.4 12.1zM1535.7 674.1c.1-2.8.2-5.5.4-8.3.2-2.7.4-5.5.7-8.3 0-.4.1-.7.1-1.1 0-.2.1-.5.1-.7.2-2.1.4-4.2.7-6.4.3-2.8.7-5.5 1.2-8.3.4-2.8.9-5.6 1.5-8.4.2-1 .4-1.9.5-2.9l63.2 36.7c-1.7 8.7-3 17.3-3.9 25.9 0 .3-.1.5-.1.8-.9 8.6-1.3 17.1-1.3 25.5 0 8.3.5 16.2 1.4 23.8 0 .2 0 .4.1.6.9 7.6 2.3 14.8 4.1 21.6v0h0l-63.2-36.7-1.2-4.8c-.6-2.6-1.1-5.3-1.6-8.1-.5-2.6-.9-5.3-1.2-8.1 0-.2 0-.4-.1-.6 0-.2 0-.4-.1-.6-.3-2.3-.5-4.6-.7-6.9-.2-2.7-.4-5.4-.5-8.2-.1-2.7-.2-5.5-.2-8.2v-.5c0-2.5 0-5.1.1-7.8z" class="color999999 svgShape colorStroke332456 svgStroke"></path><path fill="#dcdcdc" stroke="#244d56" stroke-linecap="round" stroke-linejoin="round" stroke-miterlimit="10" stroke-width="8.815" d="m1575.2 610 63.1 36.7-34.3 19.8-63.2-36.7z" class="colordcdcdc svgShape colorStroke332456 svgStroke"></path><path fill="#999999" stroke="#244d56" stroke-linecap="round" stroke-linejoin="round" stroke-miterlimit="10" stroke-width="8.815" d="m1725.3 456.6-63.2-36.7.1 39.4 63.2 36.8z" class="color999999 svgShape colorStroke332456 svgStroke"></path><path fill="#d5f9ff" stroke="#244d56" stroke-linecap="round" stroke-linejoin="round" stroke-miterlimit="10" stroke-width="8.815" d="M1662.1 419.9c1.6-1.4 3.1-2.7 4.7-4.1 2.5-2.1 5-4.1 7.5-6.1 2.5-1.9 4.9-3.8 7.4-5.7.3-.2.6-.4.9-.7.2-.2.5-.3.7-.5 1.9-1.4 3.8-2.7 5.7-4 2.4-1.6 4.7-3.2 7.1-4.7 2.3-1.5 4.6-2.9 7-4.3.5-.3 1.1-.6 1.6-.9 1.8-1 3.5-2 5.3-2.9 1.6-.9 3.2-1.7 4.8-2.5.5-.2.9-.5 1.4-.7.2-.1.4-.2.7-.3 2.3-1.1 4.5-2.2 6.8-3.2.7-.3 1.3-.6 2-.8l2.1-.9c.9-.4 1.8-.8 2.6-1.1 2.2-.9 4.5-1.7 6.7-2.5h.1c2.3-.8 4.7-1.6 7-2.3 1.1-.3 2.2-.7 3.3-1l63.2 36.7c-3.4.9-6.8 2-10.3 3.3h-.1c-3.1 1.1-6.2 2.3-9.3 3.6l-2.1.9c-3.1 1.3-6.3 2.8-9.4 4.4-.4.2-.9.5-1.3.7-3.3 1.7-6.7 3.5-10 5.4-7.2 4.2-14.4 8.9-21.4 13.9-.2.2-.5.3-.7.5-7 5.1-13.9 10.7-20.6 16.5h0l-63.4-36.7z" class="colorebebeb svgShape colorStroke332456 svgStroke"></path><path fill="#818181" stroke="#244d56" stroke-linecap="round" stroke-linejoin="round" stroke-miterlimit="10" stroke-width="8.815" d="M1643.4 479.2c.7-.9 1.5-1.7 2.3-2.6 1.4-1.6 2.8-3.2 4.3-4.7 1.8-1.9 3.5-3.8 5.3-5.6 2.3-2.3 4.6-4.7 7-6.9h0l63.2 36.7c-6.5 6.3-12.9 12.9-18.9 19.8l-24.4-13.9-63.2-36.7 24.4 13.9z" class="color818181 svgShape colorStroke332456 svgStroke"></path><path fill="#d5f9ff" stroke="#244d56" stroke-linecap="round" stroke-linejoin="round" stroke-miterlimit="10" stroke-width="8.815" d="M1558.6 569.9c.9-2.4 1.9-4.8 2.9-7.3 1.1-2.7 2.3-5.4 3.5-8.1 1.2-2.8 2.5-5.5 3.8-8.3.5-1.1 1.1-2.2 1.6-3.3.2-.5.4-.9.7-1.4.7-1.3 1.3-2.7 2-4.1 1.6-3.3 3.3-6.6 5.1-9.9 2-3.7 4-7.3 6.1-10.9.4-.6.7-1.3 1.1-1.9l.6-1.2c4.7-8 9.6-15.9 14.8-23.6.1-.1.2-.2.2-.3.1-.2.3-.4.4-.6 2.8-4.1 5.7-8.2 8.7-12.2 2.2-3 4.5-6 6.8-8.9l2.1-2.7 63.2 36.7c-6.1 7.6-12 15.6-17.6 23.8-.2.2-.3.4-.5.6-5.5 8.1-10.8 16.5-15.7 25.1-.4.6-.7 1.3-1.1 1.9-4.7 8.1-9 16.4-13.1 24.8-.2.5-.4.9-.7 1.4-4.3 8.9-8.2 17.9-11.8 26.9h0l-63.1-36.5z" class="colorebebeb svgShape colorStroke332456 svgStroke"></path><path fill="#d4d6d6" stroke="#244d56" stroke-linecap="round" stroke-linejoin="round" stroke-miterlimit="10" stroke-width="8.815" d="M1598.8 718.7c0-17 1.7-34.5 5.2-52.2l34.3-19.8c2.2-8.8 4.9-17.6 7.8-26.3l-24.4-13.9c14.6-37.1 35.3-73.4 60.4-104.6l24.4 13.9c5.9-7 12.3-13.6 18.9-19.8l-.1-39.5c13.5-11.9 27.9-22.4 42.7-31 14.8-8.5 29.1-14.5 42.7-18.3l.1 39.5c6.5-1.4 12.7-1.9 18.8-1.9l24.2-41.9c25.1 2.2 46 14.3 60.9 34.3l-24.4 42.2c3.2 5.1 6 10.9 8.1 17.2l34.3-19.8c3.7 13.5 5.6 28.9 5.6 45.9 0 16.8-1.7 34.5-5.4 52.2l-34.3 19.8c-2 8.7-4.8 17.5-7.7 26.1l24.5 14.1c-14.7 37.1-35.5 73.3-60.5 104.4l-24.2-13.8c-6.2 7.1-12.3 13.7-19 20.1l.1 39.3c-13.6 11.9-27.9 22.4-42.7 31-14.8 8.5-29.2 14.6-42.7 18.3l-.1-39.3c-6.6 1.3-13.1 2-19.1 1.8l-24.2 41.9c-25-2.4-45.9-14.3-60.6-34.4l24.3-42.2c-3-5.1-5.8-10.8-8-17l-34.3 19.8c-3.7-13.7-5.6-29.2-5.6-46.1zm170-1.4c46.4-26.8 83.9-91.7 83.8-145.1-.2-53.3-37.9-74.8-84.3-48-46.5 26.8-83.9 91.8-83.8 145.1.2 53.3 37.8 74.8 84.3 48" class="colord6d4d4 svgShape colorStroke332456 svgStroke"></path><path fill="#ffffff" d="m1864 409-20.8 36c-3 .1-6 .3-8.9.6l21.9-38c2.6.4 5.2.8 7.8 1.4zM1916.8 494.7c-.4-1-.8-1.9-1.3-2.9l14.3-8.3c.2 1.1.5 2.2.7 3.3l-13.7 7.9zM1721.7 514.8l-5.5-3.1c3.9-4.3 8-8.5 12.2-12.5.9-.8 1.4-2 1.4-3.2l-.1-37.5c13.2-11.4 26.8-21.3 40.5-29.1 12.1-7 24.2-12.4 36.1-16.2v1.1c-8.4 3.5-16.4 7.4-24.4 12-14.7 8.5-29.3 19.1-43.4 31.5-1 .8-1.5 2.1-1.5 3.3l.1 37.6c-5.8 5.6-10.8 10.9-15.4 16.1zM1864.3 576.7c.1 51.8-36.4 115.2-81.5 141.2-9.1 5.3-17.9 8.6-26.2 10.1 4.8-1.8 9.6-4.2 14.5-7 47.6-27.5 86.1-94.3 86-148.9 0-17.5-4-32.2-11.3-43.1 11.7 9 18.4 25.6 18.5 47.7zM1730.8 828.2l-.1-22.9c2.4-.1 4.9-.4 7.3-.7l.1 21.1c-2.6.9-5 1.7-7.3 2.5zM1607.2 757.9c-2.6-11.9-4-25.1-4-39.2 0-15.9 1.6-32.5 4.8-49.3l32.6-18.8c1-.6 1.8-1.6 2.1-2.8 1.8-7.4 4.2-15.5 7.3-24.8l7 4c-2.6 7.8-4.7 14.8-6.3 21.4l-32.7 18.9c-1.1.6-1.9 1.7-2.1 3-3.6 18.1-5.4 35.9-5.3 53 0 10.8.8 21.4 2.4 31.3l-5.8 3.3zM1689.3 511.1c-22.5 29.5-41.5 63-55.1 97.4l-6.9-3.9c14-34.7 33.3-68.1 56-96.9l6 3.4zM1636.8 813.7c-3.3-3-6.4-6.3-9.2-9.9l22.9-39.7c.8-1.4.8-3.1 0-4.4-.4-.6-.8-1.3-1.1-2l3.2-1.9c1.5 3.5 3.2 7 5.1 10.6l-23 40c-.9 1.5-.8 3.4.3 4.8.5.9 1.1 1.7 1.8 2.5z" class="colorffffff svgShape"></path></g></svg>