<svg xmlns="http://www.w3.org/2000/svg" xmlns:xlink="http://www.w3.org/1999/xlink" viewBox="0 0 800 600" id="woman-standing-on-front-of-smartphone-with-purchase-statistics-on-screen"><defs><linearGradient id="k" x1="133.53" x2="511.13" y1="290.44" y2="290.44" gradientUnits="userSpaceOnUse"><stop offset="0" stop-color="#c6cbe7"></stop><stop offset=".15" stop-color="#d7dbee"></stop><stop offset=".46" stop-color="#f4f5fa"></stop><stop offset=".64" stop-color="#fff"></stop></linearGradient><linearGradient id="a" x1="344.62" x2="625.56" y1="390.1" y2="390.1" gradientUnits="userSpaceOnUse"><stop offset="0" stop-color="#c4c9e5"></stop><stop offset=".42" stop-color="#daddef"></stop><stop offset="1" stop-color="#fff"></stop></linearGradient><linearGradient id="l" x1="518.38" x2="745.42" y1="353.01" y2="353.01" xlink:href="#a"></linearGradient><linearGradient id="m" x1="458.24" x2="571.58" y1="311.95" y2="311.95" gradientUnits="userSpaceOnUse"><stop offset="0" stop-color="#c4cae9"></stop><stop offset=".36" stop-color="#dcdff2"></stop><stop offset=".81" stop-color="#fff"></stop></linearGradient><linearGradient id="n" x1="456.64" x2="659.29" y1="305" y2="305" gradientUnits="userSpaceOnUse"><stop offset=".34" stop-color="#362e94"></stop><stop offset=".4" stop-color="#5652cc"></stop></linearGradient><linearGradient id="c" x1="509.73" x2="532.83" y1="293.97" y2="253.96" gradientUnits="userSpaceOnUse"><stop offset=".11" stop-color="#807dfb"></stop><stop offset=".26" stop-color="#726eeb"></stop><stop offset=".49" stop-color="#5652cc"></stop></linearGradient><linearGradient id="b" x1="1172.92" x2="1196.1" y1="294.13" y2="253.98" gradientTransform="matrix(-1 0 0 1 1728 0)" gradientUnits="userSpaceOnUse"><stop offset=".11" stop-color="#807dfb"></stop><stop offset=".23" stop-color="#5f5acd"></stop><stop offset=".36" stop-color="#413aa4"></stop><stop offset=".43" stop-color="#362e94"></stop></linearGradient><linearGradient id="o" x1="1148.2" x2="1171.38" y1="308.4" y2="268.25" xlink:href="#b"></linearGradient><linearGradient id="p" x1="1123.48" x2="1146.66" y1="322.68" y2="282.53" xlink:href="#b"></linearGradient><linearGradient id="q" x1="1098.75" x2="1121.93" y1="336.95" y2="296.8" xlink:href="#b"></linearGradient><linearGradient id="r" x1="1074.03" x2="1097.21" y1="351.22" y2="311.07" xlink:href="#b"></linearGradient><linearGradient id="s" x1="485.01" x2="508.1" y1="308.11" y2="268.12" xlink:href="#c"></linearGradient><linearGradient id="t" x1="460.3" x2="483.37" y1="322.25" y2="282.28" xlink:href="#c"></linearGradient><linearGradient id="u" x1="453.82" x2="662.13" y1="351.69" y2="351.69" gradientUnits="userSpaceOnUse"><stop offset=".58" stop-color="#5652cc"></stop><stop offset=".68" stop-color="#362e94"></stop></linearGradient><linearGradient id="v" x1="640.43" x2="664.64" y1="369.77" y2="327.83" xlink:href="#c"></linearGradient><linearGradient id="w" x1="615.7" x2="639.92" y1="384.05" y2="342.1" xlink:href="#c"></linearGradient><linearGradient id="x" x1="590.98" x2="615.2" y1="398.32" y2="356.38" xlink:href="#c"></linearGradient><linearGradient id="d" x1="550.81" x2="574.04" y1="357.25" y2="397.48" gradientUnits="userSpaceOnUse"><stop offset=".49" stop-color="#362e94"></stop><stop offset=".71" stop-color="#534dbc"></stop><stop offset="1" stop-color="#807dfb"></stop></linearGradient><linearGradient id="y" x1="526.09" x2="549.31" y1="342.97" y2="383.2" xlink:href="#d"></linearGradient><linearGradient id="z" x1="501.37" x2="524.59" y1="328.7" y2="368.93" xlink:href="#d"></linearGradient><linearGradient id="A" x1="476.64" x2="499.87" y1="314.43" y2="354.66" xlink:href="#d"></linearGradient><linearGradient id="B" x1="451.92" x2="475.15" y1="300.15" y2="340.38" xlink:href="#d"></linearGradient><linearGradient id="C" x1="449.16" x2="669.7" y1="317.14" y2="317.14" gradientUnits="userSpaceOnUse"><stop offset=".58" stop-color="#5652cc"></stop><stop offset=".68" stop-color="#362e94"></stop></linearGradient><linearGradient id="D" x1="453.8" x2="665.07" y1="264.88" y2="264.88" gradientUnits="userSpaceOnUse"><stop offset=".33" stop-color="#362e94"></stop><stop offset=".41" stop-color="#5652cc"></stop></linearGradient><linearGradient id="E" x1="515.37" x2="592.48" y1="333.54" y2="199.98" gradientUnits="userSpaceOnUse"><stop offset=".2" stop-color="#ff5a72"></stop><stop offset=".28" stop-color="#ff7071"></stop><stop offset=".45" stop-color="#ffaa6d"></stop><stop offset=".46" stop-color="#ffaf6d"></stop><stop offset=".95" stop-color="#ffaf6d"></stop><stop offset="1" stop-color="#ff826a"></stop></linearGradient><linearGradient id="F" x1="347.36" x2="551.07" y1="36.31" y2="389.15" gradientUnits="userSpaceOnUse"><stop offset=".3" stop-color="#6b6ae0"></stop><stop offset=".37" stop-color="#3c3799"></stop><stop offset=".41" stop-color="#20196f"></stop></linearGradient><linearGradient id="G" x1="365.83" x2="466.27" y1="246.66" y2="246.66" gradientUnits="userSpaceOnUse"><stop offset=".24" stop-color="#c4c9e4"></stop><stop offset=".47" stop-color="#c7cce5"></stop><stop offset=".65" stop-color="#d1d5ea"></stop><stop offset=".81" stop-color="#e1e4f1"></stop><stop offset=".96" stop-color="#f8f9fc"></stop><stop offset="1" stop-color="#fff"></stop></linearGradient><linearGradient id="i" x1="413.73" x2="447.64" y1="261.13" y2="202.4" gradientUnits="userSpaceOnUse"><stop offset="0" stop-color="#e33c5c"></stop><stop offset="1" stop-color="#ff826a"></stop></linearGradient><linearGradient id="H" x1="366.42" x2="417.75" y1="203.49" y2="292.39" gradientUnits="userSpaceOnUse"><stop offset="0" stop-color="#362e94"></stop><stop offset="1" stop-color="#807dfb"></stop></linearGradient><linearGradient id="I" x1="638.65" x2="551.01" y1="254.03" y2="227.08" gradientTransform="matrix(-1 0 0 1 928.55 0)" gradientUnits="userSpaceOnUse"><stop offset="0" stop-color="#34318f"></stop><stop offset="1" stop-color="#6a6ae2"></stop></linearGradient><linearGradient id="J" x1="583.18" x2="583.18" y1="249.54" y2="191.54" gradientTransform="matrix(-.87 -.5 0 1.15 838.29 283.1)" gradientUnits="userSpaceOnUse"><stop offset="0"></stop><stop offset=".1" stop-color="#001415"></stop><stop offset=".54" stop-color="#006a70"></stop><stop offset=".85" stop-color="#00a1a9"></stop><stop offset="1" stop-color="#00b6bf"></stop></linearGradient><linearGradient id="K" x1="540.82" x2="614.7" y1="294.56" y2="166.59" gradientTransform="matrix(-1 0 0 1 928.55 0)" gradientUnits="userSpaceOnUse"><stop offset=".4" stop-color="#20196f"></stop><stop offset=".48" stop-color="#4141aa"></stop></linearGradient><linearGradient id="f" x1="522.57" x2="624.54" y1="533.08" y2="533.08" gradientTransform="translate(-226.98)" gradientUnits="userSpaceOnUse"><stop offset="0" stop-color="#c4c9e5"></stop><stop offset=".64" stop-color="#edeff7"></stop><stop offset="1" stop-color="#fff"></stop></linearGradient><linearGradient id="L" x1="270.6" x2="342.38" y1="435.28" y2="435.28" gradientUnits="userSpaceOnUse"><stop offset="0" stop-color="#c4cae9"></stop><stop offset=".09" stop-color="#ced3ed"></stop><stop offset=".41" stop-color="#e9ebf7"></stop><stop offset=".69" stop-color="#f9fafd"></stop><stop offset=".9" stop-color="#fff"></stop></linearGradient><linearGradient id="e" x1="1442.95" x2="1464.94" y1="427.66" y2="427.66" gradientTransform="matrix(-1 0 0 1 1728.99 0)" gradientUnits="userSpaceOnUse"><stop offset="0" stop-color="#362e94"></stop><stop offset=".52" stop-color="#29227e"></stop><stop offset="1" stop-color="#20196f"></stop></linearGradient><linearGradient id="M" x1="277.1" x2="279.81" y1="339.63" y2="430.6" gradientUnits="userSpaceOnUse"><stop offset="0" stop-color="#131147"></stop><stop offset=".18" stop-color="#1a1757"></stop><stop offset=".72" stop-color="#2e2883"></stop><stop offset="1" stop-color="#362e94"></stop></linearGradient><linearGradient id="N" x1="1425.61" x2="1447.59" y1="437.67" y2="437.67" xlink:href="#e"></linearGradient><linearGradient id="O" x1="288.8" x2="291.51" y1="339.27" y2="430.14" gradientUnits="userSpaceOnUse"><stop offset="0" stop-color="#20196f"></stop><stop offset=".32" stop-color="#292380"></stop><stop offset=".96" stop-color="#413cac"></stop><stop offset="1" stop-color="#423eaf"></stop></linearGradient><linearGradient id="P" x1="265" x2="366.55" y1="299.45" y2="299.45" gradientUnits="userSpaceOnUse"><stop offset="0" stop-color="#ffaf6d"></stop><stop offset=".27" stop-color="#ff956f"></stop><stop offset=".75" stop-color="#ff6a71"></stop><stop offset="1" stop-color="#ff5a72"></stop></linearGradient><linearGradient id="Q" x1="253.17" x2="284.96" y1="289.42" y2="246.45" gradientUnits="userSpaceOnUse"><stop offset="0" stop-color="#423eaf"></stop><stop offset=".06" stop-color="#413cac"></stop><stop offset=".61" stop-color="#39329a"></stop><stop offset="1" stop-color="#362e94"></stop></linearGradient><linearGradient id="R" x1="296.92" x2="296.92" y1="346.43" y2="266.97" gradientUnits="userSpaceOnUse"><stop offset="0" stop-color="#fff"></stop><stop offset=".57" stop-color="#e2e6f7"></stop><stop offset="1" stop-color="#d1d7f3"></stop></linearGradient><linearGradient id="S" x1="408.24" x2="569.19" y1="518.68" y2="518.68" gradientUnits="userSpaceOnUse"><stop offset="0" stop-color="#c4c9e4"></stop><stop offset=".21" stop-color="#d7daed"></stop><stop offset=".59" stop-color="#f4f5fa"></stop><stop offset=".8" stop-color="#fff"></stop></linearGradient><linearGradient id="T" x1="362.27" x2="379.92" y1="520.16" y2="520.16" xlink:href="#f"></linearGradient><linearGradient id="U" x1="170.57" x2="235.63" y1="453.13" y2="453.13" gradientUnits="userSpaceOnUse"><stop offset=".43" stop-color="#c2c8e3"></stop><stop offset=".59" stop-color="#d7dbed"></stop><stop offset=".85" stop-color="#f4f5fa"></stop><stop offset="1" stop-color="#fff"></stop></linearGradient><linearGradient id="V" x1="155.57" x2="220.67" y1="456.97" y2="456.97" gradientUnits="userSpaceOnUse"><stop offset="0" stop-color="#cbd2f7"></stop><stop offset=".04" stop-color="#c9d0f5"></stop><stop offset=".64" stop-color="#b0bae1"></stop><stop offset="1" stop-color="#a7b2da"></stop></linearGradient><linearGradient id="W" x1="448.66" x2="550.62" y1="366.43" y2="366.43" gradientTransform="translate(-308.24)" xlink:href="#f"></linearGradient><linearGradient id="h" x1="528.3" x2="603.23" y1="467.08" y2="467.08" gradientUnits="userSpaceOnUse"><stop offset=".45" stop-color="#c4c9e4"></stop><stop offset="1" stop-color="#fff"></stop></linearGradient><linearGradient id="g" x1="511.13" x2="584.52" y1="472.95" y2="472.95" gradientUnits="userSpaceOnUse"><stop offset="0" stop-color="#ff826a"></stop><stop offset="1" stop-color="#e33c5c"></stop></linearGradient><linearGradient id="X" x1="518.03" x2="577.63" y1="449.03" y2="449.03" xlink:href="#g"></linearGradient><linearGradient id="Y" x1="536.51" x2="552.61" y1="464.58" y2="464.58" xlink:href="#g"></linearGradient><linearGradient id="Z" x1="590.19" x2="647.32" y1="480.78" y2="480.78" xlink:href="#h"></linearGradient><linearGradient id="aa" x1="575.13" x2="631.36" y1="465.83" y2="465.83" xlink:href="#g"></linearGradient><linearGradient id="ab" x1="625.33" x2="568.65" y1="497.97" y2="461.37" xlink:href="#i"></linearGradient><linearGradient id="ac" x1="592.4" x2="607.98" y1="478.03" y2="478.03" xlink:href="#g"></linearGradient><linearGradient id="ad" x1="63.73" x2="109.5" y1="421.99" y2="421.99" gradientUnits="userSpaceOnUse"><stop offset="0" stop-color="#c2c7e2"></stop><stop offset="1" stop-color="#fff"></stop></linearGradient><linearGradient id="j" x1="54.58" x2="96.12" y1="418.06" y2="418.06" gradientUnits="userSpaceOnUse"><stop offset="0" stop-color="#d6dcee"></stop><stop offset=".55" stop-color="#c4cae5"></stop><stop offset="1" stop-color="#bbc1e1"></stop></linearGradient><linearGradient id="ae" x1="54.58" x2="96.12" y1="422.03" y2="422.03" gradientUnits="userSpaceOnUse"><stop offset="0" stop-color="#807df9"></stop><stop offset=".01" stop-color="#7f7cf8"></stop><stop offset=".45" stop-color="#5e5acf"></stop><stop offset=".79" stop-color="#4a46b6"></stop><stop offset="1" stop-color="#423ead"></stop></linearGradient><linearGradient id="af" x1="54.58" x2="96.12" y1="425.99" y2="425.99" xlink:href="#j"></linearGradient></defs><g style="isolation:isolate"><g><g><path d="M465.82,241.61l-253.76,2.82,40.43,23.34-119,68.68,253.77,2.81,123.83-71.49Z" style="mix-blend-mode:multiply" fill="url(#k)"></path><path fill="#1e1c6b" d="M177,139.65V109c0-7.49-2.62-13.13-7.38-15.88s-11-2.19-17.44,1.55c-12.7,7.33-23,25.21-23,39.87v30.65h0a1.81,1.81,0,1,0,3.61,0h0V134.54c0-13.51,9.52-30,21.22-36.74,5.32-3.07,10.23-3.62,13.82-1.55s5.57,6.61,5.58,12.75v30.65h0a1.81,1.81,0,1,0,3.61,0Z"></path><path fill="#009aaa" d="M252.49,267.77l-119,68.68-4.68-140.74L247.8,127Q250.16,197.4,252.49,267.77Z"></path><path fill="#00b6bf" d="M249.79,186.65,171.92,314.29l8.34-4.82L250.07,195Zm-.8-24L148.11,328l8.34-4.81,92.82-152.14Zm-.8-24-115,188.44q.14,4.2.28,8.4l115-188.44Q248.33,142.92,248.19,138.72Zm4,119.82-8.86,14.52,8.34-4.82.79-1.31Zm-1.6-47.93-54.87,89.93,8.34-4.81L250.87,219C250.78,216.21,250.68,213.41,250.59,210.61Zm.8,24L219.52,286.8l8.34-4.81,23.81-39Q251.52,238.77,251.39,234.57ZM140.4,189l-11.17,18.3q.15,4.2.28,8.4l19.23-31.52Zm23.81-13.75-34.18,56q.15,4.19.28,8.39l42.24-69.22ZM188,161.55l-57.18,93.72c.09,2.8.19,5.6.28,8.4l65.24-106.93Zm47.61-27.49L132.43,303.2c.09,2.8.18,5.59.28,8.39L244,129.25Zm-23.81,13.75L131.63,279.23c.09,2.8.19,5.6.28,8.4L220.15,143Z"></path><polygon fill="#009aaa" points="100.21 179.17 95.52 314.5 123.9 307.06 123.9 182.03 100.21 179.17"></polygon><polygon fill="#00d6dc" points="133.53 336.45 128.85 195.71 123.9 182.03 123.9 182.03 123.9 307.06 123.9 307.06 133.53 336.45"></polygon><path fill="#57ecea" d="M224.11,124.17l-5-13.68L100.21,179.17,123.9,182l4.94,13.68L247.8,127ZM126.7,180.41,106.89,178l110.28-63.67,4.14,11.44,19.81,2.39L130.84,191.85Z"></path><polygon fill="#00b6bf" points="133.53 336.45 95.52 314.5 123.9 307.06 133.53 336.45"></polygon><polygon fill="#037284" points="217.17 114.35 217.17 142.01 130.84 191.85 126.7 180.41 106.89 178.02 217.17 114.35"></polygon><polygon fill="#009aaa" points="221.31 125.79 221.31 139.62 217.17 142.01 217.17 114.35 221.31 125.79"></polygon><polygon fill="#037284" points="221.31 125.79 241.12 128.18 221.31 139.62 221.31 125.79"></polygon><path fill="#1e1c6b" d="M139.6 168.25a4.73 4.73 0 012.14-3.7c1.18-.68 2.14-.13 2.14 1.24a4.73 4.73 0 01-2.14 3.7C140.56 170.17 139.6 169.62 139.6 168.25zM183.83 142.72A4.73 4.73 0 01186 139c1.18-.69 2.14-.13 2.14 1.23A4.73 4.73 0 01186 144C184.79 144.63 183.83 144.08 183.83 142.72z"></path><path fill="#1e1c6b" d="M219.52,164.18V133.53c0-7.5-2.62-13.14-7.38-15.88s-10.95-2.2-17.44,1.55c-12.7,7.33-23,25.21-23,39.86v30.66h0a1.81,1.81,0,0,0,3.61,0h0V159.06c0-13.5,9.52-30,21.22-36.73,5.32-3.07,10.23-3.62,13.82-1.55s5.58,6.6,5.58,12.75v30.65h0a1.81,1.81,0,1,0,3.61,0Z"></path><path d="M625.56,347.12H355.29c-15.12,0-11.88,9-4.32,13.41l120.35,69.8c4.15,2.33,17.73,2.75,32.85,2.75H625.56Z" style="mix-blend-mode:multiply" fill="url(#a)"></path><path d="M742.23,363.53,620.66,293.34a16.71,16.71,0,0,0-10-1.69H532.36l12,28.76-22.8,13.16c-4.26,2.46-4.26,6.45,0,8.91l42.16,24.34,19.91,47.7h80l0,0a16.31,16.31,0,0,0,8.95-1.8l69.69-40.24C746.49,370,746.49,366,742.23,363.53Z" style="mix-blend-mode:multiply" fill="url(#l)"></path><path fill="#6b67e9" d="M657.53,361.26l-117.74-68a16.52,16.52,0,0,0-14.94,0l-67.49,39c-4.13,2.38-4.13,6.24,0,8.63l117.74,68a16.52,16.52,0,0,0,14.94,0l67.49-39C661.66,367.51,661.66,363.65,657.53,361.26Z"></path><path d="M567.23,309.8l-6.32,3.64H511.18c-7.19,0-10.49-1.46-7.38-3.25l.9-.52c3.11-1.8,11.47-3.26,18.66-3.26h38l-12.55-7.24H535.72c-7.19,0-10.5-1.46-7.38-3.26l.9-.52c1.7-1,5-1.86,8.8-2.46a9.81,9.81,0,0,0-2.06-.79h-.47l.22-.07a14.91,14.91,0,0,0-3.53-.42,12.53,12.53,0,0,0-6.08,1.41l-2.26,1.3-29.79,17.2L458.33,332.2l-.09.05h77.21a7.05,7.05,0,0,0,3.24-1l3.9-2.26h0l29-16.73Zm-30.85,17.91H486.65c-7.19,0-10.5-1.45-7.39-3.25l.9-.52c3.12-1.8,11.47-3.25,18.66-3.25h49.73Z" style="mix-blend-mode:multiply" fill="url(#m)"></path><path fill="url(#n)" d="M657.6,316.48,538.28,247.59a13.73,13.73,0,0,0-12.16,0l-67.79,39.13c-1.25.72-1.69,1.46-1.69,1.87v45.48c0-.42.44-1.15,1.69-1.87l67.79-39.14a13.81,13.81,0,0,1,12.16,0L657.6,362c1.25.72,1.69,1.46,1.69,1.87V318.35C659.29,317.93,658.85,317.2,657.6,316.48Zm-180.93-6.74c0,4.15-2.52,9-5.64,10.77l-4.8,2.78c-3.11,1.79-5.64-.11-5.64-4.27V287.7l16.08-9.29Zm24.72-14.17c0,4.15-2.52,9-5.63,10.78L491,309.12c-3.11,1.8-5.64-.11-5.64-4.26V273.53l16.08-9.28Zm24.73-14.16c0,4.15-2.53,9-5.64,10.77L515.67,295c-3.11,1.8-5.63-.11-5.63-4.26V259.37l16.08-9.29Zm28.61,9.49c0,4.16-2.53,6.06-5.64,4.27l-4.8-2.78c-3.12-1.79-5.64-6.62-5.64-10.77V250.08l16.08,9.29Zm24.72,14.28c0,4.15-2.52,6.06-5.64,4.26l-4.8-2.77c-3.11-1.8-5.64-6.62-5.64-10.78V264.36l16.08,9.28Zm24.72,14.27c0,4.15-2.52,6.06-5.64,4.26l-4.8-2.77c-3.11-1.8-5.64-6.62-5.64-10.77V278.63l16.08,9.28Zm24.73,14.27c0,4.16-2.53,6.06-5.64,4.27l-4.81-2.78c-3.11-1.79-5.64-6.62-5.64-10.77V292.9l16.09,9.29ZM653.62,348c0,4.15-2.53,6.06-5.64,4.26l-4.8-2.77c-3.12-1.8-5.64-6.62-5.64-10.78V307.18l16.08,9.28Z"></path><path fill="url(#c)" d="M522.83,252v27.56c0,4.15-2.52,9-5.63,10.78l-4.81,2.77a5,5,0,0,1-1.76.64c.93,1.93,2.83,2.53,5,1.25l4.81-2.77c3.11-1.8,5.64-6.62,5.64-10.77V250.08Z"></path><path fill="url(#b)" d="M541.93,252v27.75c0,4.15,2.53,9,5.64,10.77l4.8,2.77a4.91,4.91,0,0,0,1.76.64c-.92,1.93-2.83,2.53-5,1.26l-4.8-2.78c-3.12-1.79-5.64-6.62-5.64-10.77V250.08Z"></path><path fill="url(#o)" d="M566.65,266.25V294c0,4.15,2.53,9,5.64,10.77l4.8,2.78a4.86,4.86,0,0,0,1.77.63c-.93,1.94-2.84,2.54-5.05,1.26l-4.8-2.77c-3.11-1.8-5.64-6.62-5.64-10.78V264.36Z"></path><path fill="url(#p)" d="M591.37,280.52v27.75c0,4.15,2.53,9,5.64,10.78l4.81,2.77a5,5,0,0,0,1.76.64c-.93,1.93-2.84,2.53-5.05,1.25l-4.8-2.77c-3.11-1.8-5.64-6.62-5.64-10.77V278.63Z"></path><path fill="url(#q)" d="M616.1,294.8v27.75c0,4.15,2.52,9,5.64,10.77l4.8,2.77a4.78,4.78,0,0,0,1.76.64c-.93,1.93-2.83,2.53-5,1.26l-4.81-2.78c-3.11-1.79-5.64-6.62-5.64-10.77V292.9Z"></path><path fill="url(#r)" d="M640.82,309.07v27.75c0,4.15,2.52,9,5.64,10.77l4.8,2.77A4.73,4.73,0,0,0,653,351c-.92,1.94-2.83,2.54-5,1.26l-4.8-2.77c-3.12-1.8-5.64-6.62-5.64-10.78V307.18Z"></path><path fill="url(#s)" d="M498.11,266.14v27.54c0,4.15-2.52,9-5.64,10.77l-4.8,2.77a4.91,4.91,0,0,1-1.76.64c.92,1.94,2.83,2.54,5,1.26l4.81-2.77c3.11-1.8,5.63-6.63,5.63-10.78V264.25Z"></path><path fill="url(#t)" d="M473.39,280.31v27.5c0,4.16-2.52,9-5.64,10.78l-4.8,2.77a4.91,4.91,0,0,1-1.76.64c.92,1.93,2.83,2.53,5,1.26l4.8-2.78c3.12-1.8,5.64-6.62,5.64-10.77v-31.3Z"></path><path fill="#6b67e9" d="M659,314,539.7,245.12a16.59,16.59,0,0,0-15,0l-67.8,39.14c-4.14,2.39-4.14,6.27,0,8.67l119.33,68.89a16.61,16.61,0,0,0,15,0L659,322.68C663.17,320.29,663.17,316.41,659,314Zm-1.43,6.2-67.79,39.14a13.81,13.81,0,0,1-12.16,0l-119.32-68.9c-1.25-.71-1.69-1.45-1.69-1.87s.44-1.15,1.69-1.87l67.79-39.13a13.73,13.73,0,0,1,12.16,0L657.6,316.48c1.25.72,1.69,1.45,1.69,1.87S658.85,319.5,657.6,320.22Z"></path><path fill="url(#u)" d="M659,322.68l-1.66.95h0v33.93c0,4.15-2.52,9-5.64,10.77l-4.8,2.78c-3.11,1.8-5.64-.11-5.64-4.26V333h0v-.1l-8.64,5h0v33.92c0,4.16-2.52,9-5.64,10.78l-4.8,2.77c-3.11,1.8-5.64-.11-5.64-4.26V347.19l-8.64,5v9.39h0v24.54c0,4.15-2.52,9-5.64,10.77l-4.8,2.77c-3.12,1.8-5.64-.11-5.64-4.26V361.46l-.61.36a16.61,16.61,0,0,1-15,0l-.61-.36-13-7.48h0l-3.7-2.13-98.34-56.78h0l-3.72-2.14c-1.95-1.13-3-2.59-3.08-4.07v46.62c0,5.51,2.28,8,6.5,10.33l115.91,66.91a16.55,16.55,0,0,0,15,0l63.3-36.54c5.83-3.31,7.59-6.86,7.59-12.57V318.35C662.13,319.92,661.1,321.48,659,322.68ZM469.14,341.43l-4.81-2.77c-3.11-1.8-5.63-6.62-5.63-10.77V296.24l16.08,9.29v31.64C474.78,341.32,472.25,343.23,469.14,341.43Zm24.72,14.28-4.8-2.78c-3.12-1.79-5.64-6.62-5.64-10.77V310.52l16.08,9.28v31.64C499.5,355.6,497,357.51,493.86,355.71ZM518.58,370l-4.8-2.77c-3.12-1.8-5.64-6.62-5.64-10.78V331.79h0v-7l16.08,9.28v31.65C524.22,369.87,521.7,371.78,518.58,370Zm24.72,14.27-4.8-2.77c-3.11-1.8-5.64-6.62-5.64-10.77V339.06l16.08,9.29V380C548.94,384.14,546.42,386.05,543.3,384.25Zm30.36,10c0,4.16-2.52,6.07-5.63,4.27l-4.81-2.78c-3.11-1.79-5.64-6.62-5.64-10.77V353.34l16.08,9.28Z"></path><g style="mix-blend-mode:multiply"><path fill="#d1d7f3" d="M591.85 371.25v-9.79l-.61.36a16.61 16.61 0 01-15 0l-.61-.36-13-7.48-3.7-2.13-98.34-56.78-3.72-2.14c-1.95-1.13-3-2.59-3.08-4.07v9.87l4.88 2.82v-5.31l16.08 9.29v5.3l8.64 5v-5.3l16.08 9.28v5.31l8.64 5v-5.31l16.08 9.28v5.31l8.64 5v-5.31l16.08 9.29v5.3l8.64 5v-5.3l16.08 9.28v5.31l2.22 1.28C580.19 371.7 586.46 372.37 591.85 371.25zM659 322.68l-1.66.95h0v11l4.76-2.75V318.35C662.13 319.92 661.1 321.48 659 322.68z"></path><polygon fill="#d1d7f3" points="632.65 347.3 632.65 348.89 641.29 343.9 641.29 333.02 641.29 333.02 641.29 332.92 632.65 337.91 632.65 337.91 632.65 338.01 632.65 347.3"></polygon><polygon fill="#d1d7f3" points="607.93 361.57 607.93 361.57 607.93 363.16 616.57 358.17 616.57 347.3 616.57 347.19 607.93 352.18 607.93 361.57"></polygon></g><path fill="url(#v)" d="M654.09,325.53v30.14c0,4.15-2.52,9-5.64,10.77l-4.8,2.77a4.91,4.91,0,0,1-1.76.64c.92,1.94,2.83,2.53,5,1.26l4.8-2.78c3.12-1.79,5.64-6.62,5.64-10.77V323.63Z"></path><path fill="url(#w)" d="M629.37,339.8v30.14c0,4.15-2.53,9-5.64,10.77l-4.8,2.78a4.88,4.88,0,0,1-1.76.63c.92,1.94,2.83,2.54,5,1.26l4.8-2.77c3.12-1.8,5.64-6.62,5.64-10.78V337.91Z"></path><path fill="url(#x)" d="M604.65,354.07v30.14c0,4.15-2.53,9-5.64,10.78l-4.8,2.77a5.11,5.11,0,0,1-1.76.64c.92,1.93,2.83,2.53,5,1.25l4.8-2.77c3.12-1.8,5.64-6.62,5.64-10.77V352.18Z"></path><path fill="url(#d)" d="M560.87,355.23v27.86c0,4.15,2.52,9,5.63,10.77l4.81,2.77a4.78,4.78,0,0,0,1.76.64c-.93,1.94-2.83,2.53-5,1.26l-4.81-2.78c-3.11-1.79-5.64-6.62-5.64-10.77V353.34Z"></path><path fill="url(#y)" d="M536.14,341v27.85c0,4.15,2.53,9,5.64,10.78l4.81,2.77a5,5,0,0,0,1.76.64c-.93,1.93-2.84,2.53-5.05,1.25l-4.8-2.77c-3.11-1.8-5.64-6.62-5.64-10.77V339.06Z"></path><path fill="url(#z)" d="M511.42,326.68v27.86c0,4.15,2.53,9,5.64,10.77l4.8,2.78a4.88,4.88,0,0,0,1.76.63c-.92,1.94-2.83,2.54-5,1.26l-4.8-2.77c-3.12-1.8-5.64-6.62-5.64-10.78V324.79Z"></path><path fill="url(#A)" d="M486.7,312.41v27.86c0,4.15,2.52,9,5.64,10.77l4.8,2.77a4.91,4.91,0,0,0,1.76.64c-.92,1.94-2.83,2.53-5,1.26l-4.8-2.78c-3.12-1.79-5.64-6.62-5.64-10.77V310.52Z"></path><path fill="url(#B)" d="M462,298.14V326c0,4.15,2.52,9,5.64,10.78l4.8,2.77a5.11,5.11,0,0,0,1.76.64c-.92,1.93-2.83,2.53-5,1.25l-4.81-2.77c-3.11-1.8-5.63-6.62-5.63-10.77V296.24Z"></path><path fill="#807dfb" d="M665.24,291.41,543,220.82c-5.94-3.43-15.62-3.43-21.57,0L453.62,260c-5.94,3.44-5.94,9,0,12.46L575.88,343c6,3.44,15.63,3.44,21.57,0l67.79-39.13C671.19,300.43,671.19,294.85,665.24,291.41Zm-71.07,49.7a16.59,16.59,0,0,1-15,0L456.9,270.52c-4.14-2.39-4.14-6.27,0-8.66l67.8-39.14a16.59,16.59,0,0,1,15,0L662,293.31c4.14,2.39,4.14,6.27,0,8.66Z"></path><path fill="url(#C)" d="M669.7,297.63c0,2.26-1.48,4.52-4.46,6.24L597.45,343c-5.94,3.44-15.62,3.44-21.57,0L453.62,272.42c-2.92-1.69-4.4-3.9-4.45-6.11h0v22.1h0c-.08,2.31,1.39,4.64,4.44,6.4l122.26,70.59c6,3.43,15.63,3.43,21.57,0l67.79-39.14c3-1.73,4.48-4,4.46-6.26h0V297.63Z"></path><path fill="url(#D)" d="M662,293.31,539.7,222.72a16.59,16.59,0,0,0-15,0l-67.8,39.14c-4.14,2.39-4.14,6.27,0,8.66l11.9,6.87,55.9-32.27a16.59,16.59,0,0,1,15,0l110.36,63.72L662,302C666.1,299.58,666.1,295.7,662,293.31Z"></path><path d="M511.88,306.05V320a18.3,18.3,0,0,0,4.42,11l7.78,4.49c2.63-.09,4.42-2.25,4.42-5.93V315.65Z" style="mix-blend-mode:multiply" fill="#dae0f5"></path><polygon points="528.5 315.65 515.17 307.95 518.45 306.06 531.78 313.75 528.5 315.65" style="mix-blend-mode:multiply" fill="#dae0f5"></polygon><path fill="#ff5a72" d="M613.66,224.22,611,225.77v34.31l16.62,9.59V232.26C627.59,223.39,621.34,219.78,613.66,224.22Z"></path><path fill="url(#E)" d="M522.51,292.93c0-11,7.72-24.34,17.21-29.82l73.94-42.68c4.28-2.47,8.19-2.92,11.2-1.67L609.74,210c-3.15-2.16-7.68-2-12.71.86L523.1,253.52c-9.49,5.48-17.22,18.85-17.22,29.81v35.14c0,5.3,3.73,11.74,8.32,14.39s8.31.51,8.31-4.8V292.93Z"></path><path fill="#c62c51" d="M520.14,333.4h0l3.18-1.84.07,0,0,0h0c1.47-.89,2.37-2.73,2.37-5.34l-3.28,1.89C522.51,330.68,521.6,332.52,520.14,333.4Z"></path><path fill="#c62c51" d="M613.66,220.43l-73.94,42.68c-9.49,5.48-17.21,18.86-17.21,29.82v35.13l3.28-1.89V291c0-8.87,6.25-19.7,13.93-24.14l73.94-42.68c7.68-4.44,13.93-.83,13.93,8v37.41l3.28,1.9v-41.2C630.87,219.41,623.15,215,613.66,220.43Z"></path><path fill="#e8ecf7" d="M334.64,335.65c0,8.73,6.2,19.45,13.76,23.81l121.37,70.08c7.56,4.37,13.75.8,13.75-7.93V136.89c0-8.73-6.19-19.45-13.75-23.82L348.4,43c-7.56-4.37-13.76-.8-13.76,7.93Z"></path><path fill="url(#F)" d="M338.39,42.24v0c2.52-1.64,6.07-1.53,10,.74l121.37,70.07c7.56,4.37,13.75,15.09,13.75,23.82V421.61c0,4.31-1.51,7.35-3.95,8.82l9.76-6.38h0c2.52-1.43,4.09-4.51,4.09-8.9V130.43c0-8.73-6.19-19.45-13.75-23.81L358.29,36.54c-3.94-2.28-7.51-2.38-10-.73v0ZM479.47,430.49h0Z"></path><polygon fill="#fff" points="343.28 61.13 343.28 323.77 474.89 399.75 474.89 137.12 343.28 61.13"></polygon><path fill="#bbc0e6" d="M409.08,366.68c-5.44-3.14-9.84-.6-9.84,5.68s4.4,13.92,9.84,17.06,9.85.6,9.85-5.68S414.52,369.82,409.08,366.68Zm0,19.41a15.4,15.4,0,0,1-7-12.06c0-4.44,3.12-6.24,7-4a15.39,15.39,0,0,1,7,12.06C416.05,386.51,412.93,388.31,409.08,386.09Z"></path><polygon points="424.77 99.42 393.4 81.31 393.4 77.86 424.77 95.97 424.77 99.42" style="mix-blend-mode:multiply" fill="#d1d7f3"></polygon><path fill="#bbc0e6" d="M407,219a9.46,9.46,0,0,1,4.27,7.37c0,2.71-1.9,3.81-4.25,2.45a9.46,9.46,0,0,1-4.27-7.37C402.76,218.78,404.66,217.68,407,219Z"></path><polygon fill="#bbc0e6" points="401.4 234.63 401.4 230.61 412.66 237.12 412.66 241.14 410.25 239.75 410.25 255.11 412.66 256.5 412.66 260.52 401.4 254.01 401.4 250 403.81 251.38 403.81 236.02 401.4 234.63"></polygon><polygon fill="#dfe4f4" points="431.05 177.47 387.12 152.11 387.12 127.8 431.05 153.16 431.05 177.47"></polygon><polygon fill="#807dfb" points="401.58 127.97 404.65 129.74 404.65 133.29 401.58 131.52 401.58 127.97"></polygon><polygon fill="#807dfb" points="407.55 131.41 410.62 133.19 410.62 136.74 407.55 134.96 407.55 131.41"></polygon><polygon fill="#807dfb" points="413.52 134.86 416.59 136.63 416.59 140.19 413.52 138.41 413.52 134.86"></polygon><path fill="#d1d7f3" d="M403.48,137.25l-16.36,9.44v2.95L406,138.72Zm-15.26-8.81-1.1.64V132l3.66-2.12Zm7.63,4.4-8.73,5v3l11.29-6.52Zm15.26,8.81-21.05,12.16,2.55,1.47,21.05-12.15Zm12,31.25,7.93-4.58v-2.95l-10.48,6Zm-4.38-26.84-21.06,12.15,2.56,1.48,21.05-12.16Zm-5.8,21,2.56,1.47,15.55-9v-2.95Zm17.81,10.28.3-.17v-2.95l-2.85,1.65Zm-4.38-26.84-21.06,12.15,2.56,1.48,21.05-12.16Z"></path><path fill="#bbc0e6" d="M370,311.2c-3.52-6.08-9.21-9.37-12.73-7.34s-3.51,8.6,0,14.69l6.36,11L370,325.9C373.5,323.87,373.5,317.29,370,311.2Zm-6.37,8.58a9.39,9.39,0,0,1-4.24-7.35c0-2.71,1.9-3.81,4.24-2.46a9.39,9.39,0,0,1,4.25,7.36C367.87,320,366,321.13,363.62,319.78Z"></path><path fill="#ff826a" d="M450.63,205.51c0-4.62,3.24-6.49,7.25-4.18a16,16,0,0,1,7.25,12.55c0,4.63-3.25,6.5-7.25,4.19A16,16,0,0,1,450.63,205.51Z"></path><path fill="#ff826a" d="M435.1,225.77a.93.93,0,0,1-.79-.43,1,1,0,0,1,.26-1.31l22.78-15.12a1,1,0,0,1,1.32.27.94.94,0,0,1-.27,1.31l-22.78,15.12A1,1,0,0,1,435.1,225.77Z"></path><path fill="#6b67e9" d="M356.37,151.1c0-4.63,3.25-6.5,7.25-4.19a16,16,0,0,1,7.25,12.56c0,4.62-3.24,6.5-7.25,4.18A16,16,0,0,1,356.37,151.1Z"></path><path fill="#6b67e9" d="M379.22,188a.93.93,0,0,1-.85-.53l-15.6-31.81a1,1,0,0,1,.44-1.27.93.93,0,0,1,1.26.43l15.6,31.82a1,1,0,0,1-.43,1.27A1.06,1.06,0,0,1,379.22,188Z"></path><path fill="#362e94" d="M455,319.48c0-2.74,1.93-3.85,4.3-2.48a9.5,9.5,0,0,1,4.3,7.45c0,2.74-1.92,3.85-4.3,2.48A9.52,9.52,0,0,1,455,319.48Z"></path><path fill="#362e94" d="M459.3,322.91a.94.94,0,0,1-.78-.42l-19.55-29a1,1,0,1,1,1.58-1.06l19.54,29.05a.94.94,0,0,1-.26,1.31A.92.92,0,0,1,459.3,322.91Z"></path><polygon fill="#bbc0e6" points="470.51 143.21 457.79 135.86 457.79 133.49 470.51 140.84 470.51 143.21"></polygon><polygon fill="#bbc0e6" points="470.51 148.42 457.79 141.08 457.79 138.71 470.51 146.06 470.51 148.42"></polygon><polygon fill="#bbc0e6" points="470.51 153.64 457.79 146.3 457.79 143.93 470.51 151.28 470.51 153.64"></polygon><path fill="#bbc0e6" d="M354.11,81.51a8.05,8.05,0,0,1-1.63-4.57c0-2.35,1.5-3.38,3.36-2.31a7.81,7.81,0,0,1,3.36,6.19c0,1.55-.66,2.51-1.64,2.69,2.84,2.74,4.65,6.61,4.65,8.91l-6.37-3.68-6.38-3.68C349.46,82.76,351.27,81,354.11,81.51Z"></path><polygon fill="#bbc0e6" points="416.05 344.76 410.05 341.29 410.05 334.35 406.7 332.42 406.7 339.36 400.69 335.89 400.69 339.76 406.7 343.22 406.7 350.16 410.05 352.09 410.05 345.16 416.05 348.63 416.05 344.76"></polygon><path fill="#bbc0e6" d="M446.76,357.33a9.55,9.55,0,0,0-2.84-2.7c-2.7-1.55-4.88-.29-4.88,2.82a9.86,9.86,0,0,0,1.43,4.81l8.33,14.44,8.33-4.82a3.42,3.42,0,0,0,1.43-3.16,10.78,10.78,0,0,0-4.88-8.45,3.83,3.83,0,0,0-2.84-.58l-2,.68Z"></path><path d="M416.05,188.67c-27.73-16-50.22-3-50.22,29s22.49,71,50.22,87c13.89,8,26.46,8.77,35.55,3.5,6.34-3.67,11-10.29,13.21-19.41a55.45,55.45,0,0,0,1.46-13.08C466.27,243.62,443.79,204.68,416.05,188.67Zm25.7,102.43c-6.57,3.81-15.66,3.27-25.7-2.52C396,277,379.75,248.85,379.75,225.7s16.25-32.54,36.3-21,36.31,39.72,36.31,62.88a40,40,0,0,1-1.06,9.46C449.69,283.66,446.33,288.45,441.75,291.1Z" style="mix-blend-mode:multiply" fill="url(#G)"></path><path fill="#ffaf6d" d="M453.76,270.32c0-32-22.49-71-50.22-87v16.07c20,11.58,36.3,39.73,36.3,62.88a40,40,0,0,1-1.06,9.46l13.51,11.65A55.43,55.43,0,0,0,453.76,270.32Z"></path><path fill="url(#i)" d="M459.3,267.12c0-32-22.48-71-50.22-87h0l-5.54,3.2c27.73,16,50.22,55,50.22,87a54.91,54.91,0,0,1-1.47,13.08l5.55-3.21A55.3,55.3,0,0,0,459.3,267.12Z"></path><path fill="#5652cc" d="M403.54,283.25c-20.05-11.58-36.31-39.73-36.31-62.88s16.26-32.54,36.31-21V183.34c-27.74-16-50.22-3-50.22,29s22.48,71,50.22,87c13.88,8,26.45,8.76,35.54,3.5l-9.85-17C422.66,289.58,413.57,289,403.54,283.25Z"></path><path fill="url(#H)" d="M380.79,195.53c-8.26,2.91-13.56,11.63-13.56,24.84,0,23.15,16.26,51.3,36.31,62.88,11.43,6.6,21.63,6.38,28.29.67-6.23,2.19-14.13,1.1-22.75-3.87-20.05-11.58-36.3-39.73-36.3-62.88C372.78,207.22,375.78,199.83,380.79,195.53Z"></path><path fill="#807dfb" d="M373.27,176.81h0l-5.14,3c9.08-5.19,21.59-4.41,35.42,3.57l5.54-3.2C395.06,172,382.38,171.37,373.27,176.81Z"></path><path fill="#423eaf" d="M438.78,271.75c-1.61,6.59-5,11.37-9.55,14l9.85,17c6.34-3.68,11-10.3,13.21-19.42Z"></path><path fill="#20196f" d="M457.84,280.19l-5.55,3.21c-2.14,8.78-6.54,15.23-12.53,19h0l4.42-2.56.75-.43.37-.22h0C451.3,295.43,455.7,289,457.84,280.19Z"></path><path fill="url(#I)" d="M376.37,232.45a11.21,11.21,0,0,0-5-8.74l-76.14-44c-2.77-1.61-5-.3-5,2.91v66.27a11.21,11.21,0,0,0,5,8.74l76.14,43.95c2.77,1.61,5,.29,5-2.91Z" opacity=".8"></path><path d="M371.33,301.63l-76.14-43.95a11.21,11.21,0,0,1-5-8.74V187.79c6.82,3.94,3.87,21.56,9.06,24.56,3.64,2.1,4.48-7.42,9.81-4.34,5.61,3.23,7.85,29.86,14.16,33.5,5,2.91,5.74-5.43,10.77-2.53,6.72,3.88,6.61,22.15,13.2,26,6.86,4,12.19-21.92,18.65-18.19,3.63,2.1,7.84,15.54,10.57,22.9v29.08C376.37,301.92,374.1,303.24,371.33,301.63Z" style="mix-blend-mode:screen" fill="url(#J)"></path><polygon points="333.11 274.99 334.79 275.96 334.79 239.46 333.11 238.49 333.11 274.99" style="mix-blend-mode:screen" fill="#00d6dc"></polygon><path fill="#fff" d="M336.31,240.34a5.23,5.23,0,0,0-2.36-4.09c-1.31-.75-2.37-.14-2.37,1.36A5.2,5.2,0,0,0,334,241.7C335.25,242.46,336.31,241.85,336.31,240.34Z"></path><path fill="url(#K)" d="M376.37,298.72V232.45a11.21,11.21,0,0,0-5-8.74l-76.14-44a3.56,3.56,0,0,0-3.53-.37l2.64-1.52h0a3.46,3.46,0,0,1,3.65.29l76.14,44a11.21,11.21,0,0,1,5,8.74v66.27c0,1.68-.62,2.83-1.61,3.32L375,301.89A3.6,3.6,0,0,0,376.37,298.72Z"></path><polygon points="352.6 500.85 317.29 500.85 362.27 526.81 295.59 565.31 330.89 565.31 397.56 526.81 352.6 500.85" style="mix-blend-mode:multiply" fill="url(#f)"></polygon><polygon points="342.38 445.26 342.38 425.29 273.93 425.29 270.6 435.25 291.23 435.25 287.95 445.26 342.38 445.26" style="mix-blend-mode:multiply" fill="url(#L)"></polygon><path fill="url(#e)" d="M264.06,431.87c0-8.62,5.45-8.86,5.45-8.86a22.47,22.47,0,0,0,7.76-2c4.74-2,11.41-1.21,7.68,5.68a1.42,1.42,0,0,1-.12.25,3.37,3.37,0,0,1-1.22,1.06l-11.92,7C269.87,436,264.1,433.64,264.06,431.87Z"></path><path fill="#131147" d="M264.09,431.09c.1,1.77,5.8,4.13,7.6,3.1l11.92-7a10.64,10.64,0,0,0,1.68-1.22c-.1.23-.2.46-.34.72a1.42,1.42,0,0,1-.12.25,3.37,3.37,0,0,1-1.22,1.06l-11.92,7c-1.7,1-6.88-1.08-7.56-2.79a1.72,1.72,0,0,1-.05-.35A6.57,6.57,0,0,1,264.09,431.09Z"></path><path fill="#facfa7" d="M267.64,421.11a32,32,0,0,1,5.78,1.38,3.08,3.08,0,0,0,.48,1.4,1.39,1.39,0,0,1,.15.19c1.07.74,2.15,1.91-.38,3.5a3.51,3.51,0,0,1-4.55-.33,4.09,4.09,0,0,0-1.47-1.66,3.71,3.71,0,0,0-1.41-.6s0-.13,0-.13S267,421.11,267.64,421.11Z"></path><path fill="url(#M)" d="M267.3,331.48c5.89.11,16.41,1.24,22.3,1.35-2.19,17.7-3.32,30.56-6.27,47.71-3.16,16.66-6.72,28.37-9.83,42.25-1.14,2.58-5.6,1.87-6.65-.61,1.17-16.13-1.48-28.61,2.31-43.34-.34-8.36,1-18.52-.38-22.3A45.77,45.77,0,0,1,267.3,331.48Z"></path><path fill="url(#N)" d="M281.4,441.88c0-8.61,5.46-8.86,5.46-8.86a22.62,22.62,0,0,0,7.76-2c4.73-2,11.41-1.21,7.68,5.68l-.13.25A3.32,3.32,0,0,1,301,438L289,445C287.22,446.05,281.44,443.65,281.4,441.88Z"></path><path fill="#131147" d="M281.43,441.11c.11,1.77,5.8,4.12,7.6,3.09l11.93-7a10.62,10.62,0,0,0,1.68-1.23c-.11.24-.2.46-.34.73l-.13.25A3.32,3.32,0,0,1,301,438L289,445c-1.7,1-6.87-1.07-7.55-2.79a1.71,1.71,0,0,1-.06-.35A6.43,6.43,0,0,1,281.43,441.11Z"></path><path fill="#facfa7" d="M284.48,431.13a40.92,40.92,0,0,1,6.29,1.37,3,3,0,0,0,.48,1.4l.15.19c1.07.74,2.15,1.92-.38,3.5a3.53,3.53,0,0,1-4.56-.32A4.12,4.12,0,0,0,285,435.6a3.65,3.65,0,0,0-1.41-.6.35.35,0,0,0,0-.12S283.84,431.13,284.48,431.13Z"></path><path fill="url(#O)" d="M275.22,340.15c5.9.11,19.81,1.5,25.7,1.61,3.73,20.84,2.71,31.65-.24,48.79-3.16,16.67-6.72,28.38-9.84,42.25-1.13,2.59-6,1.6-7-.88.78-14.38-1.09-28.33,2.69-43.07-.68-8.68-2-21.66-3.07-24.59C281.36,358.7,274.15,352.11,275.22,340.15Z"></path><path fill="#ff826a" d="M269.36,279.54c-6,5.8-14.8,33.09-3.58,48.35C272.15,319.5,269.36,279.54,269.36,279.54Z"></path><path fill="url(#P)" d="M325.36,251.1c-3.57,7.54-7.07,18.74-9.08,20.91-3.58,3.86-12.34,6.4-21,8a14.77,14.77,0,0,1-3.28.21,15.42,15.42,0,0,1-3.64-2.18c-4.35-3.42-6.71-5.36-8.8-5.79-17.26-3.52-15,26.88-13.59,59.67,1.34,8.72,3.2,9.64,6.38,11.52,7.71,4.11,25.1,7.69,29.6-1-3.15-7.8-5.86-19.38-6.07-27.87-.13-5.39,3.62-9.67,4.88-15.71a19.56,19.56,0,0,0-.85-3.89c12.67-7.05,22.08-13.19,23.39-16.51a126.22,126.22,0,0,0,7.47-25Z"></path><path fill="#fcd1a9" d="M326.32,249.6v.05c0-2.33.48-3.68,1.38-4.08.19-.56.4-1.14.6-1.69,1.15-3.25,4.79-6,5.56-5.26.47.47-1.38,1.9-2.36,3.44a5.51,5.51,0,0,0-.81,2.44s4.35.41,4.35,4c0,2.94-1.59,1.78-1.59,1.2-1.12,3-2.45,1.21-3,3.64l-4.7-2.08Z"></path><path fill="#20196f" d="M295.49,259c-1-5.29-6.63-13.64-16-11.61-9.09,2-11.56,7.86-11,17,.37,6.3-2.24,24.72-16.41,25.7C259.59,300.35,302.68,296.22,295.49,259Z"></path><path fill="url(#Q)" d="M270,279.36c6.12-12.09,1.47-20.4,4.71-26,1.86-3.21,7.38-7.59,15.32-3.46h0a12.06,12.06,0,0,0-10.55-2.52c-9.09,2-11.56,7.86-11,17,.37,6.3-2.24,24.72-16.41,25.7C257.69,291.69,266.11,287,270,279.36Z"></path><path d="M292.83,317.74c2.38,4.62,4.94,22.54,4.72,28.69a8.77,8.77,0,0,0,4.39-4c-3.15-7.8-5.86-19.38-6.07-27.87-.13-5.39,3.62-9.67,4.88-15.71a19.56,19.56,0,0,0-.85-3.89c-2.71,2.71-5.07,5.08-5.87,7.46S290.46,313.12,292.83,317.74Z" style="mix-blend-mode:multiply" fill="url(#R)"></path><polygon points="509.13 484 408.24 484 468.31 518.68 408.24 553.36 509.13 553.36 569.19 518.68 509.13 484" style="mix-blend-mode:multiply" fill="url(#S)"></polygon><polygon fill="#5652cc" points="408.25 489.28 471.52 452.74 408.25 416.21 344.97 452.74 408.25 489.28"></polygon><path fill="#423eaf" d="M406.53,421.67a3.83,3.83,0,0,0,3.43,0,1,1,0,0,0,0-2,3.77,3.77,0,0,0-3.43,0A1,1,0,0,0,406.53,421.67Zm11.11,6.41a3.77,3.77,0,0,0,3.43,0,1,1,0,0,0,0-2,3.77,3.77,0,0,0-3.43,0A1,1,0,0,0,417.64,428.08Zm14.54,4.43a3.83,3.83,0,0,0-3.43,0,1,1,0,0,0,0,2,3.77,3.77,0,0,0,3.43,0A1,1,0,0,0,432.18,432.51Zm11.1,6.42a3.75,3.75,0,0,0-3.42,0,1,1,0,0,0,0,2,3.83,3.83,0,0,0,3.43,0A1,1,0,0,0,443.28,438.93Zm7.68,8.39a3.77,3.77,0,0,0,3.43,0,1,1,0,0,0,0-2,3.77,3.77,0,0,0-3.43,0A1,1,0,0,0,451,447.32Zm14.54,4.43a3.83,3.83,0,0,0-3.43,0,1,1,0,0,0,0,2,3.77,3.77,0,0,0,3.43,0A1,1,0,0,0,465.5,451.75Zm-59-23.67a3.77,3.77,0,0,0,3.43,0,1,1,0,0,0,0-2,3.77,3.77,0,0,0-3.43,0A1,1,0,0,0,406.53,428.08Zm11.11,6.41a3.77,3.77,0,0,0,3.43,0,1,1,0,0,0,0-2,3.83,3.83,0,0,0-3.43,0A1,1,0,0,0,417.64,434.49Zm14.54,4.44a3.77,3.77,0,0,0-3.43,0,1,1,0,0,0,0,2,3.83,3.83,0,0,0,3.43,0A1,1,0,0,0,432.18,438.93Zm11.1,6.41a3.77,3.77,0,0,0-3.43,0,1,1,0,0,0,0,2,3.77,3.77,0,0,0,3.43,0A1,1,0,0,0,443.28,445.34Zm7.68,8.39a3.77,3.77,0,0,0,3.43,0,1,1,0,0,0,0-2,3.83,3.83,0,0,0-3.43,0A1,1,0,0,0,451,453.73Zm-55.54-25.65a3.77,3.77,0,0,0,3.43,0,1,1,0,0,0,0-2,3.77,3.77,0,0,0-3.43,0A1,1,0,0,0,395.42,428.08ZM410,432.51a3.83,3.83,0,0,0-3.43,0,1,1,0,0,0,0,2,3.77,3.77,0,0,0,3.43,0A1,1,0,0,0,410,432.51Zm11.11,6.42a3.77,3.77,0,0,0-3.43,0,1,1,0,0,0,0,2,3.83,3.83,0,0,0,3.43,0A1,1,0,0,0,421.07,438.93Zm11.11,6.41a3.77,3.77,0,0,0-3.43,0,1,1,0,0,0,0,2,3.77,3.77,0,0,0,3.43,0A1,1,0,0,0,432.18,445.34Zm11.1,6.41a3.81,3.81,0,0,0-3.42,0,1,1,0,0,0,0,2,3.77,3.77,0,0,0,3.43,0A1,1,0,0,0,443.28,451.75Zm11.11,6.42a3.77,3.77,0,0,0-3.43,0,1,1,0,0,0,0,2,3.83,3.83,0,0,0,3.43,0A1,1,0,0,0,454.39,458.17Zm-59-23.68a3.77,3.77,0,0,0,3.43,0,1,1,0,0,0,0-2,3.83,3.83,0,0,0-3.43,0A1,1,0,0,0,395.42,434.49Zm11.11,6.42a3.83,3.83,0,0,0,3.43,0,1,1,0,0,0,0-2,3.77,3.77,0,0,0-3.43,0A1,1,0,0,0,406.53,440.91Zm14.54,4.43a3.77,3.77,0,0,0-3.43,0,1,1,0,0,0,0,2,3.77,3.77,0,0,0,3.43,0A1,1,0,0,0,421.07,445.34Zm11.11,6.41a3.83,3.83,0,0,0-3.43,0,1,1,0,0,0,0,2,3.77,3.77,0,0,0,3.43,0A1,1,0,0,0,432.18,451.75Zm7.67,8.4a3.83,3.83,0,0,0,3.43,0,1,1,0,0,0,0-2,3.77,3.77,0,0,0-3.43,0A1,1,0,0,0,439.85,460.15Zm-55.54-25.66a3.77,3.77,0,0,0,3.43,0,1,1,0,0,0,0-2,3.81,3.81,0,0,0-3.42,0A1,1,0,0,0,384.31,434.49Zm14.54,4.44a3.77,3.77,0,0,0-3.43,0,1,1,0,0,0,0,2,3.83,3.83,0,0,0,3.43,0A1,1,0,0,0,398.85,438.93ZM410,445.34a3.77,3.77,0,0,0-3.43,0,1,1,0,0,0,0,2,3.77,3.77,0,0,0,3.43,0A1,1,0,0,0,410,445.34Zm11.11,6.41a3.83,3.83,0,0,0-3.43,0,1,1,0,0,0,0,2,3.77,3.77,0,0,0,3.43,0A1,1,0,0,0,421.07,451.75Zm11.11,6.42a3.77,3.77,0,0,0-3.43,0,1,1,0,0,0,0,2,3.83,3.83,0,0,0,3.43,0A1,1,0,0,0,432.18,458.17Zm11.1,6.41a3.77,3.77,0,0,0-3.43,0,1,1,0,0,0,0,2,3.77,3.77,0,0,0,3.43,0A1,1,0,0,0,443.28,464.58Zm-59-23.67a3.83,3.83,0,0,0,3.43,0,1,1,0,0,0,0-2,3.77,3.77,0,0,0-3.43,0A1,1,0,0,0,384.31,440.91Zm14.54,6.41a1,1,0,0,0,0-2,3.77,3.77,0,0,0-3.43,0,1,1,0,0,0,0,2A3.77,3.77,0,0,0,398.85,447.32Zm7.68,6.41a3.77,3.77,0,0,0,3.43,0,1,1,0,0,0,0-2,3.83,3.83,0,0,0-3.43,0A1,1,0,0,0,406.53,453.73Zm14.54,4.44a3.77,3.77,0,0,0-3.43,0,1,1,0,0,0,0,2,3.83,3.83,0,0,0,3.43,0A1,1,0,0,0,421.07,458.17Zm7.68,8.39a3.77,3.77,0,0,0,3.43,0,1,1,0,0,0,0-2,3.77,3.77,0,0,0-3.43,0A1,1,0,0,0,428.75,466.56Zm-55.54-25.65a3.81,3.81,0,0,0,3.42,0,1,1,0,0,0,0-2,3.75,3.75,0,0,0-3.42,0A1,1,0,0,0,373.21,440.91Zm14.53,4.43a3.77,3.77,0,0,0-3.43,0,1,1,0,0,0,0,2,3.77,3.77,0,0,0,3.43,0A1,1,0,0,0,387.74,445.34Zm7.68,8.39a3.77,3.77,0,0,0,3.43,0,1,1,0,0,0,0-2,3.83,3.83,0,0,0-3.43,0A1,1,0,0,0,395.42,453.73ZM410,458.17a3.77,3.77,0,0,0-3.43,0,1,1,0,0,0,0,2,3.83,3.83,0,0,0,3.43,0A1,1,0,0,0,410,458.17Zm11.11,6.41a3.77,3.77,0,0,0-3.43,0,1,1,0,0,0,0,2,3.77,3.77,0,0,0,3.43,0A1,1,0,0,0,421.07,464.58ZM432.18,471a3.83,3.83,0,0,0-3.43,0,1,1,0,0,0,0,2,3.77,3.77,0,0,0,3.43,0A1,1,0,0,0,432.18,471Zm-59-23.67a3.75,3.75,0,0,0,3.42,0,1,1,0,0,0,0-2,3.75,3.75,0,0,0-3.42,0A1,1,0,0,0,373.21,447.32Zm11.1,6.41a3.77,3.77,0,0,0,3.43,0,1,1,0,0,0,0-2,3.83,3.83,0,0,0-3.43,0A1,1,0,0,0,384.31,453.73Zm11.11,6.42a3.83,3.83,0,0,0,3.43,0,1,1,0,0,0,0-2,3.77,3.77,0,0,0-3.43,0A1,1,0,0,0,395.42,460.15ZM410,464.58a3.77,3.77,0,0,0-3.43,0,1,1,0,0,0,0,2,3.77,3.77,0,0,0,3.43,0A1,1,0,0,0,410,464.58Zm7.68,8.39a3.77,3.77,0,0,0,3.43,0,1,1,0,0,0,0-2,3.83,3.83,0,0,0-3.43,0A1,1,0,0,0,417.64,473ZM362.1,447.32a3.77,3.77,0,0,0,3.43,0,1,1,0,0,0,0-2,3.77,3.77,0,0,0-3.43,0A1,1,0,0,0,362.1,447.32Zm14.53,4.43a3.81,3.81,0,0,0-3.42,0,1,1,0,0,0,0,2,3.75,3.75,0,0,0,3.42,0A1,1,0,0,0,376.63,451.75Zm11.11,6.42a3.77,3.77,0,0,0-3.43,0,1,1,0,0,0,0,2,3.81,3.81,0,0,0,3.42,0A1,1,0,0,0,387.74,458.17Zm11.11,6.41a3.77,3.77,0,0,0-3.43,0,1,1,0,0,0,0,2,3.77,3.77,0,0,0,3.43,0A1,1,0,0,0,398.85,464.58ZM410,471a3.83,3.83,0,0,0-3.43,0,1,1,0,0,0,0,2,3.77,3.77,0,0,0,3.43,0A1,1,0,0,0,410,471Zm11.11,6.42a3.77,3.77,0,0,0-3.43,0,1,1,0,0,0,0,2,3.83,3.83,0,0,0,3.43,0A1,1,0,0,0,421.07,477.41Zm-59-23.68a3.77,3.77,0,0,0,3.43,0,1,1,0,0,0,0-2,3.83,3.83,0,0,0-3.43,0A1,1,0,0,0,362.1,453.73Zm11.11,6.42a3.81,3.81,0,0,0,3.42,0,1,1,0,0,0,0-2,3.75,3.75,0,0,0-3.42,0A1,1,0,0,0,373.21,460.15Zm11.1,6.41a3.77,3.77,0,0,0,3.43,0,1,1,0,0,0,0-2,3.77,3.77,0,0,0-3.43,0A1,1,0,0,0,384.31,466.56ZM398.85,473a1,1,0,0,0,0-2,3.83,3.83,0,0,0-3.43,0,1,1,0,0,0,0,2A3.77,3.77,0,0,0,398.85,473Zm7.68,6.42a3.83,3.83,0,0,0,3.43,0,1,1,0,0,0,0-2,3.77,3.77,0,0,0-3.43,0A1,1,0,0,0,406.53,479.39Zm-52.11-27.64a3.83,3.83,0,0,0-3.43,0,1,1,0,0,0,0,2,3.77,3.77,0,0,0,3.43,0A1,1,0,0,0,354.42,451.75Zm11.11,6.42a3.77,3.77,0,0,0-3.43,0,1,1,0,0,0,0,2,3.83,3.83,0,0,0,3.43,0A1,1,0,0,0,365.53,458.17Zm11.1,6.41a3.75,3.75,0,0,0-3.42,0,1,1,0,0,0,0,2,3.75,3.75,0,0,0,3.42,0A1,1,0,0,0,376.63,464.58ZM387.74,471a3.81,3.81,0,0,0-3.42,0,1,1,0,0,0,0,2,3.75,3.75,0,0,0,3.42,0A1,1,0,0,0,387.74,471Zm11.11,6.42a3.77,3.77,0,0,0-3.43,0,1,1,0,0,0,0,2,3.83,3.83,0,0,0,3.43,0A1,1,0,0,0,398.85,477.41ZM410,483.82a3.77,3.77,0,0,0-3.43,0,1,1,0,0,0,0,2,3.77,3.77,0,0,0,3.43,0A1,1,0,0,0,410,483.82Z"></path><polygon fill="#57ecea" points="381.35 431.74 371.87 437.21 435.15 473.74 444.62 468.28 381.35 431.74"></polygon><polygon fill="#57ecea" points="371.87 468.28 381.35 473.74 444.62 437.21 435.15 431.74 371.87 468.28"></polygon><polygon fill="#423eaf" points="408.25 553.36 348.18 518.68 348.18 472.51 408.25 507.19 408.25 553.36"></polygon><path fill="#362e94" d="M391.58,534.51c-.94-.55-1.71-.1-1.71,1a3.81,3.81,0,0,0,1.71,3c.95.54,1.72.1,1.72-1A3.78,3.78,0,0,0,391.58,534.51Zm0-25.65c-.94-.55-1.71-.11-1.71,1a3.78,3.78,0,0,0,1.71,3c.95.55,1.72.11,1.72-1A3.76,3.76,0,0,0,391.58,508.86Zm5.56.75c.94.54,1.71.1,1.71-1a3.8,3.8,0,0,0-1.71-3c-.95-.55-1.72-.1-1.72,1A3.8,3.8,0,0,0,397.14,509.61ZM386,512.06c-.95-.54-1.72-.1-1.72,1a3.78,3.78,0,0,0,1.72,3c.94.55,1.71.1,1.71-1A3.81,3.81,0,0,0,386,512.06Zm5.55,9.62c-.94-.54-1.71-.1-1.71,1a3.81,3.81,0,0,0,1.71,3c.95.55,1.72.1,1.72-1A3.8,3.8,0,0,0,391.58,521.68Zm-11.11-6.41c-.94-.55-1.71-.1-1.71,1a3.81,3.81,0,0,0,1.71,3c.95.54,1.72.1,1.72-1A3.78,3.78,0,0,0,380.47,515.27Zm0,12.83c-.94-.55-1.71-.11-1.71,1a3.78,3.78,0,0,0,1.71,3c.95.55,1.72.11,1.72-1A3.76,3.76,0,0,0,380.47,528.1Zm5.56-3.21c-.95-.55-1.72-.1-1.72,1a3.8,3.8,0,0,0,1.72,3c.94.54,1.71.1,1.71-1A3.8,3.8,0,0,0,386,524.89Zm0-25.65c-.95-.55-1.72-.11-1.72,1a3.8,3.8,0,0,0,1.72,3c.94.54,1.71.1,1.71-1A3.78,3.78,0,0,0,386,499.24Zm20.5,26.64a3.8,3.8,0,0,0,1.72,3h0v-4h0C407.3,524.34,406.53,524.79,406.53,525.88Zm-26.06-23.44c-.94-.54-1.71-.1-1.71,1a3.8,3.8,0,0,0,1.71,3c.95.55,1.72.1,1.72-1A3.8,3.8,0,0,0,380.47,502.44Zm27.78,9.62c-.95-.54-1.72-.1-1.72,1a3.78,3.78,0,0,0,1.72,3h0v-4Zm-55.55,6.42c-.94-.55-1.71-.11-1.71,1a2.82,2.82,0,0,0,.17.93l3.09,1.79a1.63,1.63,0,0,0,.17-.75A3.76,3.76,0,0,0,352.7,518.48Zm53.83,20.23a3.76,3.76,0,0,0,1.72,3h0v-3.95h0C407.3,537.17,406.53,537.61,406.53,538.71Zm-3.84-23.44c-.95-.55-1.71-.1-1.71,1a3.79,3.79,0,0,0,1.71,3c.95.54,1.71.1,1.71-1A3.79,3.79,0,0,0,402.69,515.27Zm-5.55,16c-.95-.54-1.72-.1-1.72,1a3.78,3.78,0,0,0,1.72,3c.94.55,1.71.1,1.71-1A3.81,3.81,0,0,0,397.14,531.3Zm0-12.82c-.95-.55-1.72-.11-1.72,1a3.76,3.76,0,0,0,1.72,3c.94.55,1.71.11,1.71-1A3.78,3.78,0,0,0,397.14,518.48Zm5.55,9.62c-.95-.55-1.71-.11-1.71,1a3.75,3.75,0,0,0,1.71,3c.95.55,1.71.11,1.71-1A3.75,3.75,0,0,0,402.69,528.1Zm0,12.82c-.95-.54-1.71-.1-1.71,1a3.79,3.79,0,0,0,1.71,3c.95.55,1.71.1,1.71-1A3.79,3.79,0,0,0,402.69,540.92Zm-27.77-48.1c-.95-.54-1.71-.1-1.71,1a3.77,3.77,0,0,0,1.71,3c.95.55,1.71.1,1.71-1A3.79,3.79,0,0,0,374.92,492.82Zm-11.11,32.07c-.94-.55-1.71-.1-1.71,1a2.82,2.82,0,0,0,.17.93l3.09,1.79a1.59,1.59,0,0,0,.17-.74A3.78,3.78,0,0,0,363.81,524.89ZM352.7,505.65c-.94-.55-1.71-.1-1.71,1a3.81,3.81,0,0,0,1.71,3c.95.54,1.72.1,1.72-1A3.78,3.78,0,0,0,352.7,505.65Zm0-25.65c-.94-.55-1.71-.11-1.71,1a3.78,3.78,0,0,0,1.71,3c.95.55,1.72.11,1.72-1A3.76,3.76,0,0,0,352.7,480Zm0,12.82c-.94-.54-1.71-.1-1.71,1a3.8,3.8,0,0,0,1.71,3c.95.55,1.72.1,1.72-1A3.8,3.8,0,0,0,352.7,492.82Zm5.56-3.2c-.95-.55-1.72-.11-1.72,1a3.76,3.76,0,0,0,1.72,3c.94.55,1.71.11,1.71-1A3.78,3.78,0,0,0,358.26,489.62Zm38.88,54.51c-.95-.55-1.72-.1-1.72,1a2.82,2.82,0,0,0,.17.93l3.09,1.79a1.5,1.5,0,0,0,.17-.74A3.81,3.81,0,0,0,397.14,544.13ZM374.92,531.3c-.95-.54-1.71-.1-1.71,1a3.2,3.2,0,0,0,.16.94l3.1,1.78a1.59,1.59,0,0,0,.16-.74A3.79,3.79,0,0,0,374.92,531.3Zm31.61,20.23a2.92,2.92,0,0,0,.17.94l1.55.89v-2.82h0C407.3,550,406.53,550.44,406.53,551.53ZM386,537.72c-.95-.55-1.72-.11-1.72,1a3.16,3.16,0,0,0,.17.93l3.1,1.79a1.62,1.62,0,0,0,.16-.74A3.78,3.78,0,0,0,386,537.72Zm-11.11-19.24c-.95-.55-1.71-.11-1.71,1a3.75,3.75,0,0,0,1.71,3c.95.55,1.71.11,1.71-1A3.75,3.75,0,0,0,374.92,518.48Zm-5.55-9.62c-.95-.55-1.72-.11-1.72,1a3.76,3.76,0,0,0,1.72,3c.94.55,1.71.11,1.71-1A3.78,3.78,0,0,0,369.37,508.86Zm0-12.83c-.95-.55-1.72-.1-1.72,1a3.8,3.8,0,0,0,1.72,3c.94.54,1.71.1,1.71-1A3.81,3.81,0,0,0,369.37,496Zm0,25.65c-.95-.54-1.72-.1-1.72,1a3.8,3.8,0,0,0,1.72,3c.94.55,1.71.1,1.71-1A3.81,3.81,0,0,0,369.37,521.68Zm5.55-16c-.95-.55-1.71-.1-1.71,1a3.79,3.79,0,0,0,1.71,3c.95.54,1.71.1,1.71-1A3.77,3.77,0,0,0,374.92,505.65Zm-11.11-15.28c.95.54,1.72.1,1.72-1a3.78,3.78,0,0,0-1.72-3c-.94-.55-1.71-.1-1.71,1A3.81,3.81,0,0,0,363.81,490.37Zm0,8.87c-.94-.55-1.71-.11-1.71,1a3.78,3.78,0,0,0,1.71,3c.95.55,1.72.11,1.72-1A3.77,3.77,0,0,0,363.81,499.24Zm-5.55,3.2c-.95-.54-1.72-.1-1.72,1a3.78,3.78,0,0,0,1.72,3c.94.55,1.71.1,1.71-1A3.81,3.81,0,0,0,358.26,502.44Zm0,12.83c-.95-.55-1.72-.1-1.72,1a3.8,3.8,0,0,0,1.72,3c.94.54,1.71.1,1.71-1A3.8,3.8,0,0,0,358.26,515.27Zm5.55-3.21c-.94-.54-1.71-.1-1.71,1a3.8,3.8,0,0,0,1.71,3c.95.55,1.72.1,1.72-1A3.8,3.8,0,0,0,363.81,512.06Z"></path><polygon fill="#00b6bf" points="382.95 492.59 373.47 487.12 373.47 533.28 382.95 538.75 382.95 492.59"></polygon><polygon points="348.18 477.1 408.25 511.78 408.25 509.04 348.18 474.37 348.18 477.1" style="mix-blend-mode:multiply" fill="#c4cae9"></polygon><polygon fill="#423eaf" points="408.25 509.04 344.97 472.51 344.97 452.74 408.25 489.28 408.25 509.04"></polygon><path fill="#362e94" d="M348.84,456.66c-.94-.54-1.71-.1-1.71,1a3.78,3.78,0,0,0,1.71,3c1,.55,1.72.11,1.72-1A3.8,3.8,0,0,0,348.84,456.66ZM360,467c.95.54,1.72.1,1.72-1a3.77,3.77,0,0,0-1.72-3c-.94-.55-1.71-.11-1.71,1A3.81,3.81,0,0,0,360,467Zm11.11,2.45c-.94-.55-1.71-.1-1.71,1a3.81,3.81,0,0,0,1.71,3c.95.55,1.71.1,1.71-1A3.79,3.79,0,0,0,371.06,469.49Zm11.11,6.41c-.95-.54-1.71-.1-1.71,1a3.76,3.76,0,0,0,1.71,3c.95.55,1.71.11,1.71-1A3.79,3.79,0,0,0,382.17,475.9Zm11.11,10.38c.94.54,1.71.1,1.71-1a3.78,3.78,0,0,0-1.71-3c-.95-.55-1.72-.11-1.72,1A3.8,3.8,0,0,0,393.28,486.28Zm11.1,6.41c.95.55,1.72.1,1.72-1a3.8,3.8,0,0,0-1.72-3c-.94-.55-1.71-.1-1.71,1A3.81,3.81,0,0,0,404.38,492.69Zm-50-26.41c-.95-.54-1.72-.1-1.72,1a3.77,3.77,0,0,0,1.72,3c1,.55,1.71.11,1.71-1A3.79,3.79,0,0,0,354.4,466.28Zm11.11,6.42c-.95-.55-1.72-.11-1.72,1a3.8,3.8,0,0,0,1.72,3c.94.54,1.71.1,1.71-1A3.78,3.78,0,0,0,365.51,472.7Zm11.11,6.41c-.95-.55-1.72-.1-1.72,1a3.8,3.8,0,0,0,1.72,3c.94.55,1.71.1,1.71-1A3.81,3.81,0,0,0,376.62,479.11Zm11.1,6.41c-.94-.54-1.71-.1-1.71,1a3.78,3.78,0,0,0,1.71,3c.95.55,1.72.11,1.72-1A3.8,3.8,0,0,0,387.72,485.52Zm11.11,6.42c-.94-.55-1.71-.11-1.71,1a3.81,3.81,0,0,0,1.71,3c.95.54,1.72.1,1.72-1A3.77,3.77,0,0,0,398.83,491.94Zm-50-22.45c-.94-.55-1.71-.1-1.71,1a3.81,3.81,0,0,0,1.71,3c1,.54,1.72.1,1.72-1A3.8,3.8,0,0,0,348.84,469.49ZM360,475.9c-.94-.54-1.71-.1-1.71,1a3.78,3.78,0,0,0,1.71,3c.95.55,1.72.1,1.72-1A3.8,3.8,0,0,0,360,475.9Zm11.11,6.42c-.94-.55-1.71-.11-1.71,1a3.81,3.81,0,0,0,1.71,3c.95.54,1.71.1,1.71-1A3.76,3.76,0,0,0,371.06,482.32Zm11.11,6.41c-.95-.55-1.71-.1-1.71,1a3.79,3.79,0,0,0,1.71,3c.95.55,1.71.1,1.71-1A3.79,3.79,0,0,0,382.17,488.73Zm11.11,6.41c-.95-.54-1.72-.1-1.72,1a3.77,3.77,0,0,0,1.72,3c.94.55,1.71.11,1.71-1A3.81,3.81,0,0,0,393.28,495.14Zm11.1,6.42c-.94-.55-1.71-.11-1.71,1a3.81,3.81,0,0,0,1.71,3c.95.54,1.72.1,1.72-1A3.77,3.77,0,0,0,404.38,501.56Z"></path><polygon fill="#00d6dc" points="381.35 473.74 371.87 468.28 371.87 488.04 381.35 493.51 381.35 473.74"></polygon><polygon fill="#362e94" points="408.25 553.36 468.31 518.68 468.31 472.51 408.25 507.19 408.25 553.36"></polygon><path fill="#20196f" d="M423.19,537.48c0,1.09.77,1.53,1.72,1a3.81,3.81,0,0,0,1.71-3c0-1.09-.77-1.54-1.71-1A3.78,3.78,0,0,0,423.19,537.48Zm0-25.66c0,1.1.77,1.54,1.72,1a3.78,3.78,0,0,0,1.71-3c0-1.1-.77-1.54-1.71-1A3.76,3.76,0,0,0,423.19,511.82Zm-2.12-5.18c0-1.09-.77-1.54-1.72-1a3.8,3.8,0,0,0-1.71,3c0,1.09.77,1.53,1.71,1A3.8,3.8,0,0,0,421.07,506.64Zm7.68,8.39c0,1.09.77,1.54,1.71,1a3.78,3.78,0,0,0,1.72-3c0-1.09-.77-1.53-1.72-1A3.81,3.81,0,0,0,428.75,515Zm-5.56,9.62c0,1.09.77,1.54,1.72,1a3.81,3.81,0,0,0,1.71-3c0-1.09-.77-1.53-1.71-1A3.8,3.8,0,0,0,423.19,524.65Zm11.11-6.41c0,1.09.77,1.53,1.72,1a3.81,3.81,0,0,0,1.71-3c0-1.09-.77-1.54-1.71-1A3.78,3.78,0,0,0,434.3,518.24Zm0,12.82c0,1.1.77,1.54,1.72,1a3.78,3.78,0,0,0,1.71-3c0-1.1-.77-1.54-1.71-1A3.76,3.76,0,0,0,434.3,531.06Zm-5.55-3.2c0,1.09.77,1.53,1.71,1a3.8,3.8,0,0,0,1.72-3c0-1.09-.77-1.54-1.72-1A3.8,3.8,0,0,0,428.75,527.86Zm0-25.65c0,1.09.77,1.53,1.71,1a3.8,3.8,0,0,0,1.72-3c0-1.1-.77-1.54-1.72-1A3.78,3.78,0,0,0,428.75,502.21Zm-20.5,22.68h0v4h0a3.81,3.81,0,0,0,1.71-3C410,524.79,409.19,524.34,408.25,524.89Zm26.05-19.48c0,1.09.77,1.54,1.72,1a3.8,3.8,0,0,0,1.71-3c0-1.09-.77-1.53-1.71-1A3.8,3.8,0,0,0,434.3,505.41Zm-26.05,6.65v4h0a3.8,3.8,0,0,0,1.71-3c0-1.09-.77-1.53-1.71-1Zm53.82,9.38a1.63,1.63,0,0,0,.17.75l3.09-1.79a2.82,2.82,0,0,0,.17-.93c0-1.1-.77-1.54-1.71-1A3.76,3.76,0,0,0,462.07,521.44Zm-53.82,16.28h0v3.95h0a3.78,3.78,0,0,0,1.71-3C410,537.61,409.19,537.17,408.25,537.72Zm3.84-19.48c0,1.09.76,1.53,1.71,1a3.79,3.79,0,0,0,1.71-3c0-1.09-.76-1.54-1.71-1A3.79,3.79,0,0,0,412.09,518.24Zm5.55,16c0,1.09.77,1.54,1.71,1a3.78,3.78,0,0,0,1.72-3c0-1.09-.77-1.53-1.72-1A3.81,3.81,0,0,0,417.64,534.27Zm0-12.83c0,1.1.77,1.54,1.71,1a3.76,3.76,0,0,0,1.72-3c0-1.1-.77-1.54-1.72-1A3.78,3.78,0,0,0,417.64,521.44Zm-5.55,9.62c0,1.1.76,1.54,1.71,1a3.75,3.75,0,0,0,1.71-3c0-1.1-.76-1.54-1.71-1A3.75,3.75,0,0,0,412.09,531.06Zm0,12.83c0,1.09.76,1.54,1.71,1a3.79,3.79,0,0,0,1.71-3c0-1.09-.76-1.53-1.71-1A3.79,3.79,0,0,0,412.09,543.89Zm27.77-48.1c0,1.09.76,1.54,1.71,1a3.77,3.77,0,0,0,1.71-3c0-1.09-.76-1.53-1.71-1A3.79,3.79,0,0,0,439.86,495.79ZM451,527.86a1.59,1.59,0,0,0,.17.74l3.09-1.79a2.82,2.82,0,0,0,.17-.93c0-1.09-.77-1.54-1.71-1A3.78,3.78,0,0,0,451,527.86Zm11.11-19.24c0,1.09.77,1.53,1.72,1a3.81,3.81,0,0,0,1.71-3c0-1.09-.77-1.54-1.71-1A3.78,3.78,0,0,0,462.07,508.62Zm0-25.66c0,1.1.77,1.54,1.72,1a3.78,3.78,0,0,0,1.71-3c0-1.1-.77-1.54-1.71-1A3.76,3.76,0,0,0,462.07,483Zm0,12.83c0,1.09.77,1.54,1.72,1a3.8,3.8,0,0,0,1.71-3c0-1.09-.77-1.53-1.71-1A3.8,3.8,0,0,0,462.07,495.79Zm-5.55-3.2c0,1.09.77,1.53,1.71,1a3.76,3.76,0,0,0,1.72-3c0-1.1-.77-1.54-1.72-1A3.78,3.78,0,0,0,456.52,492.59ZM417.64,547.1a1.5,1.5,0,0,0,.17.74l3.09-1.79a3.1,3.1,0,0,0,.17-.93c0-1.09-.77-1.54-1.72-1A3.81,3.81,0,0,0,417.64,547.1Zm22.22-12.83a1.59,1.59,0,0,0,.16.74l3.1-1.78a3.2,3.2,0,0,0,.16-.94c0-1.09-.76-1.53-1.71-1A3.79,3.79,0,0,0,439.86,534.27Zm-31.61,16.27h0v2.82l1.54-.89a2.92,2.92,0,0,0,.17-.94C410,550.44,409.19,550,408.25,550.54Zm20.5-9.85a1.5,1.5,0,0,0,.17.74l3.09-1.79a3.16,3.16,0,0,0,.17-.93c0-1.1-.77-1.54-1.72-1A3.78,3.78,0,0,0,428.75,540.69Zm11.11-19.25c0,1.1.76,1.54,1.71,1a3.75,3.75,0,0,0,1.71-3c0-1.1-.76-1.54-1.71-1A3.75,3.75,0,0,0,439.86,521.44Zm5.55-9.62c0,1.1.77,1.54,1.71,1a3.76,3.76,0,0,0,1.72-3c0-1.1-.77-1.54-1.72-1A3.78,3.78,0,0,0,445.41,511.82Zm0-12.82c0,1.09.77,1.53,1.71,1a3.8,3.8,0,0,0,1.72-3c0-1.09-.77-1.54-1.72-1A3.81,3.81,0,0,0,445.41,499Zm0,25.65c0,1.09.77,1.54,1.71,1a3.8,3.8,0,0,0,1.72-3c0-1.09-.77-1.53-1.72-1A3.81,3.81,0,0,0,445.41,524.65Zm-5.55-16c0,1.09.76,1.53,1.71,1a3.79,3.79,0,0,0,1.71-3c0-1.09-.76-1.54-1.71-1A3.77,3.77,0,0,0,439.86,508.62Zm14.53-21.22c0-1.09-.77-1.54-1.71-1a3.78,3.78,0,0,0-1.72,3c0,1.09.77,1.53,1.72,1A3.81,3.81,0,0,0,454.39,487.4ZM451,502.21c0,1.09.77,1.53,1.72,1a3.78,3.78,0,0,0,1.71-3c0-1.1-.77-1.54-1.71-1A3.77,3.77,0,0,0,451,502.21Zm5.56,3.2c0,1.09.77,1.54,1.71,1a3.78,3.78,0,0,0,1.72-3c0-1.09-.77-1.53-1.72-1A3.81,3.81,0,0,0,456.52,505.41Zm0,12.83c0,1.09.77,1.53,1.71,1a3.8,3.8,0,0,0,1.72-3c0-1.09-.77-1.54-1.72-1A3.8,3.8,0,0,0,456.52,518.24ZM451,515c0,1.09.77,1.54,1.72,1a3.8,3.8,0,0,0,1.71-3c0-1.09-.77-1.53-1.71-1A3.8,3.8,0,0,0,451,515Z"></path><polygon fill="#009aaa" points="433.54 492.59 443.01 487.12 443.01 533.28 433.54 538.75 433.54 492.59"></polygon><polygon points="468.31 477.1 408.25 511.78 408.25 509.04 468.31 474.37 468.31 477.1" style="mix-blend-mode:multiply" fill="#c4cae9"></polygon><polygon fill="#362e94" points="408.25 509.04 471.52 472.51 471.52 452.74 408.25 489.28 408.25 509.04"></polygon><path fill="#20196f" d="M465.93,459.63c0,1.1.77,1.54,1.71,1a3.76,3.76,0,0,0,1.72-3c0-1.1-.77-1.54-1.72-1A3.81,3.81,0,0,0,465.93,459.63Zm-7.68,4.44c0-1.1-.77-1.54-1.71-1a3.77,3.77,0,0,0-1.72,3c0,1.09.77,1.53,1.72,1A3.81,3.81,0,0,0,458.25,464.07Zm-14.53,8.39c0,1.09.76,1.54,1.71,1a3.79,3.79,0,0,0,1.71-3c0-1.09-.76-1.54-1.71-1A3.79,3.79,0,0,0,443.72,472.46Zm-11.11,6.41c0,1.1.76,1.54,1.71,1a3.76,3.76,0,0,0,1.71-3c0-1.09-.76-1.53-1.71-1A3.79,3.79,0,0,0,432.61,478.87Zm-7.68,4.44c0-1.1-.77-1.54-1.72-1a3.78,3.78,0,0,0-1.71,3c0,1.09.77,1.53,1.71,1A3.8,3.8,0,0,0,424.93,483.31Zm-11.11,6.41c0-1.09-.77-1.54-1.72-1a3.81,3.81,0,0,0-1.71,3c0,1.09.77,1.54,1.71,1A3.8,3.8,0,0,0,413.82,489.72Zm46.56-20.47c0,1.1.76,1.54,1.71,1a3.76,3.76,0,0,0,1.71-3c0-1.09-.76-1.53-1.71-1A3.79,3.79,0,0,0,460.38,469.25Zm-11.11,6.42c0,1.09.77,1.53,1.71,1a3.8,3.8,0,0,0,1.72-3c0-1.1-.77-1.54-1.72-1A3.78,3.78,0,0,0,449.27,475.67Zm-11.11,6.41c0,1.09.77,1.54,1.71,1a3.8,3.8,0,0,0,1.72-3c0-1.09-.77-1.54-1.72-1A3.81,3.81,0,0,0,438.16,482.08Zm-11.11,6.41c0,1.1.77,1.54,1.72,1a3.78,3.78,0,0,0,1.71-3c0-1.09-.77-1.53-1.71-1A3.8,3.8,0,0,0,427.05,488.49Zm-11.11,6.42c0,1.09.77,1.53,1.72,1a3.81,3.81,0,0,0,1.71-3c0-1.1-.77-1.54-1.71-1A3.77,3.77,0,0,0,415.94,494.91Zm50-22.45c0,1.09.77,1.53,1.71,1a3.8,3.8,0,0,0,1.72-3c0-1.09-.77-1.54-1.72-1A3.81,3.81,0,0,0,465.93,472.46Zm-11.11,6.41c0,1.09.77,1.54,1.72,1a3.78,3.78,0,0,0,1.71-3c0-1.09-.77-1.53-1.71-1A3.8,3.8,0,0,0,454.82,478.87Zm-11.1,6.42c0,1.09.76,1.53,1.71,1a3.79,3.79,0,0,0,1.71-3c0-1.1-.76-1.54-1.71-1A3.76,3.76,0,0,0,443.72,485.29Zm-11.11,6.41c0,1.09.76,1.54,1.71,1a3.79,3.79,0,0,0,1.71-3c0-1.09-.76-1.54-1.71-1A3.79,3.79,0,0,0,432.61,491.7Zm-11.11,6.41c0,1.1.77,1.54,1.71,1a3.77,3.77,0,0,0,1.72-3c0-1.09-.77-1.53-1.72-1A3.81,3.81,0,0,0,421.5,498.11Zm-11.11,6.42c0,1.09.77,1.53,1.71,1a3.8,3.8,0,0,0,1.72-3c0-1.1-.77-1.54-1.72-1A3.78,3.78,0,0,0,410.39,504.53Z"></path><polygon fill="#00b6bf" points="435.15 473.74 444.62 468.28 444.62 488.04 435.15 493.51 435.15 473.74"></polygon><polygon points="362.27 503.32 379.92 537 362.27 526.81 362.27 503.32" style="mix-blend-mode:multiply" fill="url(#T)"></polygon><polygon fill="#ff826a" points="306.12 470.91 362.27 503.32 295.59 541.83 239.44 509.41 306.12 470.91"></polygon><polygon fill="#ffaf6d" points="308.63 501.59 275.92 520.47 295.96 532.04 328.67 513.16 308.63 501.59"></polygon><polygon fill="#ff5a72" points="239.44 509.41 295.59 541.83 295.59 565.31 239.44 532.9 239.44 509.41"></polygon><polygon fill="#e33c5c" points="295.59 541.83 362.27 503.32 362.27 526.81 295.59 565.31 295.59 541.83"></polygon><polygon fill="#fff" points="298.1 521.74 311.89 513.77 307.44 511.2 293.64 519.17 298.1 521.74"></polygon><polygon fill="#f6f6fb" points="318.15 477.85 326.61 482.74 259.93 521.24 251.47 516.35 318.15 477.85"></polygon><polygon fill="#ced3f8" points="251.47 516.35 259.93 521.24 259.93 530.78 251.47 525.9 251.47 516.35"></polygon><path d="M226,439.8c-6.8-3.92-15.84-5.73-24.72-5.47H187.38v2.28A37.08,37.08,0,0,0,180,439.8c-12.66,7.36-12.59,19.29.15,26.65a36.94,36.94,0,0,0,7.21,3.13V472h16.7c8-.13,16-1.95,22.09-5.5C238.84,459.09,238.77,447.16,226,439.8Z" style="mix-blend-mode:multiply" fill="url(#U)"></path><path fill="url(#V)" d="M165.18,466.45c-6.42-3.7-9.62-8.56-9.61-13.42l0-11.06c0,4.86,3.19,9.71,9.6,13.42,12.75,7.36,33.35,7.36,46,0,6.29-3.66,9.44-8.44,9.46-13.23l0,11.06c0,4.79-3.16,9.57-9.45,13.23C198.52,473.81,177.92,473.81,165.18,466.45Z"></path><path fill="#f1f1f6" d="M165.2,455.39c-12.74-7.36-12.81-19.29-.15-26.65s33.27-7.36,46,0,12.81,19.29.15,26.65S178,462.75,165.2,455.39Z"></path><path fill="#bbc0e6" d="M177.22,434.05q.24-1.92,3.12-3.58a13.3,13.3,0,0,1,6.2-1.8,10.65,10.65,0,0,1,5.84,1.31q2.52,1.45,2.31,3.37t-3.12,3.6a13,13,0,0,1-6.23,1.8,10.66,10.66,0,0,1-5.84-1.33C177.83,436.45,177.06,435.33,177.22,434.05Zm7.83,2.62a9.49,9.49,0,0,0,3.77-1.3,4.61,4.61,0,0,0,2.27-2.18c.21-.71-.14-1.32-1.06-1.85a5.17,5.17,0,0,0-3.18-.58,9.08,9.08,0,0,0-3.79,1.28c-1.28.73-2,1.46-2.22,2.18s.14,1.34,1,1.84A5.21,5.21,0,0,0,185.05,436.67Zm21.18,1.58,3.28,1.9-39.5,4.3-3.28-1.9Zm-24.68,11.07c.15-1.27,1.19-2.47,3.12-3.58a13.3,13.3,0,0,1,6.2-1.8,10.53,10.53,0,0,1,5.83,1.32c1.68,1,2.45,2.09,2.3,3.38s-1.18,2.48-3.1,3.59a13.33,13.33,0,0,1-6.22,1.79,10.65,10.65,0,0,1-5.85-1.33Q181.31,451.24,181.55,449.32Zm7.83,2.61a9.27,9.27,0,0,0,3.77-1.29,4.45,4.45,0,0,0,2.23-2.18c.21-.71-.13-1.33-1-1.85a5.35,5.35,0,0,0-3.19-.6,9.42,9.42,0,0,0-3.79,1.3c-1.29.75-2,1.48-2.24,2.19s.14,1.32,1,1.84A5.28,5.28,0,0,0,189.38,451.93Z"></path><polygon points="242.38 366.13 242.38 366.13 242.38 366.13 197.25 341.26 140.42 341.26 184.53 366.72 185.56 366.13 141.45 391.6 198.27 391.6 242.38 366.13 241.36 366.72 242.38 366.13" style="mix-blend-mode:multiply" fill="url(#W)"></polygon><polygon fill="#e33c5c" points="141.45 358.79 185.56 333.32 185.56 366.13 141.45 391.6 141.45 358.79"></polygon><polygon fill="#ff826a" points="142.48 308.45 185.56 333.32 141.45 358.79 98.36 333.91 142.48 308.45"></polygon><polygon fill="#ff5a72" points="98.36 333.91 141.45 358.79 141.45 391.6 98.36 366.72 98.36 333.91"></polygon><polygon fill="#5652cc" points="127.54 372.17 109.19 361.57 109.19 354.76 127.54 365.35 127.54 372.17"></polygon><polygon fill="#f6f6fb" points="159.44 318.24 167.9 323.13 123.8 348.6 115.34 343.71 159.44 318.24"></polygon><polygon fill="#ced3f8" points="115.34 343.71 123.8 348.6 123.8 358.14 115.34 353.26 115.34 343.71"></polygon><path d="M592.17,451.73c-7.84-4.52-18.25-6.6-28.48-6.3h-16v2.63a42.4,42.4,0,0,0-8.48,3.67c-14.58,8.48-14.5,22.22.18,30.69a42.28,42.28,0,0,0,8.3,3.6v2.75h19.23c9.25-.16,18.42-2.25,25.45-6.34C606.92,474,606.85,460.21,592.17,451.73Z" style="mix-blend-mode:multiply" fill="url(#h)"></path><path fill="#ffd56e" d="M511.13,457.12c0-5.42,3.58-10.84,10.75-15s16.56-6.2,26-6.2,18.78,2.07,25.94,6.2,10.75,9.56,10.75,15-3.58,10.85-10.75,15-16.55,6.2-25.94,6.2-18.78-2.07-26-6.2S511.13,462.55,511.13,457.12Z"></path><path fill="url(#g)" d="M573.77,472.11c-7.16,4.13-16.55,6.2-25.94,6.2s-18.78-2.07-26-6.2-10.75-9.56-10.75-15v10.46c0,5.43,3.59,10.85,10.75,15s16.56,6.21,26,6.21,18.78-2.07,25.94-6.21,10.76-9.55,10.75-15V457.12C584.53,462.55,580.94,468,573.77,472.11Z"></path><path fill="#ffaf6d" d="M526.76,469.29c5.82,3.36,13.44,5,21.07,5s15.25-1.68,21.07-5c5.37-3.1,8.26-7.09,8.67-11.14-.41-4.06-3.3-8-8.67-11.15-5.82-3.36-13.45-5-21.07-5s-15.25,1.68-21.08,5c-5.37,3.1-8.25,7.09-8.66,11.14C518.5,462.2,521.38,466.19,526.76,469.29Z"></path><path fill="url(#X)" d="M526.75,447c5.83-3.36,13.45-5,21.08-5s15.25,1.68,21.07,5c5.37,3.1,8.26,7.09,8.67,11.15,0-.34.06-.68.06-1,0-4.4-2.91-8.8-8.73-12.16s-13.45-5-21.07-5-15.25,1.68-21.08,5S518,452.72,518,457.12a8.6,8.6,0,0,0,.06,1C518.5,454.09,521.38,450.1,526.75,447Z"></path><polygon fill="#e33c5c" points="562.51 452.75 565.33 451.12 565.33 449.08 562.51 450.71 562.51 452.75"></polygon><path fill="#ffd56e" d="M549.51,456.16a2.4,2.4,0,0,1,0-4.55,8.73,8.73,0,0,1,7.87,0c2.17,1.25,2.17,3.29,0,4.55l3.57,2.06c3.52-2,4-5.15,1.56-7.51l2.82-1.63L561.76,447l-2.82,1.63c-4.08-1.43-9.48-1.13-13,.9-2,1.16-3.11,2.7-3.11,4.33s1.1,3.18,3.11,4.34c2.17,1.25,2.17,3.29,0,4.54a8.72,8.72,0,0,1-7.88,0c-2.17-1.25-2.17-3.29,0-4.54l-3.56-2.06c-3.53,2-4,5.15-1.57,7.5l-2.6,1.5,3.57,2.07,2.61-1.51c4.07,1.43,9.47,1.14,13-.89C553.64,462.43,553.64,458.55,549.51,456.16Z"></path><polygon fill="#ff826a" points="530.33 467.2 533.9 469.27 533.9 467.23 530.33 465.16 530.33 467.2"></polygon><polygon fill="#e33c5c" points="533.9 469.27 536.5 467.76 536.5 465.73 533.9 467.23 533.9 469.27"></polygon><polygon fill="#ff826a" points="557.38 458.19 560.95 460.26 560.95 458.22 557.38 456.16 557.38 458.19"></polygon><path fill="#e33c5c" d="M538.06,460.26v-2c-1.53.89-2,2.17-1.33,3.29A3.52,3.52,0,0,1,538.06,460.26Z"></path><path fill="#ff826a" d="M531.4 460.39v2.29h0a3.81 3.81 0 00.44 1.61l1.08-.63a4.38 4.38 0 01-1.53-3.27zM545.94 460.26a3.52 3.52 0 011.33 1.25c.65-1.12.21-2.4-1.33-3.29-2-1.16-3.11-2.7-3.11-4.34v2C542.83 457.56 543.93 459.1 545.94 460.26z"></path><path fill="#fbba05" d="M552.61,460.48v0h0Z"></path><path fill="#e33c5c" d="M564,453.88c0,1.57-1,3.14-3.09,4.34v2c2.12-1.23,3.14-2.85,3.09-4.46h0v-1.93Z"></path><path fill="url(#Y)" d="M549.51,464.83c-3.53,2-8.93,2.32-13,.89v2c4.07,1.43,9.47,1.14,13-.89,2-1.19,3.08-2.75,3.1-4.3h0V460.5C552.61,462.06,551.57,463.63,549.51,464.83Z"></path><path fill="#e33c5c" d="M557.38,451.61a8.73,8.73,0,0,0-7.87,0,2.78,2.78,0,0,0-1.63,2.27,2,2,0,0,0,.29,1,3.63,3.63,0,0,1,1.34-1.25,8.73,8.73,0,0,1,7.87,0,3.44,3.44,0,0,1,1.33,1.25C559.36,453.78,558.92,452.5,557.38,451.61Z"></path><path d="M638.88,465.43c-6-4.52-13.91-6.61-21.7-6.3H605v2.62a29.26,29.26,0,0,0-6.47,3.68c-11.11,8.48-11.05,22.21.14,30.69a29.26,29.26,0,0,0,6.33,3.6v2.74h14.66A33.37,33.37,0,0,0,639,496.12C650.14,487.64,650.08,473.91,638.88,465.43Z" style="mix-blend-mode:multiply" fill="url(#Z)"></path><path fill="url(#aa)" d="M624,456.13a36,36,0,0,0-13.76-8.58c-8.5-3-17.77-2.77-24.59,1.19a16.91,16.91,0,0,0-7.33,8.13l-3.21,7.78a17,17,0,0,1,7.33-8.14A26.85,26.85,0,0,1,598,453.4a36.67,36.67,0,0,1,22.81,10.5c6.9,7,8.91,15.51,6.13,22.22l3.21-7.77C632.93,471.63,630.93,463.15,624,456.13Z"></path><path fill="#ffaf6d" d="M623.16,458.2c10.24,10.4,9.7,24-1.2,30.36s-28.09,3-38.33-7.39-9.71-24,1.19-30.36S612.91,447.79,623.16,458.2Z"></path><path fill="url(#ab)" d="M636.15,480.82l-3.21,7.77a20.83,20.83,0,0,1-9,10c-13.44,7.81-34.57,3.74-47.19-9.08-8.51-8.65-11-19.08-7.57-27.34h0l3.21-7.78c-3.41,8.27-.94,18.69,7.57,27.34,12.62,12.83,33.75,16.89,47.19,9.09A20.83,20.83,0,0,0,636.15,480.82Z"></path><path fill="#ffd56e" d="M628.58,453.48c12.62,12.82,12,29.55-1.47,37.36s-34.57,3.74-47.19-9.09-12-29.55,1.47-37.36S616,440.65,628.58,453.48Zm-44.1,25.62c10.24,10.4,27.44,13.72,38.34,7.38s11.44-20,1.2-30.35-27.45-13.72-38.35-7.39-11.43,19.95-1.19,30.36Z"></path><path fill="#ff826a" d="M588.55 474.17l1.48-.87a7 7 0 01-.9-6.17l-.85 2h0A6.58 6.58 0 00588.55 474.17zM601.58 470.74a4.47 4.47 0 011.4 3.13c1.29-1.35 1.13-3.49-.55-5.2a8.36 8.36 0 01-2.68-6.1 5.79 5.79 0 01.5-2.16h0l-.81 2h0a5.78 5.78 0 00-.55 2.26A8.32 8.32 0 00601.58 470.74z"></path><path fill="#e33c5c" d="M595.09 467.26a3.13 3.13 0 00-1.64 2.68 3.26 3.26 0 01.79-.61zM618.26 462.05a7.66 7.66 0 01.63 1.2l1.22-.71.86-2.07z"></path><polygon fill="#ff826a" points="613.2 468.09 612.35 470.16 615.57 473.43 616.42 471.36 613.2 468.09"></polygon><path fill="#e33c5c" d="M616.43,471.36l-.86,2.07a6.13,6.13,0,0,0,2.63-2.87h0s0,0,0,0l.85-2A6.2,6.2,0,0,1,616.43,471.36Z"></path><path fill="#ffd56e" d="M621,460.47l-2.71,1.58c2.18,3.45,1.55,7.35-1.83,9.31l-3.23-3.27c2.09-1.21,2.19-3.82.23-5.81s-5.25-2.63-7.34-1.42a3.14,3.14,0,0,0-1.64,2.62,4.42,4.42,0,0,0,1.41,3.2c3.74,3.8,3.54,8.77-.43,11.07-3.39,2-8.44,1.39-12.18-1.17l-2.5,1.45-3.22-3.27,2.5-1.46c-2.19-3.46-1.55-7.35,1.84-9.32l3.22,3.28c-2.09,1.21-2.19,3.82-.23,5.81s5.25,2.63,7.34,1.41,2.19-3.82.23-5.81a8.36,8.36,0,0,1-2.68-6.1,5.89,5.89,0,0,1,3.12-5c3.38-2,8.43-1.38,12.16,1.18l2.72-1.57Z"></path><polygon fill="#ff826a" points="587.53 474.76 586.67 476.83 589.9 480.1 590.75 478.03 587.53 474.76"></polygon><polygon fill="#e33c5c" points="590.75 478.03 589.9 480.1 592.4 478.65 593.25 476.58 590.75 478.03"></polygon><path fill="url(#ac)" d="M607.56,475.77h0a6.12,6.12,0,0,1-.5.64,6.49,6.49,0,0,1-1.63,1.33c-3.39,2-8.44,1.39-12.18-1.17l-.85,2.07c3.73,2.56,8.78,3.14,12.17,1.18a6.19,6.19,0,0,0,2.52-2.67h0l.88-2.12A5.2,5.2,0,0,1,607.56,475.77Z"></path><path fill="#e33c5c" d="M614,467.47c1.28-1.35,1.11-3.49-.56-5.19-2-2-5.25-2.63-7.34-1.42a3.14,3.14,0,0,0-1.64,2.62.16.16,0,0,1,0,.07,4.34,4.34,0,0,1,.78-.62c2.09-1.21,5.38-.58,7.35,1.42a4.44,4.44,0,0,1,1.39,3Z"></path><path d="M103.37,413.48C99,411,93.26,409.83,87.6,410H74.46v1.46a23.47,23.47,0,0,0-4.7,2c-8.08,4.7-8,12.32.1,17a23.59,23.59,0,0,0,4.6,2V434h14.9a29.75,29.75,0,0,0,14.11-3.51C111.54,425.8,111.5,418.18,103.37,413.48Z" style="mix-blend-mode:multiply" fill="url(#ad)"></path><path fill="url(#j)" d="M60.71,422.56c-4.09-2.36-6.14-5.46-6.13-8.56l0-4c0,3.1,2,6.2,6.12,8.56,8.14,4.7,21.28,4.7,29.36,0,4-2.33,6-5.38,6-8.44l0,4c0,3.06-2,6.11-6,8.45C82,427.26,68.84,427.26,60.71,422.56Z"></path><path fill="url(#ae)" d="M60.71,426.53c-4.09-2.36-6.14-5.47-6.13-8.56l0-4c0,3.1,2,6.2,6.12,8.56,8.14,4.7,21.28,4.7,29.36,0,4-2.34,6-5.39,6-8.45l0,4c0,3.06-2,6.11-6,8.44C82,431.23,68.84,431.23,60.71,426.53Z"></path><path fill="url(#af)" d="M60.71,430.5c-4.09-2.37-6.14-5.47-6.13-8.57l0-4c0,3.1,2,6.2,6.12,8.56,8.14,4.7,21.28,4.7,29.36,0,4-2.33,6-5.38,6-8.44l0,4c0,3.06-2,6.11-6,8.45C82,435.2,68.84,435.2,60.71,430.5Z"></path><path fill="#f1f1f6" d="M60.72,418.6c-8.13-4.69-8.17-12.31-.09-17s21.23-4.7,29.36,0,8.17,12.31.09,17S68.86,423.3,60.72,418.6Z"></path><polygon fill="#d1d7f3" points="72.38 412.26 65.88 411.09 71.43 408.82 71.35 404.9 76.8 407.25 83.24 405.99 81.05 409.7 85.12 412.85 78.32 412.8 74.39 416 72.38 412.26"></polygon></g></g></g></svg>