<svg xmlns="http://www.w3.org/2000/svg" viewBox="0 0 32 32" id="Profit"><path d="M4,19v6a5,5,0,0,0,5,5H23a5,5,0,0,0,5-5V19a5,5,0,0,0-5-5H9A5,5,0,0,0,4,19Zm22,0v6a3,3,0,0,1-3,3H9a3,3,0,0,1-3-3V19a3,3,0,0,1,3-3H23A3,3,0,0,1,26,19Z" fill="#64748b" class="color000000 svgShape"></path><path d="M16 26a4 4 0 1 0-4-4A4 4 0 0 0 16 26zm0-6a2 2 0 1 1-2 2A2 2 0 0 1 16 20zM16.71 2.29a1 1 0 0 0-1.42 0L11.05 6.54A1 1 0 0 0 12.46 8L15 5.41V11a1 1 0 0 0 2 0V5.41L19.54 8a1 1 0 0 0 .7.29A1 1 0 0 0 21 8a1 1 0 0 0 0-1.41z" fill="#64748b" class="color000000 svgShape"></path></svg>