<svg xmlns="http://www.w3.org/2000/svg" viewBox="0 0 32 32" id="Income"><path d="M9,30H23a5,5,0,0,0,5-5V19a5,5,0,0,0-5-5H9a5,5,0,0,0-5,5v6A5,5,0,0,0,9,30ZM6,19a3,3,0,0,1,3-3H23a3,3,0,0,1,3,3v6a3,3,0,0,1-3,3H9a3,3,0,0,1-3-3Z" fill="#06b6d4" class="color000000 svgShape"></path><path d="M16 26a4 4 0 1 0-4-4A4 4 0 0 0 16 26zm0-6a2 2 0 1 1-2 2A2 2 0 0 1 16 20zM16 2a1 1 0 0 0-1 1V8.59L12.46 6.05a1 1 0 0 0-1.41 1.41l4.24 4.25a1 1 0 0 0 .32.21 1 1 0 0 0 .78 0 1 1 0 0 0 .32-.21L21 7.46a1 1 0 0 0-1.41-1.41L17 8.59V3A1 1 0 0 0 16 2z" fill="#06b6d4" class="color000000 svgShape"></path></svg>