<svg xmlns="http://www.w3.org/2000/svg" viewBox="0 0 25 25" id="Expense"><g fill="#000000" class="color000000 svgShape"><path fill="#3897ad" d="M10.5,6a.47.47,0,0,1-.35-.15.48.48,0,0,1,0-.7l2-2a.49.49,0,0,1,.7.7l-2,2A.47.47,0,0,1,10.5,6Z" class="color172f35 svgShape"></path><path fill="#3897ad" d="M14.5,6a.47.47,0,0,1-.35-.15l-2-2a.49.49,0,0,1,.7-.7l2,2a.48.48,0,0,1,0,.7A.47.47,0,0,1,14.5,6Z" class="color172f35 svgShape"></path><path fill="#d5f9ff" d="M12.5,18.5a2,2,0,1,0-2-2A2,2,0,0,0,12.5,18.5Zm9-7v10H3.5v-10Z" class="colorffffff svgShape"></path><circle cx="12.5" cy="16.5" r="2" fill="#9cd3db" class="color74e8d5 svgShape"></circle><path fill="#3897ad" d="M21.5,22H3.5a.5.5,0,0,1-.5-.5v-10a.5.5,0,0,1,.5-.5h18a.5.5,0,0,1,.5.5v10A.5.5,0,0,1,21.5,22ZM4,21H21V12H4Z" class="color172f35 svgShape"></path><path fill="#3897ad" d="M12.5 19A2.5 2.5 0 1 1 15 16.5 2.5 2.5 0 0 1 12.5 19zm0-4A1.5 1.5 0 1 0 14 16.5 1.5 1.5 0 0 0 12.5 15zM18.5 17h-1a.5.5 0 0 1 0-1h1a.5.5 0 0 1 0 1zM7.5 17h-1a.5.5 0 0 1 0-1h1a.5.5 0 0 1 0 1zM12.5 10a.5.5 0 0 1-.5-.5v-6a.5.5 0 0 1 1 0v6A.5.5 0 0 1 12.5 10z" class="color172f35 svgShape"></path></g></svg>