<svg fill="currentColor" height="179px" width="179px" version="1.1" id="Layer_1" xmlns="http://www.w3.org/2000/svg" xmlns:xlink="http://www.w3.org/1999/xlink" viewBox="0 0 512 512" xml:space="preserve"><g id="SVGRepo_bgCarrier" stroke-width="0"></g><g id="SVGRepo_tracerCarrier" stroke-linecap="round" stroke-linejoin="round" stroke="#CCCCCC" stroke-width="13.312000000000001"></g><g id="SVGRepo_iconCarrier"> <g> <g> <path d="M133.565,278.261h-22.261c-3.073,0-5.565,2.492-5.565,5.565v22.261c0,3.073,2.492,5.565,5.565,5.565h22.261 c3.073,0,5.565-2.492,5.565-5.565v-22.261C139.13,280.753,136.638,278.261,133.565,278.261z"></path> </g> </g> <g> <g> <path d="M200.348,278.261h-22.261c-3.073,0-5.565,2.492-5.565,5.565v22.261c0,3.073,2.492,5.565,5.565,5.565h22.261 c3.073,0,5.565-2.492,5.565-5.565v-22.261C205.913,280.753,203.421,278.261,200.348,278.261z"></path> </g> </g> <g> <g> <path d="M267.13,278.261H244.87c-3.073,0-5.565,2.492-5.565,5.565v22.261c0,3.073,2.492,5.565,5.565,5.565h22.261 c3.073,0,5.565-2.492,5.565-5.565v-22.261C272.696,280.753,270.204,278.261,267.13,278.261z"></path> </g> </g> <g> <g> <path d="M333.913,278.261h-22.261c-3.073,0-5.565,2.492-5.565,5.565v22.261c0,3.073,2.492,5.565,5.565,5.565h22.261 c3.073,0,5.565-2.492,5.565-5.565v-22.261C339.478,280.753,336.986,278.261,333.913,278.261z"></path> </g> </g> <g> <g> <path d="M400.696,278.261h-22.261c-3.073,0-5.565,2.492-5.565,5.565v22.261c0,3.073,2.492,5.565,5.565,5.565h22.261 c3.073,0,5.565-2.492,5.565-5.565v-22.261C406.261,280.753,403.769,278.261,400.696,278.261z"></path> </g> </g> <g> <g> <path d="M133.565,345.043h-22.261c-3.073,0-5.565,2.492-5.565,5.565v22.261c0,3.073,2.492,5.565,5.565,5.565h22.261 c3.073,0,5.565-2.492,5.565-5.565v-22.261C139.13,347.536,136.638,345.043,133.565,345.043z"></path> </g> </g> <g> <g> <path d="M200.348,345.043h-22.261c-3.073,0-5.565,2.492-5.565,5.565v22.261c0,3.073,2.492,5.565,5.565,5.565h22.261 c3.073,0,5.565-2.492,5.565-5.565v-22.261C205.913,347.536,203.421,345.043,200.348,345.043z"></path> </g> </g> <g> <g> <path d="M267.13,345.043H244.87c-3.073,0-5.565,2.492-5.565,5.565v22.261c0,3.073,2.492,5.565,5.565,5.565h22.261 c3.073,0,5.565-2.492,5.565-5.565v-22.261C272.696,347.536,270.204,345.043,267.13,345.043z"></path> </g> </g> <g> <g> <path d="M333.913,345.043h-22.261c-3.073,0-5.565,2.492-5.565,5.565v22.261c0,3.073,2.492,5.565,5.565,5.565h22.261 c3.073,0,5.565-2.492,5.565-5.565v-22.261C339.478,347.536,336.986,345.043,333.913,345.043z"></path> </g> </g> <g> <g> <path d="M400.696,345.043h-22.261c-3.073,0-5.565,2.492-5.565,5.565v22.261c0,3.073,2.492,5.565,5.565,5.565h22.261 c3.073,0,5.565-2.492,5.565-5.565v-22.261C406.261,347.536,403.769,345.043,400.696,345.043z"></path> </g> </g> <g> <g> <path d="M484.174,411.826h-5.565v-116.87c0-40.313-28.725-74.042-66.783-81.799v-62.897c0-9.22-7.475-16.696-16.696-16.696 H217.043v-33.391h66.783c9.22,0,16.696-7.475,16.696-16.696V16.696c0-9.22-7.475-16.696-16.696-16.696H116.87 c-9.22,0-16.696,7.475-16.696,16.696v66.783c0,9.22,7.475,16.696,16.696,16.696h66.783v33.391H116.87 c-9.22,0-16.696,7.475-16.696,16.696v62.897c-38.057,7.757-66.783,41.485-66.783,81.799v116.87h-5.565 C12.483,411.826,0,424.309,0,439.652v44.522C0,499.517,12.483,512,27.826,512h456.348C499.517,512,512,499.517,512,484.174 v-44.522C512,424.309,499.517,411.826,484.174,411.826z M133.565,66.783V33.391H267.13v33.391H133.565z M133.565,166.957h244.87 v44.522h-244.87V166.957z M66.783,294.957c0-27.618,22.469-50.087,50.087-50.087H395.13c27.618,0,50.087,22.469,50.087,50.087 v116.87H66.783V294.957z M478.609,478.609H33.391v-33.391c11.558,0,433.753,0,445.217,0V478.609z"></path> </g> </g> </g></svg>