<svg xmlns="http://www.w3.org/2000/svg" viewBox="0 0 24 24" id="Store"><path fill="#3897ad" d="M22.998 8.516 23 8.5h-.005a.49.49 0 0 0-.048-.224L21 4.382V3c0-1.103-.897-2-2-2H5c-1.103 0-2 .897-2 2v1.384c-.68 1.389-1.741 3.537-1.903 3.82A.497.497 0 0 0 1 8.5c0 1.391.822 2.585 2 3.149V21c0 1.103.897 2 2 2h14c1.103 0 2-.897 2-2v-9.351a3.495 3.495 0 0 0 1.997-3.118l.001-.015z" class="color303c42 svgShape"></path><path fill="#2fb4d3" d="M16.806 10.427A2.502 2.502 0 0 1 14.5 12a2.486 2.486 0 0 1-2-1.024V9h4.306v1.427z" class="colord32f2f svgShape"></path><path fill="#d5f9ff" d="M11.5 5v3H7.305l.604-3z" class="colorf2f2f2 svgShape"></path><path fill="#35c4e5" d="m16.092 5 .612 3H12.5V5z" class="colore53935 svgShape"></path><path fill="#d5f9ff" d="M7.193 10.426 7.186 9H11.5v1.976A2.486 2.486 0 0 1 9.5 12a2.502 2.502 0 0 1-2.307-1.574zM17.716 8l-.605-3h3.08l1.5 3z" class="colorf2f2f2 svgShape"></path><path fill="#35c4e5" d="M5 2h14c.551 0 1 .449 1 1v1H4V3c0-.551.449-1 1-1zM3.812 5h3.079l-.598 3h-3.97c.306-.587.764-1.52 1.489-3z" class="colore53935 svgShape"></path><path fill="#2fb4d3" d="M2.051 9h4.143v1.311A2.457 2.457 0 0 1 4.5 11a2.503 2.503 0 0 1-2.449-2z" class="colord32f2f svgShape"></path><path fill="#9cd3db" d="M20 21c0 .551-.449 1-1 1h-1v-7.5a.5.5 0 0 0-.5-.5h-5a.5.5 0 0 0-.5.5V22H5c-.551 0-1-.449-1-1v-9.051c.165.024.329.051.5.051a3.44 3.44 0 0 0 2.035-.659A3.505 3.505 0 0 0 9.5 13c.952 0 1.848-.385 2.5-1.053A3.488 3.488 0 0 0 14.5 13a3.505 3.505 0 0 0 2.965-1.659A3.44 3.44 0 0 0 19.5 12c.171 0 .335-.027.5-.051V21z" class="colorcccccc svgShape"></path><path d="M19.5 12a3.44 3.44 0 0 1-2.035-.659A3.505 3.505 0 0 1 14.5 13a3.488 3.488 0 0 1-2.5-1.053A3.488 3.488 0 0 1 9.5 13a3.505 3.505 0 0 1-2.965-1.659A3.44 3.44 0 0 1 4.5 12c-.171 0-.335-.027-.5-.051v.659c.165.024.329.051.5.051A3.44 3.44 0 0 0 6.535 12 3.507 3.507 0 0 0 9.5 13.659c.952 0 1.848-.385 2.5-1.053a3.488 3.488 0 0 0 2.5 1.053A3.505 3.505 0 0 0 17.465 12c.59.429 1.293.659 2.035.659.171 0 .335-.027.5-.051v-.659c-.165.024-.329.051-.5.051z" opacity=".1" fill="#000000" class="color000000 svgShape"></path><path fill="#fafafa" d="M13 15h4v7h-4z" class="colorfafafa svgShape"></path><path fill="#d5f9ff" d="M19.5 11c-.637 0-1.228-.25-1.695-.69L17.799 9h4.15a2.503 2.503 0 0 1-2.449 2z" class="colorf2f2f2 svgShape"></path><path fill="#3897ad" d="M10.5 14h-4a.5.5 0 0 0-.5.5v4a.5.5 0 0 0 .5.5h4a.5.5 0 0 0 .5-.5v-4a.5.5 0 0 0-.5-.5z" class="color303c42 svgShape"></path><path fill="#fafafa" d="M7 15h3v3H7z" class="colorfafafa svgShape"></path><linearGradient id="a" x1="8.507" x2="13" y1="16.506" y2="21" gradientUnits="userSpaceOnUse"><stop offset="0" stop-opacity=".1"></stop><stop offset="1" stop-opacity="0"></stop></linearGradient><path fill="url(#a)" d="M10.866 14.16v.003c.081.09.134.206.134.337v4a.5.5 0 0 1-.5.5h-4a.5.5 0 0 1-.346-.141L9.295 22H12v-6.705l-1.134-1.135z"></path><linearGradient id="b" x1="15.938" x2="20.633" y1="16.086" y2="20.781" gradientUnits="userSpaceOnUse"><stop offset="0" stop-opacity=".1"></stop><stop offset="1" stop-opacity="0"></stop></linearGradient><path fill="url(#b)" d="M17.864 14.16a.5.5 0 0 1 .136.34V22h1c.551 0 1-.449 1-1v-4.704l-2.136-2.136z"></path><linearGradient id="c" x1=".991" x2="23.009" y1="6.866" y2="17.134" gradientUnits="userSpaceOnUse"><stop offset="0" stop-color="#ffffff" stop-opacity=".2" class="stopColorffffff svgShape"></stop><stop offset="1" stop-color="#ffffff" stop-opacity="0" class="stopColorffffff svgShape"></stop></linearGradient><path fill="url(#c)" d="M22.998 8.516 23 8.5h-.005a.49.49 0 0 0-.048-.224L21 4.382V3c0-1.103-.897-2-2-2H5c-1.103 0-2 .897-2 2v1.384c-.68 1.389-1.741 3.537-1.903 3.82A.497.497 0 0 0 1 8.5c0 1.391.822 2.585 2 3.149V21c0 1.103.897 2 2 2h14c1.103 0 2-.897 2-2v-9.351a3.495 3.495 0 0 0 1.997-3.118l.001-.015z"></path></svg>