<svg xmlns="http://www.w3.org/2000/svg" version="1.1" xmlns:xlink="http://www.w3.org/1999/xlink" xmlns:svgjs="http://svgjs.com/svgjs" width="1440" height="720" preserveAspectRatio="none" viewBox="0 0 1440 720"><g mask="url(&quot;#SvgjsMask3361&quot;)" fill="none"><rect width="1440" height="720" x="0" y="0" fill="url(#SvgjsLinearGradient3362)"></rect><use xlink:href="#SvgjsSymbol3369" x="0" y="0"></use><use xlink:href="#SvgjsSymbol3369" x="720" y="0"></use></g><defs><mask id="SvgjsMask3361"><rect width="1440" height="720" fill="#ffffff"></rect></mask><linearGradient x1="87.5%" y1="125%" x2="12.5%" y2="-25%" gradientUnits="userSpaceOnUse" id="SvgjsLinearGradient3362"><stop stop-color="rgba(0, 99, 202, 1)" offset="0"></stop><stop stop-color="rgba(24, 144, 255, 1)" offset="1"></stop></linearGradient><path d="M-1 0 a1 1 0 1 0 2 0 a1 1 0 1 0 -2 0z" id="SvgjsPath3367"></path><path d="M-3 0 a3 3 0 1 0 6 0 a3 3 0 1 0 -6 0z" id="SvgjsPath3366"></path><path d="M-5 0 a5 5 0 1 0 10 0 a5 5 0 1 0 -10 0z" id="SvgjsPath3363"></path><path d="M2 -2 L-2 2z" id="SvgjsPath3368"></path><path d="M6 -6 L-6 6z" id="SvgjsPath3365"></path><path d="M30 -30 L-30 30z" id="SvgjsPath3364"></path></defs><symbol id="SvgjsSymbol3369"><use xlink:href="#SvgjsPath3363" x="30" y="30" stroke="rgba(195, 226, 255, 1)"></use><use xlink:href="#SvgjsPath3363" x="30" y="90" stroke="rgba(195, 226, 255, 1)"></use><use xlink:href="#SvgjsPath3363" x="30" y="150" stroke="rgba(195, 226, 255, 1)"></use><use xlink:href="#SvgjsPath3363" x="30" y="210" stroke="rgba(195, 226, 255, 1)"></use><use xlink:href="#SvgjsPath3363" x="30" y="270" stroke="rgba(195, 226, 255, 1)"></use><use xlink:href="#SvgjsPath3364" x="30" y="330" stroke="rgba(195, 226, 255, 1)" stroke-width="3"></use><use xlink:href="#SvgjsPath3365" x="30" y="390" stroke="rgba(195, 226, 255, 1)"></use><use xlink:href="#SvgjsPath3363" x="30" y="450" stroke="rgba(195, 226, 255, 1)"></use><use xlink:href="#SvgjsPath3363" x="30" y="510" stroke="rgba(195, 226, 255, 1)"></use><use xlink:href="#SvgjsPath3366" x="30" y="570" stroke="rgba(195, 226, 255, 1)"></use><use xlink:href="#SvgjsPath3367" x="30" y="630" stroke="rgba(195, 226, 255, 1)"></use><use xlink:href="#SvgjsPath3367" x="30" y="690" stroke="rgba(195, 226, 255, 1)"></use><use xlink:href="#SvgjsPath3365" x="90" y="30" stroke="rgba(195, 226, 255, 1)"></use><use xlink:href="#SvgjsPath3367" x="90" y="90" stroke="rgba(195, 226, 255, 1)"></use><use xlink:href="#SvgjsPath3364" x="90" y="150" stroke="rgba(195, 226, 255, 1)" stroke-width="3"></use><use xlink:href="#SvgjsPath3363" x="90" y="210" stroke="rgba(195, 226, 255, 1)"></use><use xlink:href="#SvgjsPath3363" x="90" y="270" stroke="rgba(195, 226, 255, 1)"></use><use xlink:href="#SvgjsPath3363" x="90" y="330" stroke="rgba(195, 226, 255, 1)"></use><use xlink:href="#SvgjsPath3363" x="90" y="390" stroke="rgba(195, 226, 255, 1)"></use><use xlink:href="#SvgjsPath3363" x="90" y="450" stroke="rgba(195, 226, 255, 1)"></use><use xlink:href="#SvgjsPath3367" x="90" y="510" stroke="rgba(195, 226, 255, 1)"></use><use xlink:href="#SvgjsPath3368" x="90" y="570" stroke="rgba(195, 226, 255, 1)"></use><use xlink:href="#SvgjsPath3366" x="90" y="630" stroke="rgba(195, 226, 255, 1)"></use><use xlink:href="#SvgjsPath3365" x="90" y="690" stroke="rgba(195, 226, 255, 1)"></use><use xlink:href="#SvgjsPath3363" x="150" y="30" stroke="rgba(195, 226, 255, 1)"></use><use xlink:href="#SvgjsPath3368" x="150" y="90" stroke="rgba(195, 226, 255, 1)"></use><use xlink:href="#SvgjsPath3365" x="150" y="150" stroke="rgba(195, 226, 255, 1)"></use><use xlink:href="#SvgjsPath3365" x="150" y="210" stroke="rgba(195, 226, 255, 1)"></use><use xlink:href="#SvgjsPath3368" x="150" y="270" stroke="rgba(195, 226, 255, 1)"></use><use xlink:href="#SvgjsPath3367" x="150" y="330" stroke="rgba(195, 226, 255, 1)"></use><use xlink:href="#SvgjsPath3367" x="150" y="390" stroke="rgba(195, 226, 255, 1)"></use><use xlink:href="#SvgjsPath3363" x="150" y="450" stroke="rgba(195, 226, 255, 1)"></use><use xlink:href="#SvgjsPath3366" x="150" y="510" stroke="rgba(195, 226, 255, 1)"></use><use xlink:href="#SvgjsPath3365" x="150" y="570" stroke="rgba(195, 226, 255, 1)"></use><use xlink:href="#SvgjsPath3365" x="150" y="630" stroke="rgba(195, 226, 255, 1)"></use><use xlink:href="#SvgjsPath3367" x="150" y="690" stroke="rgba(195, 226, 255, 1)"></use><use xlink:href="#SvgjsPath3365" x="210" y="30" stroke="rgba(195, 226, 255, 1)"></use><use xlink:href="#SvgjsPath3363" x="210" y="90" stroke="rgba(195, 226, 255, 1)"></use><use xlink:href="#SvgjsPath3363" x="210" y="150" stroke="rgba(195, 226, 255, 1)"></use><use xlink:href="#SvgjsPath3363" x="210" y="210" stroke="rgba(195, 226, 255, 1)"></use><use xlink:href="#SvgjsPath3367" x="210" y="270" stroke="rgba(195, 226, 255, 1)"></use><use xlink:href="#SvgjsPath3364" x="210" y="330" stroke="rgba(195, 226, 255, 1)" stroke-width="3"></use><use xlink:href="#SvgjsPath3365" x="210" y="390" stroke="rgba(195, 226, 255, 1)"></use><use xlink:href="#SvgjsPath3365" x="210" y="450" stroke="rgba(195, 226, 255, 1)"></use><use xlink:href="#SvgjsPath3363" x="210" y="510" stroke="rgba(195, 226, 255, 1)"></use><use xlink:href="#SvgjsPath3368" x="210" y="570" stroke="rgba(195, 226, 255, 1)"></use><use xlink:href="#SvgjsPath3365" x="210" y="630" stroke="rgba(195, 226, 255, 1)"></use><use xlink:href="#SvgjsPath3363" x="210" y="690" stroke="rgba(195, 226, 255, 1)"></use><use xlink:href="#SvgjsPath3363" x="270" y="30" stroke="rgba(195, 226, 255, 1)"></use><use xlink:href="#SvgjsPath3365" x="270" y="90" stroke="rgba(195, 226, 255, 1)"></use><use xlink:href="#SvgjsPath3366" x="270" y="150" stroke="rgba(195, 226, 255, 1)"></use><use xlink:href="#SvgjsPath3365" x="270" y="210" stroke="rgba(195, 226, 255, 1)"></use><use xlink:href="#SvgjsPath3366" x="270" y="270" stroke="rgba(195, 226, 255, 1)"></use><use xlink:href="#SvgjsPath3363" x="270" y="330" stroke="rgba(195, 226, 255, 1)"></use><use xlink:href="#SvgjsPath3365" x="270" y="390" stroke="rgba(195, 226, 255, 1)"></use><use xlink:href="#SvgjsPath3367" x="270" y="450" stroke="rgba(195, 226, 255, 1)"></use><use xlink:href="#SvgjsPath3367" x="270" y="510" stroke="rgba(195, 226, 255, 1)"></use><use xlink:href="#SvgjsPath3364" x="270" y="570" stroke="rgba(195, 226, 255, 1)" stroke-width="3"></use><use xlink:href="#SvgjsPath3363" x="270" y="630" stroke="rgba(195, 226, 255, 1)"></use><use xlink:href="#SvgjsPath3366" x="270" y="690" stroke="rgba(195, 226, 255, 1)"></use><use xlink:href="#SvgjsPath3365" x="330" y="30" stroke="rgba(195, 226, 255, 1)"></use><use xlink:href="#SvgjsPath3368" x="330" y="90" stroke="rgba(195, 226, 255, 1)"></use><use xlink:href="#SvgjsPath3368" x="330" y="150" stroke="rgba(195, 226, 255, 1)"></use><use xlink:href="#SvgjsPath3365" x="330" y="210" stroke="rgba(195, 226, 255, 1)"></use><use xlink:href="#SvgjsPath3368" x="330" y="270" stroke="rgba(195, 226, 255, 1)"></use><use xlink:href="#SvgjsPath3363" x="330" y="330" stroke="rgba(195, 226, 255, 1)"></use><use xlink:href="#SvgjsPath3365" x="330" y="390" stroke="rgba(195, 226, 255, 1)"></use><use xlink:href="#SvgjsPath3363" x="330" y="450" stroke="rgba(195, 226, 255, 1)"></use><use xlink:href="#SvgjsPath3367" x="330" y="510" stroke="rgba(195, 226, 255, 1)"></use><use xlink:href="#SvgjsPath3367" x="330" y="570" stroke="rgba(195, 226, 255, 1)"></use><use xlink:href="#SvgjsPath3363" x="330" y="630" stroke="rgba(195, 226, 255, 1)"></use><use xlink:href="#SvgjsPath3368" x="330" y="690" stroke="rgba(195, 226, 255, 1)"></use><use xlink:href="#SvgjsPath3368" x="390" y="30" stroke="rgba(195, 226, 255, 1)"></use><use xlink:href="#SvgjsPath3368" x="390" y="90" stroke="rgba(195, 226, 255, 1)"></use><use xlink:href="#SvgjsPath3366" x="390" y="150" stroke="rgba(195, 226, 255, 1)"></use><use xlink:href="#SvgjsPath3367" x="390" y="210" stroke="rgba(195, 226, 255, 1)"></use><use xlink:href="#SvgjsPath3365" x="390" y="270" stroke="rgba(195, 226, 255, 1)"></use><use xlink:href="#SvgjsPath3363" x="390" y="330" stroke="rgba(195, 226, 255, 1)"></use><use xlink:href="#SvgjsPath3365" x="390" y="390" stroke="rgba(195, 226, 255, 1)"></use><use xlink:href="#SvgjsPath3367" x="390" y="450" stroke="rgba(195, 226, 255, 1)"></use><use xlink:href="#SvgjsPath3367" x="390" y="510" stroke="rgba(195, 226, 255, 1)"></use><use xlink:href="#SvgjsPath3363" x="390" y="570" stroke="rgba(195, 226, 255, 1)"></use><use xlink:href="#SvgjsPath3363" x="390" y="630" stroke="rgba(195, 226, 255, 1)"></use><use xlink:href="#SvgjsPath3366" x="390" y="690" stroke="rgba(195, 226, 255, 1)"></use><use xlink:href="#SvgjsPath3365" x="450" y="30" stroke="rgba(195, 226, 255, 1)"></use><use xlink:href="#SvgjsPath3363" x="450" y="90" stroke="rgba(195, 226, 255, 1)"></use><use xlink:href="#SvgjsPath3366" x="450" y="150" stroke="rgba(195, 226, 255, 1)"></use><use xlink:href="#SvgjsPath3363" x="450" y="210" stroke="rgba(195, 226, 255, 1)"></use><use xlink:href="#SvgjsPath3363" x="450" y="270" stroke="rgba(195, 226, 255, 1)"></use><use xlink:href="#SvgjsPath3365" x="450" y="330" stroke="rgba(195, 226, 255, 1)"></use><use xlink:href="#SvgjsPath3368" x="450" y="390" stroke="rgba(195, 226, 255, 1)"></use><use xlink:href="#SvgjsPath3365" x="450" y="450" stroke="rgba(195, 226, 255, 1)"></use><use xlink:href="#SvgjsPath3363" x="450" y="510" stroke="rgba(195, 226, 255, 1)"></use><use xlink:href="#SvgjsPath3368" x="450" y="570" stroke="rgba(195, 226, 255, 1)"></use><use xlink:href="#SvgjsPath3364" x="450" y="630" stroke="rgba(195, 226, 255, 1)" stroke-width="3"></use><use xlink:href="#SvgjsPath3363" x="450" y="690" stroke="rgba(195, 226, 255, 1)"></use><use xlink:href="#SvgjsPath3368" x="510" y="30" stroke="rgba(195, 226, 255, 1)"></use><use xlink:href="#SvgjsPath3368" x="510" y="90" stroke="rgba(195, 226, 255, 1)"></use><use xlink:href="#SvgjsPath3363" x="510" y="150" stroke="rgba(195, 226, 255, 1)"></use><use xlink:href="#SvgjsPath3365" x="510" y="210" stroke="rgba(195, 226, 255, 1)"></use><use xlink:href="#SvgjsPath3365" x="510" y="270" stroke="rgba(195, 226, 255, 1)"></use><use xlink:href="#SvgjsPath3363" x="510" y="330" stroke="rgba(195, 226, 255, 1)"></use><use xlink:href="#SvgjsPath3365" x="510" y="390" stroke="rgba(195, 226, 255, 1)"></use><use xlink:href="#SvgjsPath3367" x="510" y="450" stroke="rgba(195, 226, 255, 1)"></use><use xlink:href="#SvgjsPath3363" x="510" y="510" stroke="rgba(195, 226, 255, 1)"></use><use xlink:href="#SvgjsPath3364" x="510" y="570" stroke="rgba(195, 226, 255, 1)" stroke-width="3"></use><use xlink:href="#SvgjsPath3365" x="510" y="630" stroke="rgba(195, 226, 255, 1)"></use><use xlink:href="#SvgjsPath3365" x="510" y="690" stroke="rgba(195, 226, 255, 1)"></use><use xlink:href="#SvgjsPath3363" x="570" y="30" stroke="rgba(195, 226, 255, 1)"></use><use xlink:href="#SvgjsPath3367" x="570" y="90" stroke="rgba(195, 226, 255, 1)"></use><use xlink:href="#SvgjsPath3368" x="570" y="150" stroke="rgba(195, 226, 255, 1)"></use><use xlink:href="#SvgjsPath3367" x="570" y="210" stroke="rgba(195, 226, 255, 1)"></use><use xlink:href="#SvgjsPath3365" x="570" y="270" stroke="rgba(195, 226, 255, 1)"></use><use xlink:href="#SvgjsPath3363" x="570" y="330" stroke="rgba(195, 226, 255, 1)"></use><use xlink:href="#SvgjsPath3365" x="570" y="390" stroke="rgba(195, 226, 255, 1)"></use><use xlink:href="#SvgjsPath3365" x="570" y="450" stroke="rgba(195, 226, 255, 1)"></use><use xlink:href="#SvgjsPath3365" x="570" y="510" stroke="rgba(195, 226, 255, 1)"></use><use xlink:href="#SvgjsPath3365" x="570" y="570" stroke="rgba(195, 226, 255, 1)"></use><use xlink:href="#SvgjsPath3363" x="570" y="630" stroke="rgba(195, 226, 255, 1)"></use><use xlink:href="#SvgjsPath3368" x="570" y="690" stroke="rgba(195, 226, 255, 1)"></use><use xlink:href="#SvgjsPath3368" x="630" y="30" stroke="rgba(195, 226, 255, 1)"></use><use xlink:href="#SvgjsPath3368" x="630" y="90" stroke="rgba(195, 226, 255, 1)"></use><use xlink:href="#SvgjsPath3363" x="630" y="150" stroke="rgba(195, 226, 255, 1)"></use><use xlink:href="#SvgjsPath3365" x="630" y="210" stroke="rgba(195, 226, 255, 1)"></use><use xlink:href="#SvgjsPath3368" x="630" y="270" stroke="rgba(195, 226, 255, 1)"></use><use xlink:href="#SvgjsPath3363" x="630" y="330" stroke="rgba(195, 226, 255, 1)"></use><use xlink:href="#SvgjsPath3365" x="630" y="390" stroke="rgba(195, 226, 255, 1)"></use><use xlink:href="#SvgjsPath3363" x="630" y="450" stroke="rgba(195, 226, 255, 1)"></use><use xlink:href="#SvgjsPath3366" x="630" y="510" stroke="rgba(195, 226, 255, 1)"></use><use xlink:href="#SvgjsPath3363" x="630" y="570" stroke="rgba(195, 226, 255, 1)"></use><use xlink:href="#SvgjsPath3363" x="630" y="630" stroke="rgba(195, 226, 255, 1)"></use><use xlink:href="#SvgjsPath3367" x="630" y="690" stroke="rgba(195, 226, 255, 1)"></use><use xlink:href="#SvgjsPath3363" x="690" y="30" stroke="rgba(195, 226, 255, 1)"></use><use xlink:href="#SvgjsPath3366" x="690" y="90" stroke="rgba(195, 226, 255, 1)"></use><use xlink:href="#SvgjsPath3365" x="690" y="150" stroke="rgba(195, 226, 255, 1)"></use><use xlink:href="#SvgjsPath3365" x="690" y="210" stroke="rgba(195, 226, 255, 1)"></use><use xlink:href="#SvgjsPath3363" x="690" y="270" stroke="rgba(195, 226, 255, 1)"></use><use xlink:href="#SvgjsPath3363" x="690" y="330" stroke="rgba(195, 226, 255, 1)"></use><use xlink:href="#SvgjsPath3365" x="690" y="390" stroke="rgba(195, 226, 255, 1)"></use><use xlink:href="#SvgjsPath3366" x="690" y="450" stroke="rgba(195, 226, 255, 1)"></use><use xlink:href="#SvgjsPath3363" x="690" y="510" stroke="rgba(195, 226, 255, 1)"></use><use xlink:href="#SvgjsPath3366" x="690" y="570" stroke="rgba(195, 226, 255, 1)"></use><use xlink:href="#SvgjsPath3365" x="690" y="630" stroke="rgba(195, 226, 255, 1)"></use><use xlink:href="#SvgjsPath3363" x="690" y="690" stroke="rgba(195, 226, 255, 1)"></use></symbol></svg>