<svg xmlns="http://www.w3.org/2000/svg" viewBox="0 0 48 48" id="popsicle"><path fill="#d2c3fc" d="M18 11a.992.992 0 0 1-.71-.29 1.163 1.163 0 0 1-.21-.33A.844.844 0 0 1 17 10a.999.999 0 0 1 .08-.38 1.15 1.15 0 0 1 .21-.33 1.047 1.047 0 0 1 1.42 0 1.159 1.159 0 0 1 .21.33A1 1 0 0 1 19 10a.837.837 0 0 1-.08.38 1.173 1.173 0 0 1-.21.33.992.992 0 0 1-.71.29Zm6.71.71a.99.99 0 0 0 .21-1.09.985.985 0 0 0-1.63-.33 1.15 1.15 0 0 0-.21.33.946.946 0 0 0 0 .76 1.163 1.163 0 0 0 .21.33 1.014 1.014 0 0 0 1.42 0Zm6 4a1.173 1.173 0 0 0 .21-.33A1 1 0 0 0 31 15a1 1 0 1 0-2 0 .999.999 0 0 0 .08.38 1.163 1.163 0 0 0 .21.33 1.014 1.014 0 0 0 1.42 0Zm-8.33 2.21a1.155 1.155 0 0 0 .33-.21A.992.992 0 0 0 23 17a.837.837 0 0 0-.08-.38.986.986 0 0 0-1.84 0 .99.99 0 0 0 1.3 1.3Zm8.33-7.21a1.173 1.173 0 0 0 .21-.33A.837.837 0 0 0 31 10a1 1 0 0 0-.08-.38 1.159 1.159 0 0 0-.21-.33 1.047 1.047 0 0 0-1.42 0 1.15 1.15 0 0 0-.21.33.999.999 0 0 0-.08.38.844.844 0 0 0 .08.38 1.163 1.163 0 0 0 .21.33 1.014 1.014 0 0 0 1.42 0ZM22 22.5v-.503l12-.006a1 1 0 0 0 0-2l-12 .006a2.002 2.002 0 0 0-2 2v.503a.5.5 0 0 1-1 0v-.501a1.999 1.999 0 0 0-1.997-2h-.004L14 20a1 1 0 0 0 0 2l3-.001v.501a2.5 2.5 0 0 0 5 0Z"></path><path fill="#b394f7" d="M30 5H18a5.006 5.006 0 0 0-5 5v17a3.003 3.003 0 0 0 3 3h4v7a4 4 0 0 0 8 0v-7h4a3.003 3.003 0 0 0 3-3V10a5.006 5.006 0 0 0-5-5Zm-4 32a2 2 0 0 1-4 0v-7h4Zm7-10a1 1 0 0 1-1 1H16a1 1 0 0 1-1-1V10a3.003 3.003 0 0 1 3-3h12a3.003 3.003 0 0 1 3 3Z"></path></svg>