<svg xmlns="http://www.w3.org/2000/svg" enable-background="new 0 0 48 48" viewBox="0 0 48 48" id="sparkles"><circle cx="36" cy="7" r="1" fill="#169ef2"></circle><circle cx="36" cy="45" r="1" fill="#169ef2"></circle><circle cx="27" cy="39" r="1" fill="#169ef2"></circle><circle cx="3" cy="30" r="1" fill="#169ef2"></circle><circle cx="6" cy="7" r="1" fill="#169ef2"></circle><path fill="#f2d230" d="M10 20c0-.6-.4-1-1-1s-1 .4-1 1c-.6 0-1 .4-1 1s.4 1 1 1c0 .6.4 1 1 1s1-.4 1-1c.6 0 1-.4 1-1S10.6 20 10 20zM45 35c0-.6-.4-1-1-1s-1 .4-1 1c-.6 0-1 .4-1 1s.4 1 1 1c0 .6.4 1 1 1s1-.4 1-1c.6 0 1-.4 1-1S45.6 35 45 35zM27 3c0-.6-.4-1-1-1s-1 .4-1 1c-.6 0-1 .4-1 1s.4 1 1 1c0 .6.4 1 1 1s1-.4 1-1c.6 0 1-.4 1-1S27.6 3 27 3z"></path><path fill="#169ef2" d="M42 15h-2c-.6 0-1-.4-1-1s.4-1 1-1h2c.6 0 1 .4 1 1S42.6 15 42 15zM23 32h-2c-.6 0-1-.4-1-1s.4-1 1-1h2c.6 0 1 .4 1 1S23.6 32 23 32zM19 44h-2c-.6 0-1-.4-1-1s.4-1 1-1h2c.6 0 1 .4 1 1S19.6 44 19 44z"></path><path fill="#8416f2" d="M32,36c-0.6,0-1-0.4-1-1c0-5.5-4.5-10-10-10c-0.6,0-1-0.4-1-1s0.4-1,1-1c1.7,0,3.4-0.4,4.9-1.3
			c0.5-0.3,1.1-0.1,1.4,0.4c0.3,0.5,0.1,1.1-0.4,1.4c-0.3,0.2-0.7,0.4-1,0.5c2.8,1.2,5,3.4,6.2,6.2c1.2-2.8,3.4-5,6.2-6.2
			c-2.8-1.2-5-3.4-6.2-6.2c-0.2,0.4-0.3,0.7-0.5,1c-0.3,0.5-0.9,0.7-1.4,0.4c-0.5-0.3-0.7-0.9-0.4-1.4c0.8-1.5,1.3-3.2,1.3-4.9
			c0-0.6,0.4-1,1-1s1,0.4,1,1c0,5.5,4.5,10,10,10c0.6,0,1,0.4,1,1s-0.4,1-1,1c-5.5,0-10,4.5-10,10C33,35.6,32.6,36,32,36z"></path><path fill="#f2388f" d="M16 19c-.6 0-1-.4-1-1 0-2.8-2.2-5-5-5-.6 0-1-.4-1-1s.4-1 1-1c2.8 0 5-2.2 5-5 0-.6.4-1 1-1s1 .4 1 1c0 2.8 2.2 5 5 5 .6 0 1 .4 1 1s-.4 1-1 1c-2.8 0-5 2.2-5 5C17 18.6 16.6 19 16 19zM13.6 12c1 .6 1.8 1.4 2.4 2.4.6-1 1.4-1.8 2.4-2.4-1-.6-1.8-1.4-2.4-2.4C15.4 10.6 14.6 11.4 13.6 12zM11 43c-.6 0-1-.4-1-1 0-2.8-2.2-5-5-5-.6 0-1-.4-1-1s.4-1 1-1c2.8 0 5-2.2 5-5 0-.6.4-1 1-1s1 .4 1 1c0 2.8 2.2 5 5 5 .6 0 1 .4 1 1s-.4 1-1 1c-2.8 0-5 2.2-5 5C12 42.6 11.6 43 11 43zM8.6 36c1 .6 1.8 1.4 2.4 2.4.6-1 1.4-1.8 2.4-2.4-1-.6-1.8-1.4-2.4-2.4C10.4 34.6 9.6 35.4 8.6 36z"></path><circle cx="28.8" cy="20.8" r="1" fill="#f2388f"></circle></svg>