<svg xmlns="http://www.w3.org/2000/svg" xmlns:xlink="http://www.w3.org/1999/xlink" width="500" zoomAndPan="magnify" viewBox="0 0 375 374.999991" height="500" preserveAspectRatio="xMidYMid meet" version="1.0"><defs><clipPath id="a314c28c7a"><path d="M 40.945312 2.082031 L 334.195312 2.082031 L 334.195312 372.578125 L 40.945312 372.578125 Z M 40.945312 2.082031 " clip-rule="nonzero"/></clipPath></defs><g clip-path="url(#a314c28c7a)"><path fill="#ffffff" d="M 111.511719 2.085938 L 40.96875 251.460938 L 114.484375 251.78125 L 88.5625 372.925781 L 205.367188 197.96875 L 125.539062 198.136719 L 160.277344 84.929688 L 246.347656 84.625 C 247.015625 84.625 247.675781 84.6875 248.332031 84.820312 C 248.984375 84.949219 249.621094 85.140625 250.238281 85.398438 C 250.851562 85.652344 251.4375 85.964844 251.992188 86.335938 C 252.546875 86.707031 253.0625 87.128906 253.53125 87.601562 C 254.003906 88.070312 254.425781 88.585938 254.796875 89.140625 C 255.167969 89.695312 255.480469 90.28125 255.734375 90.898438 C 255.992188 91.511719 256.183594 92.148438 256.3125 92.800781 C 256.445312 93.457031 256.507812 94.117188 256.507812 94.785156 C 256.507812 95.457031 256.441406 96.121094 256.3125 96.777344 C 256.179688 97.433594 255.984375 98.074219 255.726562 98.691406 C 255.46875 99.3125 255.152344 99.898438 254.777344 100.453125 C 254.402344 101.011719 253.976562 101.527344 253.5 101.996094 C 253.023438 102.46875 252.507812 102.890625 251.945312 103.261719 C 251.386719 103.628906 250.796875 103.941406 250.175781 104.191406 C 249.554688 104.445312 248.914062 104.636719 248.253906 104.761719 C 247.597656 104.886719 246.933594 104.945312 246.261719 104.941406 L 176.394531 104.984375 L 153.628906 178.835938 L 245.683594 178.835938 C 294.75 178.835938 334.453125 138.832031 334.054688 89.742188 C 333.632812 41.214844 294.179688 2.085938 245.652344 2.085938 Z M 111.511719 2.085938 " fill-opacity="1" fill-rule="nonzero"/></g></svg>